<?xml version="1.0" standalone="no"?>
<!DOCTYPE svg PUBLIC "-//W3C//DTD SVG 1.1//EN" "http://www.w3.org/Graphics/SVG/1.1/DTD/svg11.dtd" >
<svg xmlns="http://www.w3.org/2000/svg" xmlns:xlink="http://www.w3.org/1999/xlink" version="1.1">
<metadata></metadata>
<defs>
<font id="kg_tangled_up_in_you_2regular" horiz-adv-x="853" >
<font-face units-per-em="2048" ascent="1638" descent="-410" />
<missing-glyph horiz-adv-x="323" />
<glyph horiz-adv-x="0" />
<glyph unicode="&#xd;" horiz-adv-x="458" />
<glyph unicode=" "  horiz-adv-x="323" />
<glyph unicode="&#x09;" horiz-adv-x="323" />
<glyph unicode="&#xa0;" horiz-adv-x="323" />
<glyph unicode="!" horiz-adv-x="341" d="M41 122l14 37l6 26l40 40l58 19h31l55 -27l27 -27l19 -39v-54l-4 -12l-9 -37l-14 -9l-34 -30l-57 -16l-46 10l-34 16l-27 27zM62 322v976l11 31h106l19 -4l19 4h43l11 -10l8 -36v-89l-3 -64l4 -127l-6 -28l6 -157l-4 -66l4 -128l-4 -61l4 -129l-4 -66v-50l-14 -14l-99 -6 l-78 5l-18 8z" />
<glyph unicode="&#x22;" horiz-adv-x="568" d="M50 996v16l8 23l10 51l11 26l-6 32l6 36l-17 88v35l-12 34v28l16 15l23 8h108l37 -12l25 -68l5 -34l11 -22v-128l-8 -23v-50l-12 -27l-11 -35l-16 -8h-35l-11 -4h-113zM302 1006v16l8 23l10 51l11 26l-6 32l6 36l-17 88v35l-12 34v28l16 15l23 8h108l37 -12l25 -68l5 -34 l11 -22v-128l-8 -23v-50l-12 -27l-11 -35l-16 -8h-35l-11 -4h-113z" />
<glyph unicode="#" horiz-adv-x="787" d="M44 380l7 19v109l12 11l17 9l-21 11l-15 25l7 29v153l66 6h54v101l19 19h82l83 5l27 -14l10 -14l9 17l22 6h43l65 4l71 -4l15 -16v-99l19 -5h82l17 -18l6 -18l-4 -162l-9 -18l-14 -7l23 -15v-154l5 -33l-10 -11l-26 -10h-89v-101l-23 -23h-70l-47 4h-66l-11 12l-4 15h-4 l-8 -25l-44 -7l-66 6l-78 -7l-25 25v96l-23 5h-66l-28 14zM376 511h35l3 40l-38 -2v-38z" />
<glyph unicode="$" horiz-adv-x="771" d="M43 948v128l16 31l3 38l18 23l11 31l38 50l52 41l44 22l46 13l7 40l20 20l55 5l27 -4h85l23 -23l5 -51l81 -43l69 -86l16 -38l17 -33l7 -32l12 -42l10 -104l-8 -16l-11 -5l-58 -4l-23 -5l-112 5l-5 -112l5 -49l47 -34l99 -94l47 -83l28 -62l3 -31l4 -20v-27l8 -38v-90 l-4 -11l-6 -32l-5 -11l-5 -41l-11 -21l-15 -23l-24 -43l-31 -31l-19 -11l-37 -32l-33 -11l-23 -4l-23 -11l-6 -30l-18 -17h-15l-16 4h-139l-17 17l-11 43l-34 17l-51 35l-42 43l-47 70l-7 31l-26 59l-9 96l-4 15v66l11 23l79 5l117 -5l18 -11v66l5 20l-5 26v54l-18 18 l-48 29l-89 89l-50 79l-16 61l-4 34zM248 956l24 -47l5 -17l10 -10h4v213l-23 -23l-4 -16l-16 -46v-54zM472 432l7 -42l-6 -24v-147l9 -17l14 25l11 10l13 44v54l-4 27v16l-8 31l-30 60z" />
<glyph unicode="%" horiz-adv-x="747" d="M44 3l7 48l11 16l8 38l12 19l8 28l7 23l9 36l26 65l4 31l15 19l7 36l11 22l14 54l37 95l6 35l15 29l9 36l21 52l9 36l15 31l23 86l14 27l13 51l16 38l8 31l12 26l22 74l29 79l6 30l12 23l7 34l12 17l8 35l14 14l33 5h147l28 -9l10 -20l-7 -21l-18 -37l-5 -29l-8 -20 l-4 -15l-15 -35l-12 -46l-15 -31l-4 -28l-12 -27l-4 -15l-11 -24l-10 -48l-20 -33l-8 -41l-32 -91l-5 -28l-19 -18l-3 -43l-12 -24l-27 -84l-20 -47l-7 -43l-20 -24v-34l-27 -54l-8 -41l-30 -81l-6 -34l-17 -18l-5 -44l-22 -44l-5 -29l-8 -19l-10 -38l-24 -24h-186l-11 5z M77 1195l6 43l22 26l6 24l45 22l42 12l55 -8l65 -65l8 -51v-33l-17 -25l-7 -22l-46 -34l-52 -13l-63 10l-36 36l-20 41zM410 113l21 62l27 27l46 23h66l24 -15l29 -15l26 -39l11 -46l-4 -44l-12 -19l-15 -31l-66 -35h-32l-34 6l-35 17l-35 35l-8 16z" />
<glyph unicode="&#x26;" horiz-adv-x="775" d="M43 272v73l4 20v40l12 67l11 17l4 38l31 93l16 31l21 55l24 40l10 29l10 16l-11 35l-4 23l-12 27l-11 35l-12 30l-15 106l-9 29l9 21v54l19 59l31 46l35 23l54 27l43 8h81l47 -15l46 -31l39 -39l17 -35l16 -63l-10 -49l-5 -52l-14 -57l-12 -23l-5 -33l-21 -21l-6 -37 l-34 -49l-12 -33l12 -33l6 -23l21 -42l8 -24v24l-4 15v27l4 12v39l10 20l47 8l34 -7l71 6l72 -5l14 -14l6 -81l-14 -187l-3 -19l-5 -39l-7 -27l-4 -43l-11 -17l-4 -45l-23 -44l-8 -45l10 -27l6 -29l22 -37l12 -35l36 -85l-6 -28l-11 -11h-35l-77 -4l-86 5l-27 49h-11 l-44 -22l-45 -13l-39 -3l-21 -9l-95 5l-51 10l-27 21l-44 29l-26 44l-25 41l-6 29l-14 43zM241 365l4 -77l11 -32l7 -26l16 -17l45 -15l50 13l29 30v23l-38 77l-16 47l-35 81l-14 56l-9 14l-29 -59l-6 -38l-4 -12l-4 -27zM314 1016l8 -16l10 20l13 54v31l-5 12h-18l-8 -8 v-93z" />
<glyph unicode="'" horiz-adv-x="334" d="M50 996v16l8 23l10 51l11 26l-6 32l6 36l-17 88v35l-12 34v28l16 15l23 8h108l37 -12l25 -68l5 -34l11 -22v-128l-8 -23v-50l-12 -27l-11 -35l-16 -8h-35l-11 -4h-113z" />
<glyph unicode="(" horiz-adv-x="547" d="M35 617l4 65v112l12 35v23l3 20l6 53l14 51l8 16v45l15 21l5 30l38 94l9 27l24 36l13 34l23 27l16 31l19 19l8 16l35 35l15 19l20 16l27 23l23 11l30 26l52 17h23l8 -15l3 -43l6 -29l-13 -25l9 -37l-6 -68l-34 -35l-27 -31l-8 -8l-35 -54l-14 -19l-7 -27l-18 -24l-23 -62 l-6 -11l-10 -39l-11 -27l-8 -47l-8 -19v-43l-14 -30l-5 -113v-43l-4 -15v-47l4 -23l8 -85l7 -24v-71l28 -68l3 -39l20 -39l25 -62l21 -35l31 -54l24 -23l46 -31l35 -35v-101l5 -25l-5 -25v-50l-16 -16h-15l-47 12l-46 23l-115 87l-25 33l-31 36l-19 38l-12 15l-27 54l-20 35 l-30 89l-19 39v27l-11 30l-13 71l-4 16v35l-3 15l-4 43l-8 46v39z" />
<glyph unicode=")" horiz-adv-x="550" d="M40 12l8 31l-6 51l13 19l31 15l66 66l23 35l15 31l35 54l4 39l16 19l3 20l24 89l15 97l8 23v124l5 56l-5 25l-8 82l-4 19l-4 39l-7 21l-4 37l-16 66l-19 39l-5 28l-42 88l-12 31l-46 58l-52 58l-14 28v108l-6 31l10 31v19l16 16h23l62 -31l54 -43l32 -22l15 -20l35 -43 l15 -23l25 -29l18 -37l31 -54l11 -31l42 -85l5 -36l14 -33l21 -87l4 -31l4 -19l3 -39l7 -26l5 -67l4 -15v-217l-12 -55v-50l-7 -31l-4 -31l-7 -14l-8 -53l-12 -38l-10 -37l-14 -33l-11 -38l-16 -31l-6 -20l-16 -23l-6 -20l-18 -23l-16 -31l-54 -69l-39 -39l-27 -17l-13 -25 l-30 -5l-22 -22l-31 -6l-43 -22h-24l-18 9l-5 24l7 54z" />
<glyph unicode="*" horiz-adv-x="810" d="M38 488l7 34l-7 43l10 46l57 13h98l-21 57l-42 63v16l16 33l38 8l15 22l29 10l22 16l47 19l25 -13l62 -109l11 -11l14 29l18 24l9 22l18 22l8 26l13 6h32l143 -84l10 -28l-30 -54l-18 -26l-9 -25l-23 -23l48 -7l47 7l64 -4l11 -11l4 -35l4 -24v-85l-4 -19v-27l-8 -8 l-35 -12h-120v-13l35 -58l31 -41v-35l-25 -25l-29 -10l-27 -23l-30 -12l-19 -13l-37 -16l-25 12l-14 21l-7 16l-27 40l-12 29l-12 16l-7 -16l-21 -26l-14 -28l-8 -19l-16 -20l-14 -23h-29l-61 39l-77 42l-16 16v23l25 43l14 34l32 43l-42 10l-27 -6l-84 4l-14 15z" />
<glyph unicode="+" horiz-adv-x="636" d="M34 424l7 62l-6 22v85l8 16l15 15h51l97 -5v147l16 25l84 5l20 -5h77l18 -9l5 -22v-66l4 -15v-55h121l44 -14l6 -13v-170l-11 -22l-16 -5h-51l-28 5l-22 -5h-47v-90l4 -15v-31l-17 -35h-180l-20 7l-7 51v113h-66l-28 5l-28 -7l-30 7z" />
<glyph unicode="," horiz-adv-x="318" d="M50 176l21 22h136l24 -10l15 -29l15 -54l4 -35l5 -20l-7 -146l-14 -42l-26 -13h-101l-21 5l-26 -4l-16 2l-7 12v24l19 73v66z" />
<glyph unicode="-" horiz-adv-x="671" d="M50 422v20l4 15v156l89 13l145 -8l48 9l145 -9l30 6h62l38 -9l8 -17l-8 -23l5 -25v-139l-16 -8h-34l-16 -4h-143l-26 6l-25 -6h-139l-28 5l-23 -5h-93z" />
<glyph unicode="." horiz-adv-x="341" d="M46 112l13 26l7 31l39 39l31 15h78l31 -15l30 -30l24 -57v-37l-8 -24l-4 -15l-19 -19l-18 -30l-67 -17h-24l-33 7l-65 64z" />
<glyph unicode="/" horiz-adv-x="705" d="M23 -7v42l17 44l14 20v34l18 30l5 27l51 148l11 23l5 37l14 22l5 22l11 23l4 28l16 31l5 34l29 64l14 67l21 29v37l18 24l6 31l11 31l12 35l11 28l4 26l24 47l3 35l16 31l15 54l17 38l16 67l26 50v35l34 35h175l25 -12l6 -19l-8 -23l-5 -22l-14 -33l-12 -42l-11 -27 l-5 -32l-12 -12l-19 -76l-32 -74l-7 -35l-13 -34l-5 -20l-12 -27l-8 -24l-8 -19l-4 -23l-11 -24l-10 -38l-13 -27l-4 -24l-12 -27l-35 -104l-4 -28l-13 -13l-6 -29l-12 -27l-7 -35l-30 -77l-9 -36l-8 -19l-8 -27l-11 -23l-4 -20l-23 -66l-8 -31l-13 -26l-17 -62l-22 -21 l-28 -7l-56 4h-97z" />
<glyph unicode="0" horiz-adv-x="860" d="M41 643l10 19v62l8 62v39l11 23v39l16 47l15 77l21 42l12 43l14 20l19 39l31 38l13 27l27 11l12 27l26 13l22 22l31 6l59 30h97l23 -8h19l55 -18l82 -64l40 -60l11 -29l26 -38l15 -46l5 -30l10 -19l5 -33l23 -116v-35l11 -35v-50l6 -82l-11 -22l10 -37l-8 -57v-15l-4 -31 v-20l-13 -25l6 -33l-13 -39l-22 -99l-21 -43l-7 -32l-19 -20l-7 -33l-24 -25l-39 -54l-16 -15l-26 -9l-15 -23l-33 -13l-20 -13l-80 -16h-35l-28 -6l-38 6l-82 27l-50 43l-33 19l-36 47l-20 38l-14 25l-13 37l-10 20l-5 23l-12 35l-18 113l-11 28l9 27l-7 41v89zM271 547 l5 -28l3 -43l4 -19l9 -67l9 -18l11 -45l23 -53l41 -42l24 -11h49l64 56l14 44l16 31l22 81l5 67l12 52v223l-4 19l-4 35l-8 47l-4 34l-11 59l-20 38l-12 38l-23 37l-20 14l-44 5l-48 -32l-35 -46l-11 -35l-20 -24v-30l-22 -44l-8 -85l-12 -65v-39z" />
<glyph unicode="1" horiz-adv-x="322" d="M48 113l6 18v136l-6 38l6 16v140l-6 36l6 18v144l-6 29l6 17v140l-6 36l6 18v139l-6 34l6 17v139l-6 36l10 30v20l15 15h55l71 6l54 -11l14 -14v-105l4 -108l-4 -20v-1070l-15 -15h-28l-35 -6l-113 7l-18 9l-4 48v27z" />
<glyph unicode="2" horiz-adv-x="721" d="M41 111l10 55v35l23 23l21 42l26 36l15 27l8 12l15 27l24 35l34 64l18 24l11 34l20 19l8 25l15 23l12 29l13 18l10 25l12 18l9 27l16 31l8 23l30 61l12 55l4 12l4 16l15 31v89l-14 57l-20 20h-50l-52 -32l-7 -22l-15 -31l-5 -48l-42 -10h-139l-38 9l-5 22v62l19 58l4 31 l20 23l9 23l39 51l17 12l20 19l31 15l18 19l36 5l50 19h105l19 -7l38 -6l46 -18l41 -27l34 -35l16 -23l25 -34l10 -28l15 -31v-35l12 -35v-23l-4 -16v-83l-12 -29l-4 -32l-15 -50l-4 -23l-11 -19l-20 -62l-15 -31l-7 -26l-15 -16l-11 -40l-29 -50l-28 -58l-15 -23l-25 -51 l-19 -25l-10 -25l-16 -20l-15 -31l-16 -19l-23 -46l-22 -26l-6 -21h323l13 -14l6 -17v-159l-9 -18l-34 -5h-93l-42 -6l-31 6h-121l-39 -5l-34 5h-116l-43 -6l-50 9l-12 12v39z" />
<glyph unicode="3" horiz-adv-x="748" d="M41 928l6 64l4 12l5 70l22 65l35 70l70 70l73 36l54 10h47l15 4h51l42 -11l28 -12l34 -11l35 -32l34 -27l28 -50l20 -29l23 -53v-34l12 -30v-44l-8 -43l-4 -35l-15 -31v-27l-21 -20l-13 -32l-28 -37l-14 -13l25 -30l16 -23l35 -41l7 -21l15 -39l9 -38l11 -39l4 -35l4 -23 v-78l-4 -27v-39l-8 -27l-15 -70l-12 -19l-19 -51l-31 -42l-18 -30l-88 -69l-84 -25h-74l-58 8l-12 4l-33 8l-64 35l-73 73l-33 71l-6 41l-15 37v18l-4 31v84l27 33l35 -9h104l45 -8l10 -38v-39l-6 -28l37 -73l30 -20l62 -12l8 9l13 17l21 7l5 11l4 23l19 38l11 103l-12 39 l8 26l-28 71l-33 44l-70 32h-46l-12 11l-13 60l7 23l-6 62l10 52l22 16h38l38 13l33 20l32 48l21 53v14l-7 23l-8 37l-25 34l-27 18h-22l-11 -4l-35 -4l-16 -11l-30 -18l-8 -33l-21 -48l7 -78l-21 -20l-53 -5l-36 5l-25 -6l-69 6l-9 9z" />
<glyph unicode="4" horiz-adv-x="698" d="M31 670v640l12 11l46 12h35l50 -4h49l21 -14v-168l6 -21l-6 -53v-116l5 -24l-6 -69l91 -6l96 6v27l-4 23v105l4 19v43l-4 23v105l7 41l-8 55l13 12l31 16h43l46 -4h51l23 -8l11 -11v-1291l-13 -22l-10 -5h-73l-24 -4h-46l-41 8l-10 19v43l8 44l-8 45v105l4 19v43l-4 23 v104l8 45l-8 45v116h-73l-29 -6l-29 6h-132l-32 -7l-26 7h-51z" />
<glyph unicode="5" horiz-adv-x="787" d="M47 379v66l19 20h55l17 -5l21 5l85 3l27 -12l5 -11v-81l7 -47l8 -23l9 -36l42 -41l34 -12h65l36 43l20 34l3 39l8 31v58l6 38l-6 32l-8 23l-5 35l-26 51l-31 31l-46 23l-43 8l-35 -8l-19 -12l-35 -4l-22 -17l-44 6h-104l-31 13l-4 41l-5 30l6 28l-6 93l7 29l-7 43l5 28 l-5 91l7 31l-8 43l7 25l-6 94l7 29l-7 44l14 49l20 7l100 -8l89 8l101 -9l91 9l103 -8l103 9l31 -10l16 -15v-35l5 -35l-12 -25l7 -26v-46l-11 -21l-35 -9l-51 9l-24 -6h-135l-34 7l-21 -7h-135l-4 -70v-176l76 13h63l47 -11l37 -8l36 -21l45 -20l41 -41l12 -15l38 -47 l24 -46l5 -26l22 -44l23 -128v-35l4 -43l-4 -65l-4 -16l-4 -42l-11 -24l-5 -41l-57 -102l-74 -74l-47 -23l-23 -8l-43 -19h-116l-35 12l-26 5l-87 43l-79 73l-13 34l-31 62l-12 46l-15 51v38z" />
<glyph unicode="6" horiz-adv-x="810" d="M43 549l4 71l4 31v73l8 24l7 42l6 24l7 51l21 43l5 49l19 23l5 30l67 117l64 76l47 37l19 12l37 27l56 16l15 11h43l47 11h112l23 -7l37 -5l10 -19v-178l-23 -23h-16l-15 4l-39 4l-25 5l-45 -9h-31l-33 -14l-25 -6l-20 -15l-23 -12l-50 -50l-12 -20l-20 -24l-8 -27 l-19 -24l-7 -29l-16 -47l-3 -27l-12 -29v-89l57 29l40 4l23 8h123l55 -24l29 -7l61 -42l68 -73l17 -29l11 -35l16 -38v-132l-4 -16v-38l-14 -28l-14 -57l-13 -20l-8 -24l-25 -30l-15 -27l-72 -64l-74 -36l-107 -9l-26 4l-52 6l-31 10l-92 51l-27 26l-11 19l-50 64l-16 41 l-23 46l-12 35l-4 27l-4 16l-4 39l-9 28l-10 123zM259 396l10 -61l17 -35l59 -64l29 -22l33 -9h47l19 8l26 5l13 26l23 23l18 47l9 112l-11 23l-31 31l-47 24h-75l-26 -16l-23 -9l-56 -35z" />
<glyph unicode="7" horiz-adv-x="775" d="M47 1225l11 23v71l39 13l38 -7l39 8h35l43 -4h54l23 -4l50 10l111 -9l94 8l63 -5h77l24 -23v-144l-4 -15l-6 -50l-25 -51l-20 -54l-3 -8l-8 -19l-15 -29l-5 -34l-19 -18l-4 -39l-22 -28l-22 -77l-25 -45l-9 -39l-14 -21l-9 -38l-11 -16l-9 -27l-12 -17l-6 -33l-16 -32 l-4 -11l-11 -27l-12 -31l-47 -105l-8 -42l-18 -24l-6 -28l-14 -22l-8 -39l-15 -31l-12 -19l-24 -79l-22 -22h-39l-29 -6l-111 6h-27l-18 18l7 48l18 23l6 31l13 20l7 27l10 19l9 27l10 16l12 34l14 29l6 32l35 69l20 66l18 18l4 38l18 24l6 24l40 98l6 24l19 28l8 23l5 32 l16 22l17 51l20 39l5 21l41 95l9 34l13 20l9 27l12 24v11h-23l-27 5l-35 -5l-48 6l-18 -6h-66l-23 5l-40 -5l-42 7l-19 -7h-74l-19 20v62z" />
<glyph unicode="8" horiz-adv-x="717" d="M43 279v97l19 113l20 50l18 55l19 25l8 26l17 22l20 36l30 29v20l-35 42l-55 94l-7 34l-19 58v59l4 15v31l8 31l10 51l17 23l50 75l95 57l76 9l95 -7l50 -17l37 -28l50 -50l38 -55l5 -38l15 -47v-19l-11 -93l-16 -31l-5 -29l-14 -30l-20 -27l-15 -38l-51 -67l47 -54 l12 -19l58 -89l36 -102l6 -30l16 -36v-131l-8 -23v-42l-23 -47l-12 -35l-23 -35l-70 -69l-31 -16l-11 -4l-61 -27h-118l-19 4l-49 7l-56 28l-58 39l-37 46l-17 43l-12 23zM252 302l16 -46l44 -44l37 -9l27 6l30 4l13 19l23 28l8 23l12 29v64l-21 84l-22 48l-12 31l-47 55 l-48 -63l-25 -51l-15 -20v-32l-12 -17l-8 -24v-85zM276 1039l11 -35l14 -48l25 -38l19 -19h6l10 19l19 20l10 24l13 20v30l4 15v27l-5 16l-28 38l-21 10l-40 -11l-17 -17z" />
<glyph unicode="9" horiz-adv-x="779" d="M23 957l8 39l8 73l11 24l8 41l49 78l32 32l24 15l17 17l80 34l50 4l58 10l58 -14l37 -6l39 -25h6l5 39l24 17l68 -6h100l16 -15v-47l6 -55l-7 -136l7 -54l-7 -135l7 -58l-7 -136l7 -54l-7 -136l7 -58l-7 -136l7 -52l-7 -138l5 -46l-5 -70l-11 -11h-124l-19 -4h-35l-20 10 v145l-8 41l8 29l-3 143l-5 22l8 29l-3 139l-5 25l5 14v14l-31 -6l-29 -15l-54 -11l-117 10l-50 19l-65 37l-57 57l-24 34l-35 75l-22 88l7 21zM236 883l16 -31l8 -19l27 -27l30 -23l53 -6l73 18l45 46l20 29v60l-4 15l-5 36l-26 54l-58 58l-16 7h-74l-27 -18l-49 -56 l-13 -38v-105z" />
<glyph unicode=":" horiz-adv-x="337" d="M43 256v23l4 8l5 51l41 42l16 8l23 17l75 -7l30 -14l31 -31l15 -31l12 -47l-21 -64l-37 -37l-65 -21l-60 11l-57 57zM43 713v70l12 23l46 47l35 17l82 -6l64 -64l9 -36l-4 -12l-4 -59l-19 -19l-26 -32l-36 -18h-58l-41 14l-29 29z" />
<glyph unicode=";" horiz-adv-x="333" d="M37 413l7 46l14 29l35 35l39 20h50l47 -16l31 -31l23 -35v-31l5 -28l-15 -44l-52 -52l-27 -9l-30 6l-24 -10l-27 9l-34 25l-27 41zM66 -66l12 35l4 35l7 15v62l-3 20l-4 54l-12 39v46l11 11l24 5h136l15 -16l12 -23l4 -27l15 -78v-42l-4 -12v-79l-15 -52l-14 -14l-17 -6 h-47l-21 7l-26 -13l-38 6h-16l-19 9z" />
<glyph unicode="&#x3c;" horiz-adv-x="426" d="M32 557l7 21l4 44l15 10l27 11l71 33l22 6l23 23l40 5l17 17l50 16l14 -7l18 -17l6 -37l15 -35l4 -26l11 -28l5 -36l-36 -22l-52 -26l25 -13l36 -5l26 -26v-23l-6 -18l-6 -29l-11 -26l-5 -53l-22 -33h-20l-75 25l-41 25l-47 19l-50 28l-35 12l-22 22l-6 29l5 30v50z" />
<glyph unicode="=" horiz-adv-x="692" d="M71 316v163l22 26l105 1l20 6l76 -11l23 8l309 -2l11 -20v-47l-4 -70v-68l-27 -13h-89l-32 9l-27 -13l-27 4h-108l-30 8l-25 -12l-26 4h-109l-46 12zM71 602v85l4 15v43l14 14l36 5l118 -4l78 4l114 -4l76 4l103 -4l19 -18l6 -101l-11 -103l-221 -3l-116 5l-152 -8l-45 4 l-18 15z" />
<glyph unicode="&#x3e;" horiz-adv-x="426" d="M47 562v12l10 26l6 20l19 58l9 40l22 22h27l116 -58l21 -14l36 -6l25 -15l43 -22l7 -13v-27l4 -23v-146l-39 -32l-31 -12l-54 -27l-35 -12l-81 -40l-31 -8l-12 -6h-12l-11 12l-6 27l-14 46l-5 36l-12 51l12 35l42 7l29 15v11l-64 22z" />
<glyph unicode="?" horiz-adv-x="694" d="M45 1205l6 23v58l12 24l15 7h189l90 -17l70 -21l39 -11l76 -43l48 -47l45 -77l6 -37l10 -20l5 -33l7 -39v-89l-4 -19l-3 -31l-4 -16l-4 -31l-14 -27l-9 -39l-24 -31l-23 -38l-23 -24l-24 -19l-19 -19l-35 -24l-23 -11l-16 -11l-46 -20l-33 -5l-14 -7l-44 -18l7 -67 l-7 -116l-8 -16l-33 -4h-97l-26 7l-20 -7l-11 6l-9 21v55l-3 105l4 74l-5 122l13 38l16 8l32 -8l21 6l111 11l56 27l30 10l12 25l28 14l7 29l14 24l5 30v96l-39 52l-71 46l-29 4l-31 8l-87 10l-27 -7l-22 4h-50l-27 14l-4 68zM78 93v46l19 39l35 35l24 11l19 4l19 6l64 -7 l25 -26l12 -15l27 -33v-53l-4 -15l-4 -30l-31 -42l-39 -20l-59 -12l-40 17l-32 21l-21 31z" />
<glyph unicode="@" horiz-adv-x="1101" d="M39 534l4 13v178l8 16l5 70l14 58l8 38l4 16l4 27l15 19l4 31l15 31l31 67l59 88l69 70l79 54l57 24l23 7l29 12h33l16 8l44 8l104 -9l18 -9l47 -8l70 -34l54 -41l62 -62l19 -39l42 -62l9 -27v-17l25 -42l21 -77l4 -27l8 -39v-15l4 -20l10 -132l-6 -38l-9 -118l-11 -22 l-8 -38l-15 -31l-5 -22l-22 -33l-27 -44l-65 -59l-42 -25l-37 -7h-42l-32 6l-35 -9l-38 13l-15 48l-8 54l-17 67l-10 11h-24l-17 -9l-40 8l-5 -27l-11 -23l-6 -58l-14 -35l-6 -32l-13 -7l-74 -11l-51 10l-26 -6h-14l44 -58l64 -54l47 -15l83 -10l68 29l22 22l21 42l27 9 l84 -4h58l18 -9l8 -17l-7 -21l-4 -31l-21 -59l-37 -41l-28 -36l-22 -11l-20 -8l-37 -24l-40 -10l-20 -4l-29 -12h-99l-74 7l-42 14l-41 27l-39 16l-44 33l-79 83l-55 89l-13 41l-25 65l-10 40l-10 31l-5 46l-4 24l-4 31zM248 535l8 -35v-34l19 -90l12 -27l12 -31l4 8l3 43 l8 19l4 19l8 24l4 37l13 33l6 42l8 23l6 29l9 29l8 55l12 23l4 31l10 36l5 44l18 45l6 52l11 17l4 42l18 56l14 75l57 10l47 -5h67l20 -14l6 -43l11 -28l4 -31l8 -23v-30l19 -48l4 -39l12 -35l4 -23l23 -81v-37l35 -111v-27l4 -4l26 16l5 31l7 23l12 78v120l-6 72l-13 44 l-5 26l-26 52l-66 97l-39 23l-30 20l-28 7l-23 8h-90l-23 -12l-26 -5l-28 -14l-23 -8l-24 -23l-15 -11l-16 -20l-23 -16l-9 -28l-16 -21l-10 -24l-15 -20l-8 -39l-19 -47l-16 -104l-4 -19v-51l-4 -15v-136zM553 656l13 -4h33l-10 23l-3 31l-7 26l-5 5l-4 -23l-4 -12l-5 -29z " />
<glyph unicode="A" horiz-adv-x="860" d="M35 4v24l19 56l4 40l4 16l4 19l8 20l4 31l11 46l4 31l12 27l4 35l4 16l3 19l12 47l4 27l15 50l12 85l16 31v39l15 31v23l16 62l3 24l16 66l4 27l8 19l3 23l8 27l8 59l19 48v45l12 23l15 81l8 27l9 49l9 18l21 11h170l19 -19l9 -51v-15l14 -29l17 -99l15 -51l4 -31l8 -27 l9 -54l14 -43l4 -31l4 -19l4 -31l19 -74v-21l13 -33l22 -108l8 -31l15 -74l8 -27l4 -31l15 -36l7 -69l25 -77l-5 -20l16 -46l12 -51l7 -27l12 -73l5 -14l-7 -21l-25 -12h-113l-27 4h-31l-13 13l-14 61l-8 15v35l-19 56l-6 67l-17 51l-8 55l-12 34h-188l-9 -31l-10 -64 l-14 -43l-7 -55l-12 -24l-5 -55l-14 -41l-13 -65l-26 -13h-120l-54 8zM380 593h89v35l-18 56l-5 33l-4 16l-5 36l-11 27l-23 -110l-8 -23v-37l-15 -21v-12z" />
<glyph unicode="B" horiz-adv-x="709" d="M47 157l7 26v131l-7 37l7 21v136l-7 32l7 26v132l-7 32l7 26v136l-7 32l7 26v132l-7 36l7 22v166l41 16h52l62 -4h19l24 -4h62l42 -14l31 -5l61 -20l55 -42l40 -24l40 -62l6 -19l11 -31l4 -19l16 -58v-78l-4 -11l-8 -31l-8 -16l-10 -43l-40 -46l-23 -35l-37 -28l37 -26 l70 -70l34 -70l12 -35l8 -19l4 -31l11 -58v-66l-7 -50l-8 -24l-6 -31l-24 -43l-9 -23l-57 -66l-17 -11l-41 -36l-75 -38l-46 -15l-28 -14l-65 -9l-20 -8l-147 -8l-19 4l-28 4l-15 15v120zM256 853h39l38 27l19 12l16 23l17 23l14 27v47l-12 35l-12 18l-30 21l-51 17l-31 -6 v-19l-5 -26l7 -43l-6 -31l5 -88zM258 284l5 -32v-35l20 -5l24 17l38 4l23 23l19 16l20 23l22 16l5 42l8 21l-9 79l-36 72l-65 40l-26 5l-43 14v-80l-5 -26l7 -48l-6 -26l5 -92z" />
<glyph unicode="C" horiz-adv-x="725" d="M39 612v89l8 47l4 11v54l11 28l6 47l21 69l4 15l12 31l4 12l17 35l7 28l15 15l15 31l16 19l8 24l24 19l10 15l27 27l10 15l33 16l15 16l24 11l19 15l33 6l19 9l45 9h85l31 -8l31 -5l55 -18l27 -27v-23l-14 -18l-12 -48l-9 -20l-11 -16l-7 -35l-13 -26l-12 -12h-23l-16 11 l-31 9l-19 7h-43l-31 -15l-24 -17l-62 -66l-14 -37l-12 -24l-8 -23l-11 -23l-4 -27l-13 -40l-7 -49l-7 -39v-50l-11 -27l7 -39l-5 -79l14 -54l-7 -19l17 -50l10 -40l53 -100l48 -49l56 -12h27l54 27l23 15h20l23 -23l12 -23l9 -24l33 -50l20 -39v-19l-43 -43l-23 -15l-31 -8 l-20 -15l-38 -4l-28 -7l-71 -5l-22 4l-42 5l-68 37l-78 61l-25 36l-24 29l-14 30l-22 29l-9 25l-20 39l-19 69l-5 28l-18 42v35l-12 58v85z" />
<glyph unicode="D" horiz-adv-x="717" d="M48 1268l10 40l11 5l28 4l19 4h93l58 -11l62 -16l28 -5l42 -18l19 -7l31 -20l31 -16l81 -81l47 -89l8 -27l20 -51l7 -35v-15l12 -35l11 -116l4 -24l-6 -30l6 -36v-62l4 -72l-8 -17v-54l-11 -109l-12 -23v-39l-25 -50l-9 -35l-32 -50l-19 -23l-27 -40l-39 -26l-41 -37 l-60 -21l-37 -23l-48 -5l-20 -11h-38l-39 -8h-132l-23 23v78l-4 23v58l4 20v89l-4 23v62l4 19v89l-4 24v58l4 19v89l-4 24v58l4 23v89l-4 23v59l4 19v89l-4 23v59l4 23v89zM259 343l4 -18v-108h16l34 8l28 19l23 11l12 20l21 26l29 67l8 38l7 24l6 103l6 25v89l-5 30l5 81 l-4 17l-4 64l-14 42l-5 33l-16 47l-15 31l-4 15l-12 25l-58 43l-27 14h-30l-5 -168l5 -25l-5 -169l5 -20l-5 -170l5 -24z" />
<glyph unicode="E" horiz-adv-x="667" d="M49 1240l6 63l18 19h512l17 -17l10 -29v-148l-12 -11l-14 -20h-17l-19 4h-116l-52 -5l-26 5h-77v-97l8 -37l-8 -33v-124l8 -32l-4 -22v-46h81l24 -5l87 7l63 -6l16 -16v-46l4 -47v-77l-18 -35h-257l-5 -56l9 -35l-8 -41v-124l7 -15h8l31 -8h140l19 9l39 -9h70l19 -20v-15 l-6 -18l6 -36l-4 -131l-134 -5l-88 4l-145 -6l-43 6l-112 -4l-26 12l-6 19v39l-4 34l4 153l-4 37l4 152l-4 42l4 151l-4 42l4 149l-4 42l4 152l-4 37l4 153z" />
<glyph unicode="F" horiz-adv-x="647" d="M47 7l8 39l-5 36v132l6 23l-6 35v131l5 26l-5 36v128l5 28l-5 38v128l5 26l-5 36v132l6 22l-6 40v128l5 26l-6 43l5 63l19 19h512l15 -15l12 -29v-138l-21 -43h-14l-19 4h-117l-52 -5l-21 5h-91l6 -125l-4 -104l4 -89l-5 -69l39 -4h55l24 -5l91 7l52 -7l14 -14l5 -76 l-4 -100l-9 -26l-53 -4h-209v-97l-4 -91l4 -88l-4 -106l5 -94l-24 -23l-24 -5l-31 4l-114 -5l-25 9z" />
<glyph unicode="G" horiz-adv-x="771" d="M46 691l5 54l4 15v31l8 39v50l7 20l4 27l4 11l4 43l13 32l7 40l11 21l12 35l10 16l8 29l18 18l26 47l46 41l19 12l24 23l19 4l50 22l84 8l71 -11l50 -16l72 -56l48 -71l17 -51l19 -85l4 -42l5 -20l-12 -42l-25 -13l-73 5h-93l-19 19l-8 23v43l-16 39l-9 34l-33 16h-27 l-31 -15l-36 -36l-36 -80l-6 -32l-11 -23l-4 -39l-12 -85l-4 -39l-4 -19l5 -30l-5 -55v-78l-4 -24l8 -30v-58l8 -62l4 -16l4 -42l11 -28l25 -62l33 -34l31 -16h31l45 23l24 36l5 19l12 34l4 28l7 38v55h-104l-29 14l-10 20v117l-9 31l32 27h171l20 4l132 -5l10 -10l13 -46 l-9 -52v-108l6 -26l-9 -32l-16 -105l-4 -12l-8 -27l-7 -23l-10 -33l-16 -16l-9 -35l-35 -40l-16 -21l-23 -14l-23 -23l-54 -16l-20 -11l-42 -4l-20 -4h-85l-27 8l-39 6l-77 60l-39 38l-20 35l-10 16l-9 27l-19 38l-4 36l-20 48v25l-3 23l-4 43l-4 19v43l-8 43v124l5 27z" />
<glyph unicode="H" horiz-adv-x="814" d="M48 91l7 29l-6 59l8 70l-9 34l6 30l-6 59l9 66l-9 37l6 27l-5 62l8 69l-9 33l6 31l-6 59l9 66l-9 34l6 30l-5 61l8 70l-9 33l6 31l-6 59l9 66l-9 35l6 31v38l11 12l179 6l24 -12l7 -21v-66l4 -24l-4 -19v-147l4 -28l-4 -18v-148l4 -25l-8 -31l9 -33h254l5 141l-5 20 l5 170l-5 24l5 167l-6 27l9 9l12 4l25 10l155 -6l18 -12l7 -19v-1279l-9 -27h-41l-99 -4l-57 4l-15 15v132l-4 18l5 170l-5 24l5 179l-8 8h-256v-69l4 -24l-4 -19v-147l4 -28l-4 -19v-147l4 -26l-4 -17l-5 -45l-34 -9h-62l-27 4h-78l-15 15v66z" />
<glyph unicode="I" horiz-adv-x="671" d="M47 148l4 15l4 27l8 8l27 4l19 10l23 -6h86v97l3 15v58l-3 20v101l3 11v62l-3 20v96l3 16v58l-3 23v97l3 12v62l-3 19v97l6 25l-148 7l-21 10l-4 43v148l19 19h524l17 -17l8 -26l-8 -33l8 -44l-8 -31l7 -43l-21 -32l-146 6l-5 -5v-895h27l20 10l23 -6l82 -4l19 -19v-66 l-6 -22l8 -44l-6 -23v-31l-11 -11l-160 -7l-46 6l-107 -4l-89 4l-109 -4l-22 5l-18 18v117z" />
<glyph unicode="J" horiz-adv-x="694" d="M23 341v22l38 31l40 -7h108l30 -15l5 -35l4 -20l4 -47l28 -56l10 -5h16l33 -11l24 12l13 26l7 23l10 15l10 24l4 8l4 54l7 15l8 113v54l4 12v143l-5 28l5 25l-4 141l-6 31l6 21l-4 142l-6 27l7 29l-5 60v74l-6 31l37 21l164 -6l19 -19v-66l3 -27v-167l4 -35v-163l4 -34 v-264l-4 -66v-66l-4 -15l-7 -89l-8 -20l-4 -39l-12 -34l-7 -39l-12 -20l-31 -62l-15 -15l-14 -22l-28 -14l-16 -28l-32 -6l-23 -19l-43 -4l-15 -4h-85l-20 4l-36 5l-59 29l-73 62l-32 65l-5 29l-13 31l-10 54l-8 62z" />
<glyph unicode="K" horiz-adv-x="818" d="M47 197l6 31l-6 158l6 37l-6 158l6 30l-6 159l6 37l-6 157l6 31l-6 159l4 25v128l13 12l26 7h155l21 -11l6 -16v-58l6 -30l-6 -48v-112l4 -20v-50l23 23l8 24l22 22l13 32l22 13l7 28l29 29l7 22l24 28l73 110l27 14h187l27 -9l11 -22v-16l-27 -31l-23 -34l-16 -20 l-11 -23l-23 -23l-12 -24l-19 -23l-8 -15l-27 -35l-27 -43l-24 -27l-18 -31l-40 -54l-31 -47l-45 -59l-9 -22l-22 -22l14 -29l22 -32l32 -61l29 -41l24 -61l36 -64l8 -12l20 -39l19 -31l47 -89l40 -60l39 -93l17 -25l28 -54l23 -39v-16l-8 -7l-35 -12h-135l-28 4h-35l-19 19 l-15 31v18l-34 42l-28 57l-11 27l-17 27l-108 205l-10 25l-9 14l-8 -54v-113l6 -30l-6 -47v-116l6 -31l-7 -49l-12 -25l-49 -4l-27 4h-117l-15 15v90z" />
<glyph unicode="L" horiz-adv-x="643" d="M48 101l6 19v139l-6 36l6 18v140l-6 31l6 19v140l-6 36l6 18v140l-6 33l6 17v144l-6 31l6 19v139l-6 32l6 19l4 37l27 13h159l29 -9l10 -30v-1077h27l18 9l36 -9h136l19 10l35 -10h35l19 -9l7 -89l-7 -42v-67l-21 -14h-510l-17 9l-6 18v58z" />
<glyph unicode="M" horiz-adv-x="926" d="M47 105l7 19v124l-6 51l6 19v62l-4 27v90l4 11v66l-4 23v93l4 12v62l-4 25l4 37l-7 46l7 20v66l-4 23v93l6 19l-7 168l5 15v27l15 15l20 10l178 -6l8 -8l35 -58l4 -8l33 -42l7 -28l22 -26l53 -99l35 -41l20 39l16 21l34 60l19 25l9 22l19 24l10 28l29 33l13 40l36 24 l187 -6l9 -9l7 -26v-1275l-8 -15l-12 -12h-54l-107 -5l-25 13l-11 23v132l4 19v132l-5 40l5 23l-4 169l4 22l-4 171l4 22l-4 149l-26 -50l-17 -23l-19 -35l-49 -77l-123 -9l-49 16l-22 43l-29 39l-27 54l-27 43v-151l-4 -14l4 -174l-4 -19l5 -175l-5 -15l4 -175l-4 -18v-165 l-23 -5h-19l-97 -4l-55 4l-14 14l-5 22l4 38z" />
<glyph unicode="N" horiz-adv-x="922" d="M50 43v147l5 19l-5 24v151l5 19l-5 24v147l5 19l-5 24v151l5 15l-5 24v151l5 19l-5 23v152l5 16l-5 22v119l25 17h177l23 -12l15 -31l15 -24l9 -26l42 -89l10 -28l24 -42l22 -55l27 -43l10 -30l35 -77l8 -20l42 -85l12 -31l16 -31l10 -31l28 -43l16 -46l15 -27l20 -39v66 l6 51l-6 22v121l5 48l-5 21v120l6 52l-6 22v120l5 48l-6 32l5 71l15 16h178l16 -15l4 -78l4 -23l-10 -31l6 -31v-109l4 -26l-11 -22l7 -33v-109l4 -23l-11 -31l7 -27v-113l4 -26l-11 -22l7 -33v-109l4 -25l-11 -28l7 -32v-108l5 -25l-12 -23l7 -34v-108l4 -26l-8 -21v-40 l-21 -14h-68l-27 4h-82l-15 15l-20 39l-3 16l-20 38l-8 24l-23 46l-4 12l-23 46l-8 27l-54 109l-10 24l-22 34l-11 31l-42 89l-10 32l-33 56l-19 52l-40 80l-29 79l-15 -59l6 -65v-55l5 -23l-10 -51l5 -65v-54l5 -21l-10 -54l5 -61v-54l5 -24l-10 -51l5 -61v-58l6 -21 l-6 -22l-4 -29l-11 -21l-47 -4l-31 4h-97l-15 8l-4 31z" />
<glyph unicode="O" d="M43 527v124l4 19v78l12 58l6 76l13 24l4 31l21 86l25 50l9 27l26 47l23 23l5 26l27 16l16 23l18 13l38 32l20 10l35 12l49 19h87l31 -8l35 -5l43 -22l73 -54l39 -70l20 -30l19 -43l15 -47l10 -24l10 -53v-24l21 -64l-6 -25l11 -41l5 -98l5 -34l-5 -28v-78l-4 -31v-50 l-12 -24v-46l-8 -31l-7 -16l-9 -57l-11 -28l-8 -27l-7 -15l-12 -35l-12 -20l-17 -39l-33 -42l-15 -23l-35 -35l-33 -17l-15 -22l-39 -5l-18 -18l-47 -4l-15 -4h-81l-20 4l-39 6l-54 29l-35 27l-23 15l-31 31l-15 24l-27 35l-4 23l-35 68l-16 87l-6 27l-9 70l-4 23v31z M268 511l11 -58l4 -47l10 -29l7 -33l10 -27l8 -27l16 -31l29 -29l17 -6l31 -15h20l31 15l42 43l29 58l14 54l12 24v31l3 19l4 31l4 23l4 39l7 35l-9 35l6 23v140l-8 23l-4 46l-4 16l-7 56l-12 37l-8 31l-14 35l-28 47l-23 17l-25 8l-45 -18l-47 -46l-15 -39l-15 -20l-9 -35 l-7 -19l-4 -19l-12 -27l-4 -55l-8 -31v-19l-7 -31v-93l-4 -23v-109z" />
<glyph unicode="P" horiz-adv-x="698" d="M48 262l6 30l-6 159l6 35l-6 159l6 31l-6 159l6 35l-6 159l6 31l-6 159l6 33v51l15 14l55 5l15 4h66l85 -8l20 -4l31 -4l19 -3l27 -4l33 -14l25 -6l31 -23l28 -9l66 -46l56 -84l21 -62l4 -31l11 -47v-54l8 -37l-19 -56l-6 -43l-14 -35l-19 -39l-10 -31l-27 -20l-6 -25 l-23 -15l-17 -24l-22 -12l-31 -31l-93 -47l-35 -12l-31 -3l-23 -12l-35 -4v-116l5 -32l-7 -27l7 -169l-5 -16v-117l-7 -11l-24 -12h-58l-102 5l-13 13l-5 21v62l4 20zM259 729l8 -8h12l19 12l26 5l48 26l19 19l8 16l21 21l10 29l11 29v72l-15 62l-12 23l-42 43l-47 23h-58 l-8 -15v-144l5 -35l-5 -15v-163z" />
<glyph unicode="Q" horiz-adv-x="860" d="M43 585v93l8 23v78l11 42v39l16 46l19 97l16 24l4 27l43 87l50 68l46 46l39 24l35 23l60 15l48 4l20 5l58 -9l23 -7l42 -12l63 -47l27 -34l13 -28l34 -45l11 -32l17 -44l10 -34l8 -23l4 -27l8 -23l3 -24l8 -34v-28l11 -33l5 -60l7 -38v-47l-6 -19l8 -45l-5 -29v-46 l-4 -20v-19l-8 -23l-4 -62l-8 -28l-4 -23l-7 -27l-4 -23l-4 -12l-5 -29l-13 -26l-6 -32l-18 -26l-5 -19l-6 -18l26 -51l39 -68l11 -29v-25l-21 -14h-176l-18 9l-15 23l-26 -16l-77 -16h-78l-38 7l-51 16l-19 12l-54 27l-38 38l-66 102l-32 96l-4 28l-8 31l-4 27l-7 27v46 l-10 36l6 33l-4 17v35zM268 531l8 -55l3 -46l7 -21l7 -54l30 -70l22 -30l16 -23l14 -14l21 -5h50v21l-31 45l-50 100l-19 31l-5 24l-14 28l8 22h80l19 4h97l17 -6l14 -28l4 26v23l8 28v27l4 27v196l-12 63v16l-7 31l-6 43l-22 66l-31 62l-27 27h-35l-49 -14l-13 -21l-19 -20 l-11 -31l-20 -14l-5 -37l-11 -22l-19 -57l-8 -83l-7 -19v-23l-4 -31v-62l-4 -24v-100z" />
<glyph unicode="R" horiz-adv-x="736" d="M48 151l6 16v147l-5 26l5 21v147l-6 27l6 16v147l-6 29l6 18v143l-5 31l5 15v148l-6 29l6 17v174l31 20h50l101 -4h81l20 -4l58 -6l50 -17l20 -8l51 -17l34 -28l19 -13l31 -31l16 -27l29 -38l20 -45l9 -37l8 -23l4 -78l6 -46l-6 -39v-27l-16 -47l-8 -39l-15 -31l-8 -23 l-15 -19l-21 -36l-65 -65l-74 -48l-30 -6l30 -55l16 -40l25 -38l14 -34l39 -77l15 -24l24 -46l11 -18l13 -33l22 -34l12 -31l13 -21l14 -34l11 -21l-15 -29l-47 -4l-34 4l-112 -5l-21 11l-15 29l-40 72l-18 48l-31 46l-50 101l-22 58l-25 37v-17l-4 -86l7 -58l-7 -136l6 -47 l-11 -47l-6 -6h-43l-102 -4l-32 6l-17 17v120zM259 853l4 -35v-104h58l57 19l25 19l19 12l12 12l31 77v85l-13 58l-18 35l-48 48l-88 22h-34l-5 -53l7 -60z" />
<glyph unicode="S" horiz-adv-x="783" d="M40 1001l11 22v47l36 110l45 57l35 34l43 24l33 22l113 19l82 -6l12 -4l54 -16l55 -27l81 -82l53 -109l16 -134l-8 -47l-42 -8h-93l-23 4h-39l-15 15l-6 60l-10 40l-27 44l-31 31l-23 12h-51l-19 -20l-25 -12l-6 -19l-19 -45v-64l43 -76l78 -67l22 -11l35 -20l39 -19 l77 -58l55 -54l50 -66l23 -39l12 -18l15 -56l17 -93l-5 -29l6 -30l-15 -112l-18 -38l-5 -27l-18 -23l-18 -30l-48 -48l-24 -15l-25 -7l-25 -20l-35 -4l-62 -16h-35l-23 4l-41 5l-33 10l-45 13l-59 30l-81 81l-45 102l-6 34l-14 42l-5 90l-11 36l14 18l12 18l105 6l85 -5 l23 -23v-112l8 -23l11 -38l24 -36l25 -17l33 -14h23l16 8h31l42 42l12 24v65l-4 20v27l-27 54l-43 68l-35 25l-41 42l-36 20l-31 20l-37 18l-90 75l-69 89l-34 73l-10 51l-4 46z" />
<glyph unicode="T" horiz-adv-x="771" d="M35 1163v101l4 12v27l19 19h655l20 -19v-186l-16 -16h-66l-38 -4h-117v-46l6 -29l-6 -53v-112l6 -30l-6 -48v-112l6 -30l-6 -47v-117l6 -30l-6 -47v-113l7 -32l-7 -45v-116l6 -31l-7 -49l-12 -25h-88l-96 -4l-22 11l-6 16v1089h-73l-97 4h-47l-15 16v27z" />
<glyph unicode="U" horiz-adv-x="779" d="M47 845l4 16v178l6 23l-6 40l4 88v43l5 20l-6 38l7 23l25 12h151l29 -10l6 -17v-78l-4 -38v-140l2 -56l-6 -223l4 -81v-152l8 -46l4 -82l3 -19l4 -35l8 -31l5 -27l60 -89h24l16 8h23l23 23l30 71l9 14l4 47l4 11l16 129l-7 37l10 32v124l-6 32l7 27l-5 175l4 22l-4 132 l-6 31l6 31l-4 163l41 17l153 -6l18 -18l5 -21v-54l5 -39l-5 -22l4 -82v-237l5 -40l-5 -26v-267l-7 -39v-50l-4 -16l-8 -97l-12 -23l-4 -45l-14 -35l-5 -21l-12 -23l-22 -50l-18 -18l-18 -29l-25 -15l-11 -23l-26 -5l-27 -23l-112 -25l-70 6l-105 35l-31 31l-7 11l-31 39 l-12 20l-30 39l-5 26l-27 82l-4 27l-4 15l-11 124l-4 28v35l-8 38v237z" />
<glyph unicode="V" horiz-adv-x="860" d="M33 1292l15 29l41 5h148l18 -18l13 -71l11 -27l4 -39l4 -23v-19l19 -51l4 -43l8 -23l8 -39l15 -62l4 -31l4 -15l5 -34l17 -52l5 -49l12 -28l15 -85l16 -55l5 -43l6 -7l12 54l12 24v38l7 24l4 19l23 93v39l16 15v35l10 30l21 110l16 41v40l10 21l5 29l8 20l4 35l7 27l4 39 l12 31l5 27l18 19l45 4l137 -4l16 -15v-20l-4 -19l-5 -34l-16 -50l-6 -52l-12 -19l-4 -43l-19 -77l-8 -39l-4 -16l-4 -35l-10 -21l-13 -75l-4 -12l-19 -85v-26l-16 -23v-42l-18 -47l-9 -64l-19 -74l-4 -23l-4 -15l-4 -27l-7 -24l-6 -31l-10 -31l-4 -38l-11 -31l-4 -39 l-8 -23l-4 -20l-8 -19l-4 -56l-14 -27l-6 -30l-14 -15l-93 -7l-55 7h-35l-14 15l-10 47l-11 27v35l-22 68l-10 82l-9 19l-5 29l-8 34l-4 24l-6 17l-9 49l-12 38l-4 39l-11 35l-4 27l-8 23l-8 47l-15 50l-4 24l-8 31l-4 27l-6 19l-5 31l-8 23l-12 82l-11 35l-16 36l6 30 l-11 22l-18 90l-5 36l-7 14l-11 60z" />
<glyph unicode="W" horiz-adv-x="1233" d="M43 1266v39l10 15l102 4l17 4l22 -4l47 -4l13 -13l14 -61l4 -23l23 -81v-31l15 -29l16 -99l15 -49l4 -29l14 -46l7 -49l10 -33l7 -50l17 -74l7 -23v-29l14 -34l10 -53h3l8 19l11 85l16 32l4 46l4 12l27 116l5 26l30 9h105l30 10l50 -25l13 -67v-7l8 -31l3 -27l17 -52 l7 -52l11 -28l10 -51l8 -25l17 95l4 16l4 31l12 23l3 31l4 15l4 28l8 27l6 29l9 29v46l16 15l4 40l19 85l7 48l16 49l12 77l12 27v18l11 41l5 35l11 11h116l31 8l44 -9l14 -14v-16l-15 -81l-12 -24v-46l-19 -47l-8 -58l-8 -31l-4 -19l-7 -20l-4 -34l-8 -28l-9 -54l-14 -42 l-5 -44l-11 -22l-4 -47l-15 -42l-7 -59l-18 -55l-6 -49l-12 -35l-12 -70l-11 -27l-4 -39l-12 -46v-16l-10 -21l-5 -29l-4 -12l-4 -39l-15 -46l-13 -78l-12 -37l-37 -9h-70l-21 -4l-61 4l-25 26l-13 51l-8 66l-12 35l-3 27l-8 31l-4 20l-4 15l-10 49l-9 29l-4 -20l-12 -27 l-4 -42l-7 -20l-4 -27l-12 -23v-43l-15 -39l-4 -27l-16 -69l-12 -12h-120l-12 -4l-57 4l-17 26l-15 99l-15 45l-8 47l-31 116l-7 54l-12 43l-4 27l-12 29v29l-19 59l-4 34l-4 16l-4 31l-11 35l-9 65l-7 20l-16 71l-11 26v39l-23 69l-8 70l-15 36l-4 34l-13 43l-7 42z" />
<glyph unicode="X" horiz-adv-x="760" d="M47 1299l8 17l11 5h89l31 8l23 -4l54 -4l16 -15l9 -39l20 -39l21 -85l38 -101l9 -35h7l16 47l12 31l7 35l16 34l4 16l27 77l4 20l11 23l6 24l14 7l54 4l17 4l18 -4l108 -4l10 -10l8 -23l-6 -17l-16 -16l-3 -39l-17 -33l-21 -71l-23 -53l-7 -46l-18 -17v-35l-30 -60 l-7 -43l-29 -72l-5 -35l-18 -23l-4 -38l-17 -39l13 -39l22 -49l7 -30l14 -34l23 -73l16 -35l18 -73l31 -77l5 -21l27 -81l6 -23l22 -46l14 -64l-22 -22h-78l-16 -4l-65 4l-38 8l-13 27l-8 27l-13 32l-9 35l-23 53l-5 31l-10 21l-7 32l-14 28l-11 33l-12 -25l-16 -58l-25 -71 l-6 -30l-19 -19v-39l-16 -31l-14 -44l-13 -6l-27 -4l-20 -4l-69 4h-70l-23 23v12l27 81l5 21l11 26l7 23l8 19l14 56l13 22l16 58l15 34l4 28l18 36l21 76l24 57l7 40l19 39v31l-11 31l-8 27l-4 12l-10 36l-17 34l-6 30l-27 73l-10 32l-26 66l-14 69l-22 44l-4 19l-11 35 l-6 22l-14 32l-9 36z" />
<glyph unicode="Y" horiz-adv-x="740" d="M34 1297l5 12l49 19l25 -5l136 -4l22 -23l16 -54l15 -35l4 -20l16 -35l4 -31l19 -42l25 -76l6 6l5 25l22 49l5 35l15 23l6 31l28 72l14 62l14 13h151l29 9l13 -5l24 -23v-17l-19 -49l-5 -20l-16 -38l-11 -43l-11 -23l-8 -35l-16 -23l-3 -35l-35 -89l-4 -16l-12 -39 l-4 -15l-11 -23l-5 -26l-15 -29l-10 -42l-26 -68l-6 -33v-70l-5 -49l8 -105l-8 -89l8 -103l-8 -87l5 -63v-71l-28 -18h-131l-17 -4l-46 9l-11 34v135l4 151l-4 28v317l-4 12l-4 31l-15 35l-8 23l-22 59l-6 35l-21 47l-8 33l-24 55l-7 31l-29 68l-7 37l-11 27l-8 42z" />
<glyph unicode="Z" horiz-adv-x="806" d="M48 1183l6 24v85l9 18l18 9h105l17 4l176 -4l14 5l173 -5l28 8l22 -4l116 -4l10 -10l6 -87v-101l-11 -10l-11 -45l-26 -40l-7 -28l-13 -19l-11 -28l-14 -23l-12 -31l-23 -47l-8 -23l-15 -23l-22 -56l-15 -20l-7 -30l-22 -22l-4 -35l-31 -51l-20 -50l-23 -46l-19 -43 l-16 -31l-8 -23l-13 -19l-6 -16l-31 -66l-9 -28l-16 -21l-14 -36l12 -4h62l26 -5l51 5h117l21 -6l86 9l41 -8l13 -13l7 -21l-5 -19v-152l-8 -7l-35 -8h-70l-16 -4l-73 4h-105l-12 -4l-73 4h-105l-16 -4l-73 4h-69l-29 14l-14 27l8 36v121l7 34l18 23l6 28l19 19l6 23l68 144 l12 31l26 43l6 32l20 21l5 20l16 31l5 22l16 24l10 24l12 19l7 20l16 31l10 31l13 19l31 62l14 42l29 38v29l22 22l8 32l16 27l12 27h-372l-43 4h-8l-11 12l-4 46z" />
<glyph unicode="[" horiz-adv-x="469" d="M47 76l4 19v155l-4 17l4 22v151l-4 23l4 16v155l-4 19l4 16v155l-4 19l4 20v155l-4 19l4 19v152l-4 19l4 19v155l-4 20l4 19v62l19 20h330l19 -19l4 -50l-4 -28l4 -20v-66l-10 -31l-21 -7h-58l-20 -4h-34v-1252h89l17 4l29 -7l8 -24v-105l-4 -23l4 -20v-38l-38 -13l-38 5 l-21 -4h-143l-26 4l-35 -7l-52 9l-11 6l-12 54l4 15v155z" />
<glyph unicode="\" horiz-adv-x="702" d="M27 1281v29l12 12h190l21 -21l13 -41l8 -19l8 -31l8 -24l10 -36l24 -47l4 -33l18 -40l7 -27l10 -26l8 -27l19 -39l4 -27l8 -23l7 -32l25 -52l7 -33l21 -48l14 -56l15 -31l8 -31l62 -190l12 -31l7 -31l22 -43l13 -54l12 -39l4 -15l15 -39l8 -23l11 -27l5 -24l11 -31v-40 l-19 -10h-54l-75 -4l-46 4l-18 9l-17 34l-38 124l-16 31l-7 44l-30 70l-9 34l-19 45l-5 31l-11 27l-10 35l-13 31l-18 66l-17 39l-22 64l-21 36v32l-12 27l-11 35l-14 34l-13 47l-14 37l-17 60l-22 45l-6 31l-27 71l-9 35l-13 32z" />
<glyph unicode="]" horiz-adv-x="473" d="M46 -169l5 119v70l12 12h127l5 71l-11 33l10 31v128l-10 36l10 30v128l-10 31l10 31v128l-10 36l10 30v128l-10 31l10 31v128l-10 35l10 31v131l-11 24h-31l-20 4h-62l-19 19l-4 70l4 109l9 18l10 5h322l18 -9l9 -19v-1660l-27 -14h-159l-27 4l-19 -4h-101l-21 5z" />
<glyph unicode="^" horiz-adv-x="543" d="M37 415l25 58l9 27l26 39l9 35l18 30l8 20l8 15l12 32l23 7l24 12l34 -8h108l44 -8l65 -161l27 -44l8 -23l15 -31v-16l-15 -15l-31 -16l-24 -4l-88 -23h-20l-17 9l-22 53l-6 19h-14l-7 -19l-5 -23l-18 -24l-16 -23l-23 12l-58 11l-54 28h-27l-10 9z" />
<glyph unicode="_" horiz-adv-x="674" d="M66 -2v19l4 19v120l15 16l47 5l88 -5l30 8l21 -4h66l74 -4l29 8l25 -4h113l43 -9l10 -20l6 -39l-6 -26l6 -97l-17 -25l-15 -5h-20l-27 -4l-162 4l-28 -4l-159 4h-112l-20 10z" />
<glyph unicode="`" horiz-adv-x="452" d="M54 1544v20l23 46l32 32l29 51l33 16l42 -37l77 -50l70 -54l39 -24l14 -13l7 -23l-25 -45l-23 -27l-41 -61l-22 -11l-24 8l-37 37l-70 42l-23 16l-35 30l-44 25z" />
<glyph unicode="a" horiz-adv-x="857" d="M35 12v27l11 28l12 65l4 16l4 27l16 41v40l11 23l5 33l7 14l4 42l11 29l4 41l14 41l13 68l4 31l8 23l4 19l13 55l6 46l14 28l6 64l11 17l4 42l4 12l19 77l4 35l4 16l4 19l12 24v27l7 27l27 124l4 27l12 27v12l8 15l19 4l25 12l29 -8h113l21 -21l10 -29l4 -24l4 -15l4 -36 l14 -29l9 -79l19 -58v-31l10 -29l6 -29l19 -77v-16l8 -31l4 -27l19 -70l4 -35l11 -27l11 -69l20 -70l4 -35l20 -70l4 -30l11 -28l5 -46l11 -43l4 -20l14 -42l-9 -17l18 -43l19 -91l4 -24l5 -20l-9 -18l-31 -16h-39l-19 4h-81l-31 10l-20 45v38l-23 70v27l-4 19l-4 27l-7 20 l-19 99l-13 36h-112l-35 -4h-40l-6 -11l-4 -39l-12 -23v-23l-31 -136l-4 -8l-4 -46l-13 -27l-9 -61l-42 -17h-44l-35 8l-15 -4h-51l-22 11zM380 589h19l12 4l62 5l-16 46l-3 23l-8 31l-4 27l-8 27l-7 42l-8 -26l-8 -20l-4 -35l-17 -69l-6 -47z" />
<glyph unicode="b" horiz-adv-x="705" d="M50 12v1275l13 27l53 5l34 -5l26 13l37 -13h54l50 -7l35 -12h26l87 -35l42 -28l61 -68l6 -23l28 -41l14 -72v-90l-16 -62l-38 -69l-20 -24l-11 -19l-29 -14l-12 -24l31 -18l58 -58l18 -29l20 -31l11 -31l14 -30l5 -29l8 -23v-31l7 -31v-89l-3 -12l-6 -26l-10 -20l-7 -33 l-28 -49l-19 -23l-8 -11l-58 -59l-23 -11l-29 -25l-26 -10l-31 -16l-23 -7l-19 -8l-16 -4l-23 -12h-16l-46 -11h-43l-35 -8h-46l-28 5l-27 -6l-31 10zM259 217h27l28 6l62 37l34 35l23 44l7 36l-6 36l-4 31l-25 55l-28 42l-29 9l-31 21l-27 9h-31v-361zM259 849h16l23 12 l23 8l20 13l38 52l4 4l12 18v48l4 16v9l-20 30l-45 30l-36 4l-19 4h-20v-248z" />
<glyph unicode="c" horiz-adv-x="725" d="M39 554v151l23 170l12 24l6 44l21 49l8 31l19 39l16 27l23 46l43 51l11 15l39 39l23 15l47 37l35 10l58 19h54l33 11l37 -15l54 -7l39 -16l17 -6l14 -13v-35l-22 -44l-7 -33l-18 -36l-4 -26l-15 -20l-11 -16h-12l-52 26l-48 6l-36 -12l-22 -6l-15 -24l-28 -10l-12 -31 l-23 -15l-6 -36l-23 -23l-22 -88l-16 -46l-4 -51l-3 -11l-8 -101v-136l11 -46l4 -35l4 -12l16 -54l24 -49l62 -78l32 -15l54 -6l95 47h21l30 -50l15 -41l26 -36l5 -16l13 -32l-7 -15l-18 -11l-36 -32l-35 -18l-51 -10l-33 -16l-35 7l-30 -8l-59 10l-78 31l-65 41l-27 37 l-68 89l-10 28l-19 42l-37 116l-13 66l-4 27l-8 24v35z" />
<glyph unicode="d" horiz-adv-x="721" d="M47 380l11 31v128l-10 36l10 30v124l-10 38l10 28v128l-10 36l10 30v128l-11 31l7 19l5 140l10 11h117l26 -6l31 10l32 -13l89 -18l85 -43l23 -18l39 -23l72 -82l36 -85l5 -27l24 -63l11 -85l7 -31v-43l4 -74v-54l7 -39l-7 -116l-4 -23v-47l-7 -19l-8 -74l-12 -31 l-11 -46l-16 -31l-5 -16l-10 -15l-16 -27l-19 -24l-14 -22l-45 -40l-19 -19l-31 -15l-27 -20l-50 -19l-40 -17l-57 -6l-35 -12h-70l-19 -5l-93 9l-9 8l5 157l-10 37l10 30v128zM257 427l6 -31v-144l-4 -11v-20l5 -4l39 5l14 7l26 10l36 32l12 24l16 23l3 8l16 23l4 43l11 21 l8 87l4 28l-7 41l11 17v131l-14 42l12 24l-6 24l-20 126l-22 44l-4 12l-12 23l-43 43l-47 33l-38 6v-74l-6 -20l6 -27v-143l-6 -19l6 -32v-143l-6 -20l6 -26v-144z" />
<glyph unicode="e" horiz-adv-x="663" d="M48 163l6 79l-6 115l6 79l-6 110l6 81l-6 114l6 76l-6 113l6 81l-6 113l6 79l-4 79l4 21l15 15h86l21 11l33 -11h139l20 10l39 -10h131l16 8h15l33 -16l6 -19v-167l-11 -23l-108 -5l-33 5l-142 -4h-35v-35l4 -20l-4 -65v-105l4 -21l-6 -94l6 -51h81l100 4l71 -5l19 -19 v-66l6 -25l-6 -25l-4 -74l-16 -15h-23l-23 4h-54l-24 -4h-93l-34 7v-27l-4 -58v-108l4 -21l-5 -68h28l89 -5l19 5h144l15 -4l29 -6l6 -25v-166l-18 -23l-43 -6l-40 9l-19 -4h-78l-54 -5l-23 5h-116l-55 -5l-38 9l-16 -4h-39l-15 15v59z" />
<glyph unicode="f" horiz-adv-x="643" d="M50 0v1295l8 15l11 8h93l22 11l33 -11h139l20 10l34 -10h136l16 8h17l25 -17l5 -99l-5 -20v-77l-11 -12l-96 -5l-30 5l-146 -4h-42v-93l-4 -24l4 -57v-109l-4 -28l4 -57v-19l86 -5l110 5l56 -4l17 -9l9 -29l-7 -172l-18 -17l-36 6h-55l-23 -4h-93l-35 7l-7 -7l-4 -51 l-5 -25l5 -60v-108l-5 -26l5 -56v-108l-4 -23v-28l-11 -11l-94 -9l-23 5h-78z" />
<glyph unicode="g" horiz-adv-x="775" d="M41 567l10 15v170l8 20v42l3 20l20 132l15 38l4 35l8 16l9 30l13 21l7 28l19 28l13 31l44 44l26 32l78 39l39 10h19l24 12h19l23 -8h43l74 -25l61 -45l33 -45l10 -25l16 -31l15 -46l4 -31l12 -35v-89l-8 -16l-16 -7h-58l-20 5l-26 -11l-75 6l-14 15l-5 72l-21 62l-21 21 h-39l-29 -8l-33 -26l-12 -36l-31 -45l-11 -55l-8 -28l-4 -19l-7 -27v-31l-4 -23l-8 -105v-66l-4 -17l4 -107v-31l8 -31v-27l8 -35l10 -64l9 -17l23 -55l27 -36l20 -10h68l43 50l5 20l11 27l4 23l4 16l4 34l6 35l-7 27h-119l-18 18l-9 53l8 108l8 25l19 6h70l19 6l31 -6h143 l20 6l42 -14l12 -35v-85l-4 -12v-73l-8 -97l-7 -16v-50l-24 -54l-9 -45l-49 -83l-42 -43l-16 -8l-39 -26l-36 -12l-37 -4l-35 -12h-43l-15 4h-47l-72 29l-60 39l-46 64l-19 38l-14 23l-6 24l-11 35l-4 19l-27 95v25l4 19l-8 39l-4 101z" />
<glyph unicode="h" horiz-adv-x="814" d="M50 20v1283l10 9l17 6l23 12l31 -8h116l24 -18l4 -114v-42l4 -22l-4 -17v-151l4 -24l-4 -19v-165l54 6h112l26 -7l67 9l4 67l-4 31l4 163l-4 31l4 159l-5 35l6 59l19 19h101l17 8l29 -8l31 -4l19 -10l4 -102v-1202l-20 -20l-73 -8l-23 5h-81l-24 23v54l-4 31l4 162l-4 31 l4 160l-4 27v62h-42l-22 -5l-32 5h-136l-27 -7v-144l5 -19l-5 -20v-151l4 -23l-4 -19v-155l-8 -8h-27l-16 -4h-81l-57 -5l-26 13z" />
<glyph unicode="i" horiz-adv-x="674" d="M49 24l5 65v90l9 19l18 4h85l22 -6l33 10v891h-144l-22 23l-6 62l5 59v54l9 18l10 5h74l19 10l39 -10h132l22 11l32 -11h140l19 10l58 -17l12 -24v-108l-8 -67l-15 -15h-148v-66l-4 -45l5 -135l-5 -59l5 -136l-6 -57l8 -106l-7 -88l8 -107l-10 -92l68 -4h39l16 -4h41 l13 -50v-132l-12 -24l-37 -15h-40l-31 8l-20 -4h-81l-55 -5l-23 5h-116l-54 -5l-37 9l-30 -7l-27 13z" />
<glyph unicode="j" horiz-adv-x="690" d="M23 297v75l12 12h128l15 4h43l12 -13l7 -26l7 -58l9 -27l19 -39l23 -23h51l19 19l5 19l18 28l8 39l7 21l12 95l4 19v47l4 73v217l-4 70v171l-4 27v50l-4 88l4 25l-4 23v62l11 21l24 6h93l17 9l62 -18l7 -14l4 -74l4 -22l-5 -66l4 -109l4 -31l-6 -64l6 -107v-178l5 -34 l-5 -44v-155l-11 -46v-29l-16 -88l-8 -19l-4 -38l-15 -20l-6 -29l-32 -54l-28 -33l-15 -12l-24 -23l-23 -12l-15 -10l-34 -7l-17 -8l-35 -9l-41 8l-26 -7l-42 11l-26 10l-39 10l-57 42l-24 34l-29 33l-33 106l-4 31z" />
<glyph unicode="k" horiz-adv-x="818" d="M45 15l6 55l4 21l-4 22v50l-6 65l10 55l-4 23v47l-6 71l10 51l-4 21v51l-6 68l10 50l-4 25v47l-6 64l10 58l-4 21v50l-6 69l10 50l-4 25v46l-6 73l10 48l-6 37l7 30l14 14h66l17 8l30 -8h69l24 -23v-70l-4 -12v-97l4 -23v-58l-7 -26l7 -35l7 7l17 27l22 27l4 8l16 23 l15 27l19 20l12 23l19 23l16 31l29 29l10 29l23 23l14 28l17 11l21 16l29 -8h113l23 -4l28 11l20 -10l9 -17l-7 -19l-7 -11l-28 -52l-27 -26l-19 -35l-19 -23l-16 -27l-11 -12l-51 -73l-11 -16l-16 -27l-19 -14l-10 -31l-21 -21l-12 -19l-23 -24l-10 -28l-33 -38l-15 -27 l-18 -17l-7 -22l114 -209l42 -85l38 -50l7 -29l14 -22l48 -97l34 -45l16 -40l26 -43l7 -15l23 -36l7 -28l19 -29l-15 -30l-40 -6l-25 5h-159l-20 20l-23 57l-43 62l-7 20l-31 62l-19 31l-11 28l-43 69l-58 116h-8v-93l4 -23v-58l-4 -16v-97l4 -19v-62l-4 -12v-62l-9 -19 l-123 -9l-35 9l-30 -6l-15 7z" />
<glyph unicode="l" horiz-adv-x="636" d="M49 1191l5 112l15 15h113l21 11l29 -10l36 -5l11 -11v-24l5 -30l-5 -20v-139l4 -33l-7 -28l7 -167l-7 -26l7 -164l-7 -25l7 -165l-6 -31l6 -163l-4 -16v-66h112l24 -5l19 5h155l19 -20v-85l5 -28l-10 -29l7 -35l-8 -18l-26 -13l-42 8l-31 -6l-57 6l-28 -5h-50l-25 6 l-29 -7l-59 6l-31 -5h-46l-24 6l-35 -7l-47 6l-14 14l-8 35v148l4 21l-4 25v147l5 19l-5 24v147l5 21l-5 26v147l5 19l-5 24v147l5 19l-5 28v147l5 19z" />
<glyph unicode="m" horiz-adv-x="926" d="M49 176l5 14v147l-5 28l5 19v143l-5 31l5 16v147l-5 28l5 19v147l-5 28l5 15v147l-5 28l5 18v144l10 20l21 7h101l21 7l29 -7l35 -4l15 -15l20 -39l22 -27l32 -55l11 -27l32 -42l27 -55l32 -48l7 6l7 23l16 16l11 23l18 22l10 28l15 16l16 31l11 15l16 27l8 12l17 35 l17 23l19 28l20 7h93l17 8l30 -8l47 -4l15 -16l-5 -79l5 -25v-101l-5 -68l5 -25v-97l-5 -68l5 -25v-101l-5 -66l5 -23v-100l-5 -68l5 -26v-100l-4 -65l4 -28v-97l-5 -68l5 -25v-47l-13 -12l-65 -11h-27l-35 8l-36 -8l-27 9l-10 22v876l-4 8l-17 -22l-9 -27l-23 -23l-9 -33 l-16 -19l-12 -20l-7 -11l-19 -31h-51l-96 -5l-19 10l-25 45l-23 35l-43 85l-19 20v-900l-39 -19h-38l-35 8l-16 -4h-46l-30 10l-9 40v117z" />
<glyph unicode="n" horiz-adv-x="922" d="M48 7l7 79l-5 23v108l5 63l-5 19v108l5 63l-5 23v108l5 62l-5 19v113l5 59l-5 22v109l5 62l-5 19v109l5 61l-7 36l8 42l25 8h43l17 8l29 -8h89l31 -31l12 -35l15 -31l12 -29l22 -33l25 -66l42 -85l25 -63l27 -40l8 -33l43 -85l7 -30l22 -32l66 -132l13 -39l22 -38v42 l5 25l-7 41l6 27l-5 92l6 30l-7 46l6 25l-5 93l5 27l-6 45l6 25l-5 93l5 32l-6 43l6 23v81l15 8l27 4l20 8l31 -8h100l14 -14l6 -17v-1287l-23 -23h-86l-63 -6l-36 19l-17 30l-27 43l-8 30l-42 85l-4 24l-66 131l-8 20l-39 85l-11 31l-21 35l-25 62l-28 47l-11 36l-29 51 l-38 87l-15 31l-4 12h-4v-105l4 -73l-4 -12v-105l4 -73l-4 -16v-105l4 -72l-4 -13v-105l4 -73l-4 -16v-66l-19 -19h-62l-51 -5l-38 9h-33z" />
<glyph unicode="o" d="M43 524v155l4 23v66l8 23l4 39l3 19l8 66l20 47v38l19 24l6 35l48 89l40 58l69 62l85 42l46 8h24l25 13l37 -13l54 -8l47 -23l42 -39l30 -23l40 -66l12 -23l19 -33l8 -29l7 -23l5 -32l23 -50v-35l7 -23l4 -31l4 -23l4 -47l12 -69v-97l-4 -62v-54l-8 -39l-4 -31l-8 -27 l-4 -47l-11 -29v-25l-8 -20l-5 -28l-18 -27l-5 -37l-18 -28l-26 -50l-29 -35l-11 -15l-39 -39l-23 -16l-23 -18l-39 -17l-28 -3l-38 -16h-35l-26 5l-25 -6l-46 13l-27 11l-42 14l-50 37l-62 69l-32 55l-8 19l-19 39v23l-25 74l-6 38v43l-4 12zM260 576l8 -29l4 -92l11 -44 v-42l34 -75l33 -56l26 -19l36 -12l42 10l13 19l28 16l11 32l16 22l5 16l8 19l12 51l15 57v51l12 35v163l4 19l-4 20l-8 112l-11 35v31l-36 109l-19 27l-35 35h-50l-31 -16l-8 -15l-31 -31l-4 -16l-26 -53l-31 -119l-5 -53l-12 -18l7 -38l-10 -64v-66z" />
<glyph unicode="p" horiz-adv-x="694" d="M47 59l4 85l4 17l-8 41v112l8 41l-4 17l-4 70l4 86l4 17l-4 21l-4 70l4 81l4 22l-8 33v124l8 32l-8 41v121l8 32l-4 18v147l18 36l35 -6l36 5h93l21 7l43 -14l70 -8l37 -12l27 -12l27 -9l55 -30l42 -42l34 -26l36 -71l27 -66v-31l11 -43v-54l-4 -19l-3 -51l-8 -19l-4 -39 l-27 -54l-8 -23l-19 -23l-12 -24l-31 -31l-10 -15l-54 -48l-28 -7l-16 -24l-35 -10l-22 -15l-25 -5l-23 -7l-20 -4l-27 -8l-26 -5l-6 -49l8 -29l-7 -57v-112l6 -24l-6 -54v-112l8 -31l-20 -31h-23l-19 4l-19 -4h-113l-13 7l-6 12zM256 725h35l65 26l57 57l17 46l8 42l4 15 v27l-7 24l-5 32l-19 37l-38 39l-25 19l-35 11l-57 7v-107l6 -24l-6 -53v-113l7 -26z" />
<glyph unicode="q" horiz-adv-x="860" d="M43 559v23l4 8v73l5 67l-7 29l14 20l3 55l27 138l16 32l4 27l15 31l5 16l19 27l6 26l21 24l11 24l24 23l19 24l53 47l63 32l24 5h27l18 19l28 -7l73 -5l49 -16l49 -29l64 -65l63 -110l8 -35l24 -69l4 -27l11 -28l4 -46l12 -76v-56l7 -27v-136l-10 -25l9 -35l-9 -37 l-5 -38l-4 -20l-4 -27l-4 -19l-4 -39l-10 -15l-5 -28l-8 -23l-6 -30l-39 -87l21 -35l10 -29l50 -84l-6 -41h-49l-19 -5l-59 6l-31 -5h-46l-8 8l-15 25l-45 -20l-49 -5l-27 -8h-50l-27 8h-29l-85 33l-39 30l-53 62l-15 30l-18 27l-9 27l-26 70l-17 66l-14 42l9 17l-13 50 l-5 100zM268 605l8 -140l3 -19l4 -31l20 -70l5 -26l33 -67l35 -35l31 -7h31l15 7l-50 90l-31 62l-42 74l8 42h65l24 4h100l22 -8l13 -19h4l4 31l4 19v19l10 154l-14 129v31l-4 20l-4 35l-11 34v31l-24 39l-27 55l-31 31h-33l-53 -23l-14 -24l-16 -23l-32 -59l-11 -42l-7 -23 l-4 -27l-8 -16l-19 -136v-89z" />
<glyph unicode="r" horiz-adv-x="736" d="M45 39l12 28l-6 42v104l-4 20l9 28l-5 38v104l-4 20l10 30l-6 36v108l-4 20l9 27l-5 38v105l-4 22l10 26l-6 41v105l-4 18l9 29l-5 38v105l-4 22l10 25l-8 52l9 34l28 14h81l25 -5l27 14l26 -9l89 -5l35 -7l23 -7h43l108 -55l85 -85l7 -25l22 -34l30 -106v-98l-9 -96 l-19 -44l-14 -49l-40 -63l-19 -24l-15 -19l-20 -15l-27 -24l-20 -11l-26 -18l-49 -20l43 -76l10 -25l53 -92l6 -18l42 -74l12 -31l30 -46l38 -77l21 -31l12 -37l-22 -22l-89 -8l-36 9l-18 -4h-38l-30 10l-34 50l-6 25l-54 105l-12 30l-31 42l-35 75l-24 61l-7 -7v-373 l-33 -22h-29l-31 8l-36 -7l-68 9zM260 733l4 -22l86 7l12 12l39 16l27 27l13 31l13 18l8 15v124l-16 39l-8 24l-8 17l-47 35l-73 22l-50 -5v-360z" />
<glyph unicode="s" horiz-adv-x="779" d="M43 985v54l8 20l4 34l16 69l68 100l95 60l76 16h28l15 3h70l58 -19l44 -12l57 -46l70 -70l32 -99l6 -29l6 -16l6 -50v-69l-19 -20h-136l-16 4l-35 4l-15 15v51l-14 60l-67 68l-25 8l-46 -9l-15 -15l-21 -16l-9 -33l-18 -18l6 -81l30 -59l28 -21l35 -35l54 -35l39 -20 l35 -23l17 -8l41 -34l37 -28l21 -27l45 -49l56 -97l11 -44l4 -35l8 -31v-127l-8 -31l-4 -24l-7 -23l-8 -31l-20 -39l-9 -9l-13 -34l-30 -12l-15 -30l-29 -12l-30 -21l-83 -21l-27 -4l-16 -4h-34l-35 8l-38 4l-44 15l-15 8l-50 18l-74 75l-47 72l-19 67l-6 34l-13 32l-4 58 l-6 54l7 31l49 8h154l20 -30l5 -92l10 -49l20 -42l31 -31l31 -15h62l40 20l18 30l12 18v96l-18 48l-38 69l-64 64l-50 37l-81 44l-36 27l-27 27l-36 29l-19 30l-31 36l-46 91l-7 31z" />
<glyph unicode="t" horiz-adv-x="767" d="M30 1127l4 191l12 6l90 8l53 -4h50l24 -4l38 8h35l43 -4h54l23 -4l39 8h31l47 -4h50l23 -4l20 4h46l16 -15v-190l-16 -16h-39l-11 -4h-66l-27 5l-37 -5l-37 5v-137l-4 -17l5 -175l-5 -19l5 -171l-5 -19l5 -174l-5 -19l5 -171l-5 -19l5 -169l-10 -19l-26 -8h-89l-19 -4 h-47l-28 7l-11 20v97l-4 28l4 69v97l-5 24l5 69v97l-4 28l4 65v101l-5 24l5 69v96l-4 28l4 65v105l-8 27h-46l-27 5l-35 -5l-47 6l-28 -9l-38 13z" />
<glyph unicode="u" horiz-adv-x="779" d="M50 659v325l4 16v178l5 21l-5 22v77l8 25l19 6h93l62 6l30 -15l7 -15l-6 -38l7 -29l-7 -52v-82l-4 -19l7 -40l-7 -45v-121l5 -23l-10 -51l5 -61v-54l7 -20l-7 -70l9 -64l-6 -29l13 -38v-77l19 -63l5 -36l44 -66l27 -18h28l20 15l21 11l6 13l4 23l19 23l4 23l13 52l7 45 v24l9 38l10 352l-8 176v42l-4 20v240l10 19l98 9l63 -5h27l15 -15l9 -183l-5 -69l4 -43v-50l6 -33l-8 -30l7 -165l-5 -32v-159l-7 -23v-97l-4 -23l-4 -31l-4 -20l-6 -56l-13 -48l-5 -24l-15 -35l-15 -39l-48 -73l-70 -57l-41 -17l-29 -5l-46 -16l-100 9l-69 23l-57 38 l-75 115l-16 46l-19 38v43l-7 21l-8 76v39l-12 35v166z" />
<glyph unicode="v" horiz-adv-x="857" d="M31 1308l37 25h52l51 -4h54l30 -15l10 -70l22 -78l4 -35l19 -69l4 -31l11 -23l5 -47l11 -47l4 -19l8 -23v-43l15 -34l16 -82l4 -27l6 -18l5 -29l8 -27l4 -27l8 -31l4 -27l3 -4l12 23l4 23l8 24l4 42l11 27l4 43l8 23l19 86l4 31l8 23l4 19l11 47l8 54l14 28l6 65l11 17 l4 41l23 89l7 60l10 21l22 16l8 8h62l46 -4h47l28 -14l-5 -72l-12 -34l-3 -19l-8 -31l-12 -66l-8 -20l-3 -31l-12 -31v-18l-23 -102l-4 -27l-12 -17v-45l-19 -48l-10 -77l-17 -53l-4 -39l-12 -23v-20l-31 -135l-4 -12l-4 -43l-19 -48v-29l-27 -109v-27l-16 -31v-44l-19 -45 l-7 -20l-19 -13l-114 6h-58l-18 18l-5 48l-12 35v11l-19 70l-4 39l-8 23l-19 89l-4 27l-11 31l-7 50l-17 51l-4 27l-7 31l-15 86l-12 38l-8 20v38l-23 70v20l-8 50l-12 35l-4 27l-4 15l-3 20l-8 31l-10 48l-13 41l-4 43l-8 23l-4 27l-12 35l-4 35z" />
<glyph unicode="w" horiz-adv-x="1236" d="M43 1274v32l10 21l31 8l68 -6h89l19 -19l4 -39l15 -58l4 -23l12 -35l4 -27l4 -12l4 -36l10 -20l5 -25v-16l4 -19l4 -31l19 -59v-31l10 -29l6 -29l15 -62l4 -35l7 -20l5 -34l11 -35l8 -38v-16l16 -46l3 -16l4 12l4 38l12 24l6 52l13 41l15 86l12 30l5 51l34 15h155l27 -11 l12 -47l12 -66l11 -39l5 -31l16 -47l6 -50l12 -35l4 -23l7 7l4 55l12 23l6 47l13 54l8 39l4 15l8 43l8 12l3 34l4 16l8 39l4 15l6 29l13 41v43l16 20v30l23 97l6 41l17 52l5 43l38 19h50l51 -4h50l26 -13l7 -15l-6 -18l-4 -16l-7 -19l-12 -66l-4 -16l-4 -27l-7 -19l-16 -82 l-7 -19l-5 -31l-7 -27l-8 -51l-12 -19v-43l-17 -34l-10 -78l-15 -54l-8 -43l-8 -23l-4 -27l-8 -31v-20l-11 -23l-4 -31l-12 -46l-4 -35l-5 -12l-10 -39l-4 -11l-5 -51l-14 -35l-8 -54l-19 -77l-5 -42l-15 -20v-47l-28 -29l-170 6l-20 10l-10 33l-20 89l-4 31l-7 31l-4 19 l-12 35v35l-15 39l-8 23l-4 -8l-4 -46l-12 -35l-3 -20l-14 -54l-6 -46l-8 -16l-3 -31l-8 -23l-9 -48l-15 -14l-39 -10l-108 6h-39l-18 18l-5 25v38l-18 55l-5 31l-4 15l-4 23l-11 47l-6 29l-14 41l-4 42l-7 23l-4 28l-12 34l-4 35l-21 69l-10 59l-8 27l-5 31l-10 31l-9 64 l-12 49l-14 27v43l-4 11l-19 82l-4 35l-12 34l-5 44l-18 53l-4 39z" />
<glyph unicode="x" horiz-adv-x="764" d="M45 1295l22 33l33 6l67 -5h85l23 -11l20 -51l11 -36l16 -34l8 -40l31 -88l11 -21l4 -29l6 -5l25 59l11 52l24 47l4 33l17 34l8 39l10 20l13 31h131l54 5l15 -5l16 -15v-24l-4 -7l-8 -28l-8 -23l-3 -23l-14 -23l-6 -27l-11 -24l-20 -66l-31 -84l-8 -38l-15 -23l-4 -29 l-12 -23l-13 -55l-20 -38l-16 -65l-23 -59l30 -78l19 -42l4 -35l16 -35l23 -66l15 -35l4 -23l12 -35l13 -47l22 -50l6 -31l28 -65l4 -24l24 -51v-27l-26 -25l-102 6h-82l-11 12l-21 45l-6 32l-28 54l-4 27l-11 28l-5 24l-14 34l-21 62h-7l-5 -32l-17 -23l-5 -38l-19 -47 l-8 -23l-8 -19l-7 -39l-24 -54l-6 -33l-21 -10h-108l-23 -4h-43l-18 6l-12 12l7 48l14 32l9 38l14 32l5 22l12 27l6 35l21 43l5 32l14 30l9 34l29 78l15 58l9 20l12 11v35l17 34l14 48l-15 46l-5 25l-21 46l-12 48l-21 51l-7 31l-22 47l-13 50l-4 12l-4 27l-19 39l-8 27 l-11 27l-5 23l-17 38l-6 32z" />
<glyph unicode="y" horiz-adv-x="729" d="M35 1280v34l16 15h85l59 6l43 -7l17 -8l9 -26l5 -22l16 -37l6 -22l13 -32l6 -26l12 -27l4 -33l27 -53l10 -30l12 19l5 31l23 54l16 62l23 50l4 35l15 20l5 31l11 11l98 9l61 -5h39l18 -18l-7 -48l-13 -26l-22 -71l-27 -77l-8 -27l-11 -17l-4 -41l-19 -29l-21 -77l-14 -38 l-20 -58l-15 -35l-4 -31l-24 -48l-7 -64v-613l-20 -19h-31l-32 -6l-126 6l-15 15l-5 28l-8 29l14 28l-6 28v108l-4 27l9 30l-5 25v108l-3 32l8 24l-5 30v108l-8 29l11 23l-18 37l-8 23l-26 65l-21 83l-23 58l-10 20l-7 33l-28 72l-9 34l-12 30l-27 98z" />
<glyph unicode="z" horiz-adv-x="802" d="M50 1151v143l13 26l26 13h42l47 -4h50l24 -4l38 8h35l89 -7l95 8l101 -8l99 9l27 -14l9 -17l-6 -32l5 -20v-55l-4 -19v-62l-23 -47l-12 -19l-8 -23l-14 -19l-9 -32l-13 -22l-6 -24l-19 -18l-9 -39l-22 -36l-12 -31l-68 -144l-6 -23l-18 -18l-9 -34l-17 -23l-6 -26 l-20 -38l-14 -19l-9 -32l-39 -77l-8 -27l-19 -26l-8 -33l-36 -64l5 -5h120l30 -5l163 5l25 -4h65l18 -18l6 -17v-39l-5 -17l10 -37l-7 -65l-11 -22l-18 -12l-151 8l-47 -8l-145 8l-47 -8l-149 8l-31 -6h-47l-32 5l-14 14v105l4 39v52l14 22l32 73l12 19l19 43l31 62l4 27 l23 23l5 26l13 20l10 24l11 24l8 19l14 23l9 23l20 39l9 29l35 58l21 64l23 23l5 35l21 22l6 32l11 16l77 159h-22l-12 -4h-66l-25 5l-37 -5l-43 7l-19 -7h-66l-27 5l-37 -5l-29 4h-44z" />
<glyph unicode="{" horiz-adv-x="411" d="M39 648v31l110 110l-43 86l-9 52l-15 42v40l-4 19v35l-4 15v101l4 8l4 31l7 23l4 39l12 27l5 36l65 106l19 9h39l23 -15l39 -31l58 -39v-26l-35 -59l-9 -15l-6 -36l-12 -19l-8 -97v-101l8 -23l14 -73l34 -89l28 -35l8 -23l-95 -113l11 -16l43 -46l11 -16l27 -27v-12 l-14 -19l-6 -28l-19 -19l-19 -42l-8 -35l-11 -35l-8 -54v-27l-10 -30l6 -25l4 -84l8 -36l25 -75l33 -53v-18l-23 -30l-20 -10l-87 -58h-17l-24 12l-31 31l-45 91l-5 33l-8 27l-4 27l-7 23l-4 54l-8 43l4 19v31l4 16l4 50l4 24l3 42l12 24l4 30l12 28l4 21l15 25l8 23z" />
<glyph unicode="|" horiz-adv-x="326" d="M48 54l6 28v139l-6 28l6 23v143l-6 23l6 23v144l-6 28l6 22v144l-6 23l6 23v144l-6 28l6 22v143l-6 23l6 28v58l12 25l21 7l44 -5h113l22 -11l6 -21l-6 -26l5 -92l-5 -27l7 -43l-7 -32l5 -87l-5 -28l7 -48l-7 -26l5 -92l-5 -28l7 -42l-7 -33l5 -88l-5 -27l7 -48l-7 -26 l5 -92l-5 -28l7 -42l-7 -32l5 -89l-5 -26l7 -49l-7 -26l5 -92l-15 -31l-16 -5h-81l-74 -4l-21 7l-6 12l-4 35z" />
<glyph unicode="}" horiz-adv-x="415" d="M36 537l7 14l15 19l16 23l54 55v11l-35 35l-23 35l-27 27v35l19 19l8 20l16 23l7 27l13 31l7 43l7 27l10 110l-6 37l-4 55l-3 15l-6 25l-18 41l-7 23l-28 54v25l16 10l15 12l24 12l19 15l19 12l28 27h15l23 -12l55 -54l15 -31l36 -112l14 -113v-66l-3 -15l-9 -98l-17 -53 l-9 -55l-19 -23l-5 -31l-10 -16l65 -65l36 -26l13 -27l-11 -21l-93 -93l-14 -10l37 -74l5 -32l18 -47l5 -46l6 -31l6 -139l-4 -20v-23l-8 -20l-4 -35l-8 -23l-4 -29l-20 -55l-34 -55l-41 -41l-17 -6l-19 7l-43 28l-45 26l-33 32v12l14 44l21 22l5 20l11 26l4 30l11 28v54 l5 26l-9 122l-15 46v22l-12 29l-12 37l-30 40z" />
<glyph unicode="~" horiz-adv-x="752" d="M45 444l6 122l11 16l9 38l43 57l50 32l50 12h58l43 -8l46 -27l39 -27l27 -15l32 -24h38l18 38l6 37l18 18h62l16 -3h66l11 -12l9 -35l-5 -54l-4 -12l-6 -51l-32 -50l-18 -28l-37 -28l-23 -6l-65 -21l-24 6l-52 5l-37 18l-24 16l-38 19l-24 23l-34 24h-31l-16 -16v-43 l-8 -23l-11 -11l-88 -10l-63 6z" />
<glyph unicode="&#xa1;" horiz-adv-x="341" d="M53 1149v54l4 12l9 37l14 9l34 30l57 16l46 -10l34 -16l27 -27l25 -76l-14 -37l-6 -26l-40 -40l-58 -19h-31l-55 27l-27 27zM64 297l6 28l-6 157l4 66l-4 128l4 61l-4 129l4 66v50l14 14l99 6l78 -5l18 -8l5 -11v-976l-11 -31h-106l-19 4l-19 -4h-43l-11 10l-8 36v89 l3 64z" />
<glyph unicode="&#xa2;" horiz-adv-x="694" d="M35 577v74l8 23v39l11 35l10 38l29 59l41 61l64 53l58 29l23 9l4 92l16 15h62l73 5l47 -5l13 -13l6 -81l31 -10l47 -6l35 -18l11 -11v-43l-14 -14l-11 -39l-25 -63l-8 -23l-23 -24h-12l-26 13l-9 -9v-345h8l34 20h20l24 -24l15 -38l27 -39l9 -26l18 -31v-17l-9 -20 l-48 -36l-40 -17l-52 -18l-6 -6v-93l-15 -15l-93 -9l-31 5h-47l-22 11l-9 28v97l-23 11l-58 39l-67 67l-45 70l-24 72l-4 29l-15 41l-4 35zM252 558l8 -20l16 -47l-1 -3l20 -35l4 58v233l3 4h-3l-18 -18l-17 -52l-12 -23v-97z" />
<glyph unicode="&#xa3;" horiz-adv-x="791" d="M49 185l6 10l-6 179l6 16l-6 179l6 10l-6 179l6 15l-6 179l5 9v66l28 112l22 32l20 38l50 51l47 31l88 27l70 4l22 8l37 -12l71 -14l46 -24l74 -59l22 -39l25 -39l17 -42l4 -27l12 -31l8 -58v-74l-16 -16h-147l-29 -5l-25 24l-5 75l-28 63l-51 40l-54 8l-47 -24l-6 -30 l-17 -17l-9 -29v-136l-4 -15v-50l4 -31v-93l-5 -23l5 -36h352l21 -10l10 -21v-104l-4 -16v-50l-7 -16l-70 -4l-29 -6l-150 9l-30 -6h-93v-101l-4 -20v-65l7 -8h113l20 -5l158 7l31 -6h124l11 -21l5 -134l-5 -43l-22 -23h-148l-26 7l-20 -7h-148l-26 7l-20 -7h-143l-26 6 l-32 -8l-64 7l-13 13z" />
<glyph unicode="&#xa8;" horiz-adv-x="651" d="M32 1487l13 26l7 31l39 39l31 15h78l31 -15l30 -30l24 -57v-37l-8 -24l-4 -15l-19 -19l-18 -30l-67 -17h-24l-33 7l-65 64zM373 1487l13 26l7 31l39 39l31 15h78l31 -15l30 -30l24 -57v-37l-8 -24l-4 -15l-19 -19l-18 -30l-67 -17h-24l-33 7l-65 64z" />
<glyph unicode="&#xa9;" horiz-adv-x="694" d="M43 550v50l4 16l4 39l4 15l10 56l14 24l24 54l21 21l11 17l24 15l16 26l27 6l32 21l65 16h116l72 -27l36 -30l36 -22l55 -91l14 -43l4 -20l12 -31v-27l4 -31v-89l-4 -19v-23l-11 -28l-9 -42l-7 -23l-12 -20l-12 -23l-23 -23l-10 -27l-48 -31l-35 -20l-20 -15h-34l-29 -12 h-80l-46 6l-35 17l-41 18l-71 71l-16 24l-23 46l-6 22l-16 38l-5 37zM181 556l6 -36l3 -20l9 -22l3 -12l14 -27l9 -13l40 -41l24 -10l19 -9l26 -4h46l16 7h20l11 8l20 11l27 19l5 15l14 13l7 12l7 12l3 13l6 24l6 16v13l2 11v50l-2 18v15l-7 18l-2 11l-9 24l-31 52l-20 12 l-21 18l-40 15h-66l-37 -9l-18 -12l-16 -3l-9 -15l-13 -9l-6 -9l-12 -13l-14 -30l-8 -13l-6 -32l-2 -9l-2 -22l-2 -9v-28zM241 599q0 21 6.5 34t20.5 38q18 30 37.5 42t39.5 13q22 2 36 2t24.5 -2.5t19 -8.5t20.5 -17l-11 -33l-7 -23l-5 -12l-15 -6l-19 10h-23l-22 -20 l-3 -26l-2 -14v-13l17 -37l6 -9h20l11 -3l28 17l13 -8l12 -23l4 -15l16 -22l-41 -36l-46 -13q-17 -5 -37 -4t-35 13q-15 10 -22 19t-18 28q-4 7 -5.5 10t-2 5.5t-1 6.5t-3.5 13q-13 42 -13 94z" />
<glyph unicode="&#xab;" horiz-adv-x="843" d="M47 314l7 21l4 44l15 10l27 11l71 33l22 6l23 23l40 5l17 17l50 16l14 -7l18 -17l6 -37l15 -35l4 -26l11 -28l5 -36l-36 -22l-52 -26l25 -13l36 -5l26 -26v-23l-6 -18l-6 -29l-11 -26l-5 -53l-22 -33h-20l-75 25l-41 25l-47 19l-50 28l-35 12l-22 22l-6 29l5 30v50z M432 328l7 21l4 44l15 10l27 11l71 33l22 6l23 23l40 5l17 17l50 16l14 -7l18 -17l6 -37l15 -35l4 -26l11 -28l5 -36l-36 -22l-52 -26l25 -13l36 -5l26 -26v-23l-6 -18l-6 -29l-11 -26l-5 -53l-22 -33h-20l-75 25l-41 25l-47 19l-85 40l-22 22l-6 29l5 30v50z" />
<glyph unicode="&#xad;" horiz-adv-x="671" d="M50 422v20l4 15v156l89 13l145 -8l48 9l145 -9l30 6h62l38 -9l8 -17l-8 -23l5 -25v-139l-16 -8h-34l-16 -4h-143l-26 6l-25 -6h-139l-28 5l-23 -5h-93z" />
<glyph unicode="&#xaf;" horiz-adv-x="671" d="M47 1372v20l4 15v156l89 13l145 -8l48 9l145 -9l30 6h62l38 -9l8 -17l-8 -23l5 -25v-139l-16 -8h-34l-16 -4h-143l-26 6l-25 -6h-139l-28 5l-23 -5h-93z" />
<glyph unicode="&#xb4;" horiz-adv-x="422" d="M34 1435l28 59l11 28l29 40l10 36l21 30l9 21l9 15l14 33l23 22l36 3l33 -8l57 -35l24 -4l25 -13l-7 -23l-9 -21l-41 -68l-44 -106l-8 -19l-6 -23l-20 -25l-18 -23l-23 11l-57 11l-54 28h-27l-8 9z" />
<glyph unicode="&#xb8;" horiz-adv-x="419" d="M86 -358l7 20v39l4 16l4 20l21 7l34 -7l18 14l37 5l7 14l-9 9l-31 15l-63 4l-19 10l-9 27l6 17v171h10l195 4l4 -90l29 -5l53 -53l16 -33l20 -68l-5 -27l-5 -45l-24 -46l-35 -44l-74 -48l-41 -6l-36 -16h-33l-20 4h-44l-6 12l-4 46z" />
<glyph unicode="&#xbb;" horiz-adv-x="820" d="M41 323v12l10 26l6 20l19 58l9 40l22 22h27l116 -58l21 -14l36 -6l25 -15l43 -22l7 -13v-27l4 -23v-146l-39 -32l-31 -12l-54 -27l-35 -12l-81 -40l-31 -8l-12 -6h-12l-11 12l-6 27l-14 46l-5 36l-12 51l12 35l42 7l29 15v11l-64 22zM418 323v12l10 26l6 20l19 58l9 40 l22 22h27l116 -58l21 -14l36 -6l25 -15l43 -22l7 -13v-27l4 -23v-146l-39 -32l-31 -12l-54 -27l-35 -12l-81 -40l-31 -8l-12 -6h-12l-11 12l-6 27l-14 46l-5 36l-12 51l12 35l42 7l29 15v11l-64 22z" />
<glyph unicode="&#xbf;" horiz-adv-x="694" d="M40 289v89l4 19l3 31l4 16l4 31l14 27l9 39l24 31l23 38l23 24l24 19l19 19l35 24l23 11l16 11l46 20l33 5l14 7l44 18l-7 67l7 116l8 16l33 4h97l26 -7l20 7l11 -6l9 -21v-55l3 -105l-4 -74l5 -122l-13 -38l-16 -8l-32 8l-21 -6l-111 -11l-56 -27l-30 -10l-12 -25 l-28 -14l-7 -29l-14 -24l-5 -30v-96l39 -52l71 -46l29 -4l31 -8l87 -10l27 7l22 -4h50l27 -14l4 -68l6 -23l-6 -23v-58l-12 -24l-15 -7h-189l-90 17l-70 21l-39 11l-76 43l-48 47l-45 77l-6 37l-10 20l-5 33zM381 1108v53l4 15l4 30l31 42l39 20l59 12l40 -17l32 -21l21 -31 l14 -43v-46l-19 -39l-35 -35l-24 -11l-19 -4l-19 -6l-64 7l-25 26l-12 15z" />
<glyph unicode="&#xc0;" horiz-adv-x="860" d="M35 4v24l19 56l4 40l4 16l4 19l8 20l4 31l11 46l4 31l12 27l4 35l4 16l3 19l12 47l4 27l15 50l12 85l16 31v39l15 31v23l16 62l3 24l16 66l4 27l8 19l3 23l8 27l8 59l19 48v45l12 23l15 81l8 27l9 49l9 18l21 11h170l19 -19l9 -51v-15l14 -29l17 -99l15 -51l4 -31l8 -27 l9 -54l14 -43l4 -31l4 -19l4 -31l19 -74v-21l13 -33l22 -108l8 -31l15 -74l8 -27l4 -31l15 -36l7 -69l25 -77l-5 -20l16 -46l12 -51l7 -27l12 -73l5 -14l-7 -21l-25 -12h-113l-27 4h-31l-13 13l-14 61l-8 15v35l-19 56l-6 67l-17 51l-8 55l-12 34h-188l-9 -31l-10 -64 l-14 -43l-7 -55l-12 -24l-5 -55l-14 -41l-13 -65l-26 -13h-120l-54 8zM247 1538v20l23 46l32 32l29 51l33 16l42 -37l77 -50l70 -54l39 -24l14 -13l7 -23l-25 -45l-23 -27l-41 -61l-22 -11l-24 8l-37 37l-70 42l-23 16l-35 30l-44 25zM380 593h89v35l-18 56l-5 33l-4 16 l-5 36l-11 27l-23 -110l-8 -23v-37l-15 -21v-12z" />
<glyph unicode="&#xc1;" horiz-adv-x="860" d="M35 4v24l19 56l4 40l4 16l4 19l8 20l4 31l11 46l4 31l12 27l4 35l4 16l3 19l12 47l4 27l15 50l12 85l16 31v39l15 31v23l16 62l3 24l16 66l4 27l8 19l3 23l8 27l8 59l19 48v45l12 23l15 81l8 27l9 49l9 18l21 11h170l19 -19l9 -51v-15l14 -29l17 -99l15 -51l4 -31l8 -27 l9 -54l14 -43l4 -31l4 -19l4 -31l19 -74v-21l13 -33l22 -108l8 -31l15 -74l8 -27l4 -31l15 -36l7 -69l25 -77l-5 -20l16 -46l12 -51l7 -27l12 -73l5 -14l-7 -21l-25 -12h-113l-27 4h-31l-13 13l-14 61l-8 15v35l-19 56l-6 67l-17 51l-8 55l-12 34h-188l-9 -31l-10 -64 l-14 -43l-7 -55l-12 -24l-5 -55l-14 -41l-13 -65l-26 -13h-120l-54 8zM306 1420l28 59l11 28l29 40l10 36l21 30l9 21l9 15l14 33l23 22l36 3l33 -8l57 -35l24 -4l25 -13l-7 -23l-9 -21l-41 -68l-44 -106l-8 -19l-6 -23l-20 -25l-18 -23l-23 11l-57 11l-54 28h-27l-8 9z M380 593h89v35l-18 56l-5 33l-4 16l-5 36l-11 27l-23 -110l-8 -23v-37l-15 -21v-12z" />
<glyph unicode="&#xc2;" horiz-adv-x="860" d="M35 4v24l19 56l4 40l4 16l4 19l8 20l4 31l11 46l4 31l12 27l4 35l4 16l3 19l12 47l4 27l15 50l12 85l16 31v39l15 31v23l16 62l3 24l16 66l4 27l8 19l3 23l8 27l8 59l19 48v45l12 23l15 81l8 27l9 49l9 18l21 11h170l19 -19l9 -51v-15l14 -29l17 -99l15 -51l4 -31l8 -27 l9 -54l14 -43l4 -31l4 -19l4 -31l19 -74v-21l13 -33l22 -108l8 -31l15 -74l8 -27l4 -31l15 -36l7 -69l25 -77l-5 -20l16 -46l12 -51l7 -27l12 -73l5 -14l-7 -21l-25 -12h-113l-27 4h-31l-13 13l-14 61l-8 15v35l-19 56l-6 67l-17 51l-8 55l-12 34h-188l-9 -31l-10 -64 l-14 -43l-7 -55l-12 -24l-5 -55l-14 -41l-13 -65l-26 -13h-120l-54 8zM198 1430l25 58l9 27l26 39l9 35l18 30l8 20l8 15l12 32l23 7l24 12l34 -8h108l44 -8l65 -161l27 -44l8 -23l15 -31v-16l-15 -15l-31 -16l-24 -4l-88 -23h-20l-17 9l-22 53l-6 19h-14l-7 -19l-5 -23 l-18 -24l-16 -23l-23 12l-58 11l-54 28h-27l-10 9zM380 593h89v35l-18 56l-5 33l-4 16l-5 36l-11 27l-23 -110l-8 -23v-37l-15 -21v-12z" />
<glyph unicode="&#xc3;" horiz-adv-x="860" d="M35 4v24l19 56l4 40l4 16l4 19l8 20l4 31l11 46l4 31l12 27l4 35l4 16l3 19l12 47l4 27l15 50l12 85l16 31v39l15 31v23l16 62l3 24l16 66l4 27l8 19l3 23l8 27l8 59l19 48v45l12 23l15 81l8 27l9 49l9 18l21 11h170l19 -19l9 -51v-15l14 -29l17 -99l15 -51l4 -31l8 -27 l9 -54l14 -43l4 -31l4 -19l4 -31l19 -74v-21l13 -33l22 -108l8 -31l15 -74l8 -27l4 -31l15 -36l7 -69l25 -77l-5 -20l16 -46l12 -51l7 -27l12 -73l5 -14l-7 -21l-25 -12h-113l-27 4h-31l-13 13l-14 61l-8 15v35l-19 56l-6 67l-17 51l-8 55l-12 34h-188l-9 -31l-10 -64 l-14 -43l-7 -55l-12 -24l-5 -55l-14 -41l-13 -65l-26 -13h-120l-54 8zM101 1377l6 122l11 16l9 38l43 57l50 32l50 12h58l43 -8l46 -27l39 -27l27 -15l32 -24h38l18 38l6 37l18 18h62l16 -3h66l11 -12l9 -35l-5 -54l-4 -12l-6 -51l-32 -50l-18 -28l-37 -28l-23 -6l-65 -21 l-24 6l-52 5l-37 18l-24 16l-38 19l-24 23l-34 24h-31l-16 -16v-43l-8 -23l-11 -11l-88 -10l-63 6zM380 593h89v35l-18 56l-5 33l-4 16l-5 36l-11 27l-23 -110l-8 -23v-37l-15 -21v-12z" />
<glyph unicode="&#xc4;" horiz-adv-x="860" d="M35 4v24l19 56l4 40l4 16l4 19l8 20l4 31l11 46l4 31l12 27l4 35l4 16l3 19l12 47l4 27l15 50l12 85l16 31v39l15 31v23l16 62l3 24l16 66l4 27l8 19l3 23l8 27l8 59l19 48v45l12 23l15 81l8 27l9 49l9 18l21 11h170l19 -19l9 -51v-15l14 -29l17 -99l15 -51l4 -31l8 -27 l9 -54l14 -43l4 -31l4 -19l4 -31l19 -74v-21l13 -33l22 -108l8 -31l15 -74l8 -27l4 -31l15 -36l7 -69l25 -77l-5 -20l16 -46l12 -51l7 -27l12 -73l5 -14l-7 -21l-25 -12h-113l-27 4h-31l-13 13l-14 61l-8 15v35l-19 56l-6 67l-17 51l-8 55l-12 34h-188l-9 -31l-10 -64 l-14 -43l-7 -55l-12 -24l-5 -55l-14 -41l-13 -65l-26 -13h-120l-54 8zM133 1481l13 26l7 31l39 39l31 15h78l31 -15l30 -30l24 -57v-37l-8 -24l-4 -15l-19 -19l-18 -30l-67 -17h-24l-33 7l-65 64zM380 593h89v35l-18 56l-5 33l-4 16l-5 36l-11 27l-23 -110l-8 -23v-37 l-15 -21v-12zM474 1481l13 26l7 31l39 39l31 15h78l31 -15l30 -30l24 -57v-37l-8 -24l-4 -15l-19 -19l-18 -30l-67 -17h-24l-33 7l-65 64z" />
<glyph unicode="&#xc5;" horiz-adv-x="860" d="M35 4v24l19 56l4 40l4 16l4 19l8 20l4 31l11 46l4 31l12 27l4 35l4 16l3 19l12 47l4 27l15 50l12 85l16 31v39l15 31v23l16 62l3 24l16 66l4 27l8 19l3 23l8 27l8 59l19 48v45l12 23l15 81l8 27l9 49l9 18l21 11h170l19 -19l9 -51v-15l14 -29l17 -99l15 -51l4 -31l8 -27 l9 -54l14 -43l4 -31l4 -19l4 -31l19 -74v-21l13 -33l22 -108l8 -31l15 -74l8 -27l4 -31l15 -36l7 -69l25 -77l-5 -20l16 -46l12 -51l7 -27l12 -73l5 -14l-7 -21l-25 -12h-113l-27 4h-31l-13 13l-14 61l-8 15v35l-19 56l-6 67l-17 51l-8 55l-12 34h-188l-9 -31l-10 -64 l-14 -43l-7 -55l-12 -24l-5 -55l-14 -41l-13 -65l-26 -13h-120l-54 8zM267 1495l6 70l12 24l8 25l24 12l14 28l70 24h68l60 -25l36 -44l21 -43l7 -59l-11 -54l-23 -38l-26 -20l-35 -30l-51 -5l-26 -5l-20 5l-34 5l-24 18l-44 29l-14 29zM380 593h89v35l-18 56l-5 33l-4 16 l-5 36l-11 27l-23 -110l-8 -23v-37l-15 -21v-12zM403 1508l9 -9l-2 1q6 -8 18 -8q2 0 12 4.5t13 16.5l-2 2q0 10 -6.5 16.5t-16.5 6.5q-8 0 -12 -3.5t-5.5 -8t-1 -9t1.5 -5.5l-1 1v-2z" />
<glyph unicode="&#xc6;" horiz-adv-x="1190" d="M31 -11v33l19 39l7 32l18 33l10 39l16 31l8 23l7 16l5 26l26 51l5 36l21 26l5 31l29 66l13 44l26 53l6 24v14l19 25l5 33l15 21l23 69l4 8l19 50l11 21l5 29l14 21l9 34l12 19l7 31l8 16l9 27l12 18l8 33l14 27l9 38l26 51l11 35l13 48l18 18l4 31l8 7l43 4l15 6l27 -6 h147l19 5l28 -5h147l17 4l26 -4h105l20 -10l7 -25v-143l-10 -29l-14 -14h-302l-4 -31v-93l-6 -23l6 -35v-136l-6 -24l10 -50l76 5l67 -4h101l20 -10l13 -37l-6 -27l-3 -124l-8 -15l-12 -12h-132l-33 9l-21 -9h-66v-89l-4 -19l8 -47v-125l54 5h109l20 -5l102 8l21 -7l20 -19 v-183l-12 -11l-31 -8h-492l-18 9l-5 10v364l-47 6l-34 -7l-44 8l-23 -6h-39l-15 -31l-8 -24l-14 -23l-5 -27l-39 -93l-19 -58l-16 -31l-7 -28l-16 -24l-6 -31l-13 -14h-190zM475 595l82 -5l21 7v212l-4 19l-16 -31l-9 -35l-18 -23l-5 -34l-28 -51l-6 -24z" />
<glyph unicode="&#xc7;" horiz-adv-x="717" d="M43 584v140l8 23v43l4 15l7 56l20 61v35l19 23l4 27l16 31l7 23l20 39l15 19l12 24l27 35l13 22l22 16l39 39l55 37l62 25l41 4l18 13l29 -5l85 -5l43 -15l8 -4l47 -17l11 -21v-30l-19 -25l-4 -31l-28 -58l-8 -33l-23 -17h-19l-27 18l-57 11l-75 -27l-19 -25l-53 -61 l-9 -29l-33 -80l-6 -40l-12 -19l-4 -73l-7 -20l-4 -70l-6 -23l6 -23v-105l11 -35v-39l16 -35l12 -34l29 -59l45 -60l27 -20l42 -9h27l23 12l24 9l27 22h36l37 -62l24 -47l31 -51v-20l-16 -10l-27 -27l-23 -12l-18 -12l-40 -15l-19 -5l11 -10l65 -33l31 -54l5 -37l14 -43 l-18 -54l-7 -33l-16 -33l-31 -23l-39 -39l-35 -12l-20 -5l-49 -18h-59l-16 -5l-29 10l-13 26v70l4 19v58l15 16h74l27 27v11l-23 12h-27l-52 9l-12 12l-8 23l6 24l-4 93l-76 41l-69 76l-13 26l-26 32l-18 36l-14 25l-24 72l-7 32l-17 38l-4 35l-15 54v89z" />
<glyph unicode="&#xc8;" horiz-adv-x="667" d="M49 1240l6 63l18 19h512l17 -17l10 -29v-148l-12 -11l-14 -20h-17l-19 4h-116l-52 -5l-26 5h-77v-97l8 -37l-8 -33v-124l8 -32l-4 -22v-46h81l24 -5l87 7l63 -6l16 -16v-46l4 -47v-77l-18 -35h-257l-5 -56l9 -35l-8 -41v-124l7 -15h8l31 -8h140l19 9l39 -9h70l19 -20v-15 l-6 -18l6 -36l-4 -131l-134 -5l-88 4l-145 -6l-43 6l-112 -4l-26 12l-6 19v39l-4 34l4 153l-4 37l4 152l-4 42l4 151l-4 42l4 149l-4 42l4 152l-4 37l4 153zM150 1538v20l23 46l32 32l29 51l33 16l42 -37l77 -50l70 -54l39 -24l14 -13l7 -23l-25 -45l-23 -27l-41 -61 l-22 -11l-24 8l-37 37l-70 42l-23 16l-35 30l-44 25z" />
<glyph unicode="&#xc9;" horiz-adv-x="667" d="M49 1240l6 63l18 19h512l17 -17l10 -29v-148l-12 -11l-14 -20h-17l-19 4h-116l-52 -5l-26 5h-77v-97l8 -37l-8 -33v-124l8 -32l-4 -22v-46h81l24 -5l87 7l63 -6l16 -16v-46l4 -47v-77l-18 -35h-257l-5 -56l9 -35l-8 -41v-124l7 -15h8l31 -8h140l19 9l39 -9h70l19 -20v-15 l-6 -18l6 -36l-4 -131l-134 -5l-88 4l-145 -6l-43 6l-112 -4l-26 12l-6 19v39l-4 34l4 153l-4 37l4 152l-4 42l4 151l-4 42l4 149l-4 42l4 152l-4 37l4 153zM161 1429l28 59l11 28l29 40l10 36l21 30l9 21l9 15l14 33l23 22l36 3l33 -8l57 -35l24 -4l25 -13l-7 -23l-9 -21 l-41 -68l-44 -106l-8 -19l-6 -23l-20 -25l-18 -23l-23 11l-57 11l-54 28h-27l-8 9z" />
<glyph unicode="&#xca;" horiz-adv-x="667" d="M49 1240l6 63l18 19h512l17 -17l10 -29v-148l-12 -11l-14 -20h-17l-19 4h-116l-52 -5l-26 5h-77v-97l8 -37l-8 -33v-124l8 -32l-4 -22v-46h81l24 -5l87 7l63 -6l16 -16v-46l4 -47v-77l-18 -35h-257l-5 -56l9 -35l-8 -41v-124l7 -15h8l31 -8h140l19 9l39 -9h70l19 -20v-15 l-6 -18l6 -36l-4 -131l-134 -5l-88 4l-145 -6l-43 6l-112 -4l-26 12l-6 19v39l-4 34l4 153l-4 37l4 152l-4 42l4 151l-4 42l4 149l-4 42l4 152l-4 37l4 153zM102 1430l25 58l9 27l26 39l9 35l18 30l8 20l8 15l12 32l23 7l24 12l34 -8h108l44 -8l65 -161l27 -44l8 -23l15 -31 v-16l-15 -15l-31 -16l-24 -4l-88 -23h-20l-17 9l-22 53l-6 19h-14l-7 -19l-5 -23l-18 -24l-16 -23l-23 12l-58 11l-54 28h-27l-10 9z" />
<glyph unicode="&#xcb;" horiz-adv-x="667" d="M36 1481l13 26l7 31l39 39l31 15h78l31 -15l30 -30l24 -57v-37l-8 -24l-4 -15l-19 -19l-18 -30l-67 -17h-24l-33 7l-65 64zM49 1240l6 63l18 19h512l17 -17l10 -29v-148l-12 -11l-14 -20h-17l-19 4h-116l-52 -5l-26 5h-77v-97l8 -37l-8 -33v-124l8 -32l-4 -22v-46h81 l24 -5l87 7l63 -6l16 -16v-46l4 -47v-77l-18 -35h-257l-5 -56l9 -35l-8 -41v-124l7 -15h8l31 -8h140l19 9l39 -9h70l19 -20v-15l-6 -18l6 -36l-4 -131l-134 -5l-88 4l-145 -6l-43 6l-112 -4l-26 12l-6 19v39l-4 34l4 153l-4 37l4 152l-4 42l4 151l-4 42l4 149l-4 42l4 152 l-4 37l4 153zM377 1481l13 26l7 31l39 39l31 15h78l31 -15l30 -30l24 -57v-37l-8 -24l-4 -15l-19 -19l-18 -30l-67 -17h-24l-33 7l-65 64z" />
<glyph unicode="&#xcc;" horiz-adv-x="671" d="M47 148l4 15l4 27l8 8l27 4l19 10l23 -6h86v97l3 15v58l-3 20v101l3 11v62l-3 20v96l3 16v58l-3 23v97l3 12v62l-3 19v97l6 25l-148 7l-21 10l-4 43v148l19 19h524l17 -17l8 -26l-8 -33l8 -44l-8 -31l7 -43l-21 -32l-146 6l-5 -5v-895h27l20 10l23 -6l82 -4l19 -19v-66 l-6 -22l8 -44l-6 -23v-31l-11 -11l-160 -7l-46 6l-107 -4l-89 4l-109 -4l-22 5l-18 18v117zM152 1538v20l23 46l32 32l29 51l33 16l42 -37l77 -50l70 -54l39 -24l14 -13l7 -23l-25 -45l-23 -27l-41 -61l-22 -11l-24 8l-37 37l-70 42l-23 16l-35 30l-44 25z" />
<glyph unicode="&#xcd;" horiz-adv-x="671" d="M47 148l4 15l4 27l8 8l27 4l19 10l23 -6h86v97l3 15v58l-3 20v101l3 11v62l-3 20v96l3 16v58l-3 23v97l3 12v62l-3 19v97l6 25l-148 7l-21 10l-4 43v148l19 19h524l17 -17l8 -26l-8 -33l8 -44l-8 -31l7 -43l-21 -32l-146 6l-5 -5v-895h27l20 10l23 -6l82 -4l19 -19v-66 l-6 -22l8 -44l-6 -23v-31l-11 -11l-160 -7l-46 6l-107 -4l-89 4l-109 -4l-22 5l-18 18v117zM163 1429l28 59l11 28l29 40l10 36l21 30l9 21l9 15l14 33l23 22l36 3l33 -8l57 -35l24 -4l25 -13l-7 -23l-9 -21l-41 -68l-44 -106l-8 -19l-6 -23l-20 -25l-18 -23l-23 11l-57 11 l-54 28h-27l-8 9z" />
<glyph unicode="&#xce;" horiz-adv-x="671" d="M47 148l4 15l4 27l8 8l27 4l19 10l23 -6h86v97l3 15v58l-3 20v101l3 11v62l-3 20v96l3 16v58l-3 23v97l3 12v62l-3 19v97l6 25l-148 7l-21 10l-4 43v148l19 19h524l17 -17l8 -26l-8 -33l8 -44l-8 -31l7 -43l-21 -32l-146 6l-5 -5v-895h27l20 10l23 -6l82 -4l19 -19v-66 l-6 -22l8 -44l-6 -23v-31l-11 -11l-160 -7l-46 6l-107 -4l-89 4l-109 -4l-22 5l-18 18v117zM104 1430l25 58l9 27l26 39l9 35l18 30l8 20l8 15l12 32l23 7l24 12l34 -8h108l44 -8l65 -161l27 -44l8 -23l15 -31v-16l-15 -15l-31 -16l-24 -4l-88 -23h-20l-17 9l-22 53l-6 19 h-14l-7 -19l-5 -23l-18 -24l-16 -23l-23 12l-58 11l-54 28h-27l-10 9z" />
<glyph unicode="&#xcf;" horiz-adv-x="671" d="M38 1481l13 26l7 31l39 39l31 15h78l31 -15l30 -30l24 -57v-37l-8 -24l-4 -15l-19 -19l-18 -30l-67 -17h-24l-33 7l-65 64zM47 148l4 15l4 27l8 8l27 4l19 10l23 -6h86v97l3 15v58l-3 20v101l3 11v62l-3 20v96l3 16v58l-3 23v97l3 12v62l-3 19v97l6 25l-148 7l-21 10 l-4 43v148l19 19h524l17 -17l8 -26l-8 -33l8 -44l-8 -31l7 -43l-21 -32l-146 6l-5 -5v-895h27l20 10l23 -6l82 -4l19 -19v-66l-6 -22l8 -44l-6 -23v-31l-11 -11l-160 -7l-46 6l-107 -4l-89 4l-109 -4l-22 5l-18 18v117zM379 1481l13 26l7 31l39 39l31 15h78l31 -15l30 -30 l24 -57v-37l-8 -24l-4 -15l-19 -19l-18 -30l-67 -17h-24l-33 7l-65 64z" />
<glyph unicode="&#xd0;" horiz-adv-x="800" d="M16 544v20l4 15v156l89 13l25 -2l3 17v89l-4 23v59l4 19v89l-4 23v59l4 23v89l-6 32l10 40l11 5l28 4l19 4h93l58 -11l62 -16l28 -5l42 -18l19 -7l31 -20l31 -16l81 -81l47 -89l8 -27l20 -51l7 -35v-15l12 -35l11 -116l4 -24l-6 -30l6 -36v-62l4 -72l-8 -17v-54l-11 -109 l-12 -23v-39l-25 -50l-9 -35l-32 -50l-19 -23l-27 -40l-39 -26l-41 -37l-60 -21l-37 -23l-48 -5l-20 -11h-38l-39 -8h-132l-23 23v78l-4 23v58l4 20v89l-4 23v62l4 19v89l-4 24v29h-94zM342 343l4 -18v-108h16l34 8l28 19l23 11l12 20l21 26l29 67l8 38l7 24l6 103l6 25v89 l-5 30l5 81l-4 17l-4 64l-14 42l-5 33l-16 47l-15 31l-4 15l-12 25l-58 43l-27 14h-30l-5 -168l5 -25l-5 -150h12l30 6h62l38 -9l8 -17l-8 -23l5 -25v-139l-16 -8h-34l-16 -4h-79l3 -14z" />
<glyph unicode="&#xd1;" horiz-adv-x="922" d="M50 43v147l5 19l-5 24v151l5 19l-5 24v147l5 19l-5 24v151l5 15l-5 24v151l5 19l-5 23v152l5 16l-5 22v119l25 17h177l23 -12l15 -31l15 -24l9 -26l42 -89l10 -28l24 -42l22 -55l27 -43l10 -30l35 -77l8 -20l42 -85l12 -31l16 -31l10 -31l28 -43l16 -46l15 -27l20 -39v66 l6 51l-6 22v121l5 48l-5 21v120l6 52l-6 22v120l5 48l-6 32l5 71l15 16h178l16 -15l4 -78l4 -23l-10 -31l6 -31v-109l4 -26l-11 -22l7 -33v-109l4 -23l-11 -31l7 -27v-113l4 -26l-11 -22l7 -33v-109l4 -25l-11 -28l7 -32v-108l5 -25l-12 -23l7 -34v-108l4 -26l-8 -21v-40 l-21 -14h-68l-27 4h-82l-15 15l-20 39l-3 16l-20 38l-8 24l-23 46l-4 12l-23 46l-8 27l-54 109l-10 24l-22 34l-11 31l-42 89l-10 32l-33 56l-19 52l-40 80l-29 79l-15 -59l6 -65v-55l5 -23l-10 -51l5 -65v-54l5 -21l-10 -54l5 -61v-54l5 -24l-10 -51l5 -61v-58l6 -21 l-6 -22l-4 -29l-11 -21l-47 -4l-31 4h-97l-15 8l-4 31zM132 1377l6 122l11 16l9 38l43 57l50 32l50 12h58l43 -8l46 -27l39 -27l27 -15l32 -24h38l18 38l6 37l18 18h62l16 -3h66l11 -12l9 -35l-5 -54l-4 -12l-6 -51l-32 -50l-18 -28l-37 -28l-23 -6l-65 -21l-24 6l-52 5 l-37 18l-24 16l-38 19l-24 23l-34 24h-31l-16 -16v-43l-8 -23l-11 -11l-88 -10l-63 6z" />
<glyph unicode="&#xd2;" d="M43 527v124l4 19v78l12 58l6 76l13 24l4 31l21 86l25 50l9 27l26 47l23 23l5 26l27 16l16 23l18 13l38 32l20 10l35 12l49 19h87l31 -8l35 -5l43 -22l73 -54l39 -70l20 -30l19 -43l15 -47l10 -24l10 -53v-24l21 -64l-6 -25l11 -41l5 -98l5 -34l-5 -28v-78l-4 -31v-50 l-12 -24v-46l-8 -31l-7 -16l-9 -57l-11 -28l-8 -27l-7 -15l-12 -35l-12 -20l-17 -39l-33 -42l-15 -23l-35 -35l-33 -17l-15 -22l-39 -5l-18 -18l-47 -4l-15 -4h-81l-20 4l-39 6l-54 29l-35 27l-23 15l-31 31l-15 24l-27 35l-4 23l-35 68l-16 87l-6 27l-9 70l-4 23v31z M243 1538v20l23 46l32 32l29 51l33 16l42 -37l77 -50l70 -54l39 -24l14 -13l7 -23l-25 -45l-23 -27l-41 -61l-22 -11l-24 8l-37 37l-70 42l-23 16l-35 30l-44 25zM268 511l11 -58l4 -47l10 -29l7 -33l10 -27l8 -27l16 -31l29 -29l17 -6l31 -15h20l31 15l42 43l29 58l14 54 l12 24v31l3 19l4 31l4 23l4 39l7 35l-9 35l6 23v140l-8 23l-4 46l-4 16l-7 56l-12 37l-8 31l-14 35l-28 47l-23 17l-25 8l-45 -18l-47 -46l-15 -39l-15 -20l-9 -35l-7 -19l-4 -19l-12 -27l-4 -55l-8 -31v-19l-7 -31v-93l-4 -23v-109z" />
<glyph unicode="&#xd3;" d="M43 527v124l4 19v78l12 58l6 76l13 24l4 31l21 86l25 50l9 27l26 47l23 23l5 26l27 16l16 23l18 13l38 32l20 10l35 12l49 19h87l31 -8l35 -5l43 -22l73 -54l39 -70l20 -30l19 -43l15 -47l10 -24l10 -53v-24l21 -64l-6 -25l11 -41l5 -98l5 -34l-5 -28v-78l-4 -31v-50 l-12 -24v-46l-8 -31l-7 -16l-9 -57l-11 -28l-8 -27l-7 -15l-12 -35l-12 -20l-17 -39l-33 -42l-15 -23l-35 -35l-33 -17l-15 -22l-39 -5l-18 -18l-47 -4l-15 -4h-81l-20 4l-39 6l-54 29l-35 27l-23 15l-31 31l-15 24l-27 35l-4 23l-35 68l-16 87l-6 27l-9 70l-4 23v31z M254 1429l28 59l11 28l29 40l10 36l21 30l9 21l9 15l14 33l23 22l36 3l33 -8l57 -35l24 -4l25 -13l-7 -23l-9 -21l-41 -68l-44 -106l-8 -19l-6 -23l-20 -25l-18 -23l-23 11l-57 11l-54 28h-27l-8 9zM268 511l11 -58l4 -47l10 -29l7 -33l10 -27l8 -27l16 -31l29 -29l17 -6 l31 -15h20l31 15l42 43l29 58l14 54l12 24v31l3 19l4 31l4 23l4 39l7 35l-9 35l6 23v140l-8 23l-4 46l-4 16l-7 56l-12 37l-8 31l-14 35l-28 47l-23 17l-25 8l-45 -18l-47 -46l-15 -39l-15 -20l-9 -35l-7 -19l-4 -19l-12 -27l-4 -55l-8 -31v-19l-7 -31v-93l-4 -23v-109z" />
<glyph unicode="&#xd4;" d="M43 527v124l4 19v78l12 58l6 76l13 24l4 31l21 86l25 50l9 27l26 47l23 23l5 26l27 16l16 23l18 13l38 32l20 10l35 12l49 19h87l31 -8l35 -5l43 -22l73 -54l39 -70l20 -30l19 -43l15 -47l10 -24l10 -53v-24l21 -64l-6 -25l11 -41l5 -98l5 -34l-5 -28v-78l-4 -31v-50 l-12 -24v-46l-8 -31l-7 -16l-9 -57l-11 -28l-8 -27l-7 -15l-12 -35l-12 -20l-17 -39l-33 -42l-15 -23l-35 -35l-33 -17l-15 -22l-39 -5l-18 -18l-47 -4l-15 -4h-81l-20 4l-39 6l-54 29l-35 27l-23 15l-31 31l-15 24l-27 35l-4 23l-35 68l-16 87l-6 27l-9 70l-4 23v31z M195 1430l25 58l9 27l26 39l9 35l18 30l8 20l8 15l12 32l23 7l24 12l34 -8h108l44 -8l65 -161l27 -44l8 -23l15 -31v-16l-15 -15l-31 -16l-24 -4l-88 -23h-20l-17 9l-22 53l-6 19h-14l-7 -19l-5 -23l-18 -24l-16 -23l-23 12l-58 11l-54 28h-27l-10 9zM268 511l11 -58l4 -47 l10 -29l7 -33l10 -27l8 -27l16 -31l29 -29l17 -6l31 -15h20l31 15l42 43l29 58l14 54l12 24v31l3 19l4 31l4 23l4 39l7 35l-9 35l6 23v140l-8 23l-4 46l-4 16l-7 56l-12 37l-8 31l-14 35l-28 47l-23 17l-25 8l-45 -18l-47 -46l-15 -39l-15 -20l-9 -35l-7 -19l-4 -19l-12 -27 l-4 -55l-8 -31v-19l-7 -31v-93l-4 -23v-109z" />
<glyph unicode="&#xd5;" d="M43 527v124l4 19v78l12 58l6 76l13 24l4 31l21 86l25 50l9 27l26 47l23 23l5 26l27 16l16 23l18 13l38 32l20 10l35 12l49 19h87l31 -8l35 -5l43 -22l73 -54l39 -70l20 -30l19 -43l15 -47l10 -24l10 -53v-24l21 -64l-6 -25l11 -41l5 -98l5 -34l-5 -28v-78l-4 -31v-50 l-12 -24v-46l-8 -31l-7 -16l-9 -57l-11 -28l-8 -27l-7 -15l-12 -35l-12 -20l-17 -39l-33 -42l-15 -23l-35 -35l-33 -17l-15 -22l-39 -5l-18 -18l-47 -4l-15 -4h-81l-20 4l-39 6l-54 29l-35 27l-23 15l-31 31l-15 24l-27 35l-4 23l-35 68l-16 87l-6 27l-9 70l-4 23v31z M97 1377l6 122l11 16l9 38l43 57l50 32l50 12h58l43 -8l46 -27l39 -27l27 -15l32 -24h38l18 38l6 37l18 18h62l16 -3h66l11 -12l9 -35l-5 -54l-4 -12l-6 -51l-32 -50l-18 -28l-37 -28l-23 -6l-65 -21l-24 6l-52 5l-37 18l-24 16l-38 19l-24 23l-34 24h-31l-16 -16v-43 l-8 -23l-11 -11l-88 -10l-63 6zM268 511l11 -58l4 -47l10 -29l7 -33l10 -27l8 -27l16 -31l29 -29l17 -6l31 -15h20l31 15l42 43l29 58l14 54l12 24v31l3 19l4 31l4 23l4 39l7 35l-9 35l6 23v140l-8 23l-4 46l-4 16l-7 56l-12 37l-8 31l-14 35l-28 47l-23 17l-25 8l-45 -18 l-47 -46l-15 -39l-15 -20l-9 -35l-7 -19l-4 -19l-12 -27l-4 -55l-8 -31v-19l-7 -31v-93l-4 -23v-109z" />
<glyph unicode="&#xd6;" d="M43 527v124l4 19v78l12 58l6 76l13 24l4 31l21 86l25 50l9 27l26 47l23 23l5 26l27 16l16 23l18 13l38 32l20 10l35 12l49 19h87l31 -8l35 -5l43 -22l73 -54l39 -70l20 -30l19 -43l15 -47l10 -24l10 -53v-24l21 -64l-6 -25l11 -41l5 -98l5 -34l-5 -28v-78l-4 -31v-50 l-12 -24v-46l-8 -31l-7 -16l-9 -57l-11 -28l-8 -27l-7 -15l-12 -35l-12 -20l-17 -39l-33 -42l-15 -23l-35 -35l-33 -17l-15 -22l-39 -5l-18 -18l-47 -4l-15 -4h-81l-20 4l-39 6l-54 29l-35 27l-23 15l-31 31l-15 24l-27 35l-4 23l-35 68l-16 87l-6 27l-9 70l-4 23v31z M129 1481l13 26l7 31l39 39l31 15h78l31 -15l30 -30l24 -57v-37l-8 -24l-4 -15l-19 -19l-18 -30l-67 -17h-24l-33 7l-65 64zM268 511l11 -58l4 -47l10 -29l7 -33l10 -27l8 -27l16 -31l29 -29l17 -6l31 -15h20l31 15l42 43l29 58l14 54l12 24v31l3 19l4 31l4 23l4 39l7 35 l-9 35l6 23v140l-8 23l-4 46l-4 16l-7 56l-12 37l-8 31l-14 35l-28 47l-23 17l-25 8l-45 -18l-47 -46l-15 -39l-15 -20l-9 -35l-7 -19l-4 -19l-12 -27l-4 -55l-8 -31v-19l-7 -31v-93l-4 -23v-109zM470 1481l13 26l7 31l39 39l31 15h78l31 -15l30 -30l24 -57v-37l-8 -24 l-4 -15l-19 -19l-18 -30l-67 -17h-24l-33 7l-65 64z" />
<glyph unicode="&#xd7;" horiz-adv-x="616" d="M40 568l11 21l120 120h23l31 -23l84 -80l18 9l9 17l28 21l13 24l26 17l21 15h22l128 -132v-23l-105 -105v-7l101 -101v-23l-8 -12l-12 -26l-31 -18l-12 -25l-25 -12l-18 -31l-46 -15l-49 50l-41 46l-20 13l-106 -106h-31l-127 131l15 43l11 12l24 14l14 22l21 14l17 28 l-14 19l-81 81z" />
<glyph unicode="&#xd8;" d="M43 527v124l4 19v78l12 58l6 76l13 24l4 31l21 86l25 50l9 27l26 47l23 23l5 26l27 16l16 23l18 13l38 32l20 10l35 12l49 19h87l31 -8l21 -3l192 12l25 -12l6 -19l-8 -23l-5 -22l-14 -33l-12 -42l-8 -20l13 -19l19 -43l15 -47l10 -24l10 -53v-24l21 -64l-6 -25l11 -41 l5 -98l5 -34l-5 -28v-78l-4 -31v-50l-12 -24v-46l-8 -31l-7 -16l-9 -57l-11 -28l-8 -27l-7 -15l-12 -35l-12 -20l-17 -39l-33 -42l-15 -23l-35 -35l-33 -17l-15 -22l-39 -5l-18 -18l-47 -4l-15 -4h-81l-20 4l-38 6l-10 -10l-28 -7l-56 4h-97l-23 12v42l17 44l14 20v34l6 10 l-9 12l-4 23l-35 68l-16 87l-6 27l-9 70l-4 23v31zM268 524l5 34l29 64l14 67l21 29v37l18 24l6 31l11 31l12 35l11 28l4 26l24 47l3 35l16 31l13 48l-10 4l-45 -18l-47 -46l-15 -39l-15 -20l-9 -35l-7 -19l-4 -19l-12 -27l-4 -55l-8 -31v-19l-7 -31v-93l-4 -23v-96z M392 218l19 -9h20l31 15l42 43l29 58l14 54l12 24v31l3 19l4 31l4 23l4 39l7 35l-9 35l6 23v122l-8 -17l-10 -38l-13 -27l-4 -24l-12 -27l-35 -104l-4 -28l-13 -13l-6 -29l-12 -27l-7 -35l-30 -77l-9 -36l-8 -19l-8 -27z" />
<glyph unicode="&#xd9;" horiz-adv-x="779" d="M47 845l4 16v178l6 23l-6 40l4 88v43l5 20l-6 38l7 23l25 12h151l29 -10l6 -17v-78l-4 -38v-140l2 -56l-6 -223l4 -81v-152l8 -46l4 -82l3 -19l4 -35l8 -31l5 -27l60 -89h24l16 8h23l23 23l30 71l9 14l4 47l4 11l16 129l-7 37l10 32v124l-6 32l7 27l-5 175l4 22l-4 132 l-6 31l6 31l-4 163l41 17l153 -6l18 -18l5 -21v-54l5 -39l-5 -22l4 -82v-237l5 -40l-5 -26v-267l-7 -39v-50l-4 -16l-8 -97l-12 -23l-4 -45l-14 -35l-5 -21l-12 -23l-22 -50l-18 -18l-18 -29l-25 -15l-11 -23l-26 -5l-27 -23l-112 -25l-70 6l-105 35l-31 31l-7 11l-31 39 l-12 20l-30 39l-5 26l-27 82l-4 27l-4 15l-11 124l-4 28v35l-8 38v237zM206 1538v20l23 46l32 32l29 51l33 16l42 -37l77 -50l70 -54l39 -24l14 -13l7 -23l-25 -45l-23 -27l-41 -61l-22 -11l-24 8l-37 37l-70 42l-23 16l-35 30l-44 25z" />
<glyph unicode="&#xda;" horiz-adv-x="779" d="M47 845l4 16v178l6 23l-6 40l4 88v43l5 20l-6 38l7 23l25 12h151l29 -10l6 -17v-78l-4 -38v-140l2 -56l-6 -223l4 -81v-152l8 -46l4 -82l3 -19l4 -35l8 -31l5 -27l60 -89h24l16 8h23l23 23l30 71l9 14l4 47l4 11l16 129l-7 37l10 32v124l-6 32l7 27l-5 175l4 22l-4 132 l-6 31l6 31l-4 163l41 17l153 -6l18 -18l5 -21v-54l5 -39l-5 -22l4 -82v-237l5 -40l-5 -26v-267l-7 -39v-50l-4 -16l-8 -97l-12 -23l-4 -45l-14 -35l-5 -21l-12 -23l-22 -50l-18 -18l-18 -29l-25 -15l-11 -23l-26 -5l-27 -23l-112 -25l-70 6l-105 35l-31 31l-7 11l-31 39 l-12 20l-30 39l-5 26l-27 82l-4 27l-4 15l-11 124l-4 28v35l-8 38v237zM208 1420l28 59l11 28l29 40l10 36l21 30l9 21l9 15l14 33l23 22l36 3l33 -8l57 -35l24 -4l25 -13l-7 -23l-9 -21l-41 -68l-44 -106l-8 -19l-6 -23l-20 -25l-18 -23l-23 11l-57 11l-54 28h-27l-8 9z " />
<glyph unicode="&#xdb;" horiz-adv-x="779" d="M47 845l4 16v178l6 23l-6 40l4 88v43l5 20l-6 38l7 23l25 12h151l29 -10l6 -17v-78l-4 -38v-140l2 -56l-6 -223l4 -81v-152l8 -46l4 -82l3 -19l4 -35l8 -31l5 -27l60 -89h24l16 8h23l23 23l30 71l9 14l4 47l4 11l16 129l-7 37l10 32v124l-6 32l7 27l-5 175l4 22l-4 132 l-6 31l6 31l-4 163l41 17l153 -6l18 -18l5 -21v-54l5 -39l-5 -22l4 -82v-237l5 -40l-5 -26v-267l-7 -39v-50l-4 -16l-8 -97l-12 -23l-4 -45l-14 -35l-5 -21l-12 -23l-22 -50l-18 -18l-18 -29l-25 -15l-11 -23l-26 -5l-27 -23l-112 -25l-70 6l-105 35l-31 31l-7 11l-31 39 l-12 20l-30 39l-5 26l-27 82l-4 27l-4 15l-11 124l-4 28v35l-8 38v237zM158 1430l25 58l9 27l26 39l9 35l18 30l8 20l8 15l12 32l23 7l24 12l34 -8h108l44 -8l65 -161l27 -44l8 -23l15 -31v-16l-15 -15l-31 -16l-24 -4l-88 -23h-20l-17 9l-22 53l-6 19h-14l-7 -19l-5 -23 l-18 -24l-16 -23l-23 12l-58 11l-54 28h-27l-10 9z" />
<glyph unicode="&#xdc;" horiz-adv-x="779" d="M47 845l4 16v178l6 23l-6 40l4 88v43l5 20l-6 38l7 23l25 12h151l29 -10l6 -17v-78l-4 -38v-140l2 -56l-6 -223l4 -81v-152l8 -46l4 -82l3 -19l4 -35l8 -31l5 -27l60 -89h24l16 8h23l23 23l30 71l9 14l4 47l4 11l16 129l-7 37l10 32v124l-6 32l7 27l-5 175l4 22l-4 132 l-6 31l6 31l-4 163l41 17l153 -6l18 -18l5 -21v-54l5 -39l-5 -22l4 -82v-237l5 -40l-5 -26v-267l-7 -39v-50l-4 -16l-8 -97l-12 -23l-4 -45l-14 -35l-5 -21l-12 -23l-22 -50l-18 -18l-18 -29l-25 -15l-11 -23l-26 -5l-27 -23l-112 -25l-70 6l-105 35l-31 31l-7 11l-31 39 l-12 20l-30 39l-5 26l-27 82l-4 27l-4 15l-11 124l-4 28v35l-8 38v237zM92 1481l13 26l7 31l39 39l31 15h78l31 -15l30 -30l24 -57v-37l-8 -24l-4 -15l-19 -19l-18 -30l-67 -17h-24l-33 7l-65 64zM433 1481l13 26l7 31l39 39l31 15h78l31 -15l30 -30l24 -57v-37l-8 -24 l-4 -15l-19 -19l-18 -30l-67 -17h-24l-33 7l-65 64z" />
<glyph unicode="&#xdd;" horiz-adv-x="740" d="M34 1297l5 12l49 19l25 -5l136 -4l22 -23l16 -54l15 -35l4 -20l16 -35l4 -31l19 -42l25 -76l6 6l5 25l22 49l5 35l15 23l6 31l28 72l14 62l14 13h151l29 9l13 -5l24 -23v-17l-19 -49l-5 -20l-16 -38l-11 -43l-11 -23l-8 -35l-16 -23l-3 -35l-35 -89l-4 -16l-12 -39 l-4 -15l-11 -23l-5 -26l-15 -29l-10 -42l-26 -68l-6 -33v-70l-5 -49l8 -105l-8 -89l8 -103l-8 -87l5 -63v-71l-28 -18h-131l-17 -4l-46 9l-11 34v135l4 151l-4 28v317l-4 12l-4 31l-15 35l-8 23l-22 59l-6 35l-21 47l-8 33l-24 55l-7 31l-29 68l-7 37l-11 27l-8 42z M203 1429l28 59l11 28l29 40l10 36l21 30l9 21l9 15l14 33l23 22l36 3l33 -8l57 -35l24 -4l25 -13l-7 -23l-9 -21l-41 -68l-44 -106l-8 -19l-6 -23l-20 -25l-18 -23l-23 11l-57 11l-54 28h-27l-8 9z" />
<glyph unicode="&#xde;" horiz-adv-x="694" d="M47 327l7 20v143l-6 28l6 23v143l-7 27l7 19v144l-6 29l6 17v148l-7 26l7 20v144l-6 31l21 34h47l23 8l20 -4l81 -4l15 -10l5 -62l-5 -28l6 -46l-7 -29l5 -42l31 -3l62 -12l31 -4l27 -12l52 -17l86 -47l29 -36l35 -39l31 -62l8 -43l15 -62v-97l-7 -31l-5 -47l-15 -30 l-4 -23l-23 -47l-12 -16l-19 -38l-31 -31l-20 -14l-7 -13l-20 -20l-15 -8l-23 -17l-27 -14l-20 -19l-34 -4l-23 -17l-102 -22v-50l-4 -23l5 -90l-5 -26l7 -52l-26 -26h-132l-15 4l-28 5l-7 22v81l-6 29l6 18v147zM254 647l7 -42l-6 -34l4 -65h38l32 19l29 12l34 22l18 28 l31 62v97l-13 41l-32 54l-58 36l-79 10v-25l-5 -25l7 -40l-6 -31l5 -90z" />
<glyph unicode="&#xdf;" horiz-adv-x="705" d="M50 11v1027l4 16l4 31l16 72l23 29l22 39l24 15l16 16l42 19l39 8h89l29 -10l55 -11l83 -41l59 -60l12 -30l31 -46l18 -84v-98l-16 -47l-34 -70l-20 -23l-8 -15l-27 -16l-21 -30l38 -21l49 -50l35 -53l16 -40l9 -18l14 -51l4 -35l11 -41v-72l-7 -23l-4 -23l-10 -23 l-6 -31l-11 -20l-16 -31l-15 -19l-18 -29l-13 -14l-29 -33l-26 -17l-31 -27l-25 -10l-21 -16l-43 -11l-35 -18h-39l-51 7l-3 214h35l28 5l71 47l34 60l10 47l-12 75l-37 74l-44 30l-23 17l-39 10h-23v255h17l26 16l27 12l27 27l16 31l15 23l10 20l-6 30v43l-37 37l-41 13 h-34l-12 -11l-12 -29l-10 -120l-6 -75l-6 -875l9 -27l-18 -6h-147l-27 14z" />
<glyph unicode="&#xe0;" horiz-adv-x="857" d="M35 12v27l11 28l12 65l4 16l4 27l16 41v40l11 23l5 33l7 14l4 42l11 29l4 41l14 41l13 68l4 31l8 23l4 19l13 55l6 46l14 28l6 64l11 17l4 42l4 12l19 77l4 35l4 16l4 19l12 24v27l7 27l27 124l4 27l12 27v12l8 15l19 4l25 12l29 -8h113l21 -21l10 -29l4 -24l4 -15l4 -36 l14 -29l9 -79l19 -58v-31l10 -29l6 -29l19 -77v-16l8 -31l4 -27l19 -70l4 -35l11 -27l11 -69l20 -70l4 -35l20 -70l4 -30l11 -28l5 -46l11 -43l4 -20l14 -42l-9 -17l18 -43l19 -91l4 -24l5 -20l-9 -18l-31 -16h-39l-19 4h-81l-31 10l-20 45v38l-23 70v27l-4 19l-4 27l-7 20 l-19 99l-13 36h-112l-35 -4h-40l-6 -11l-4 -39l-12 -23v-23l-31 -136l-4 -8l-4 -46l-13 -27l-9 -61l-42 -17h-44l-35 8l-15 -4h-51l-22 11zM245 1544v20l23 46l32 32l29 51l33 16l42 -37l77 -50l70 -54l39 -24l14 -13l7 -23l-25 -45l-23 -27l-41 -61l-22 -11l-24 8l-37 37 l-70 42l-23 16l-35 30l-44 25zM380 589h19l12 4l62 5l-16 46l-3 23l-8 31l-4 27l-8 27l-7 42l-8 -26l-8 -20l-4 -35l-17 -69l-6 -47z" />
<glyph unicode="&#xe1;" horiz-adv-x="857" d="M35 12v27l11 28l12 65l4 16l4 27l16 41v40l11 23l5 33l7 14l4 42l11 29l4 41l14 41l13 68l4 31l8 23l4 19l13 55l6 46l14 28l6 64l11 17l4 42l4 12l19 77l4 35l4 16l4 19l12 24v27l7 27l27 124l4 27l12 27v12l8 15l19 4l25 12l29 -8h113l21 -21l10 -29l4 -24l4 -15l4 -36 l14 -29l9 -79l19 -58v-31l10 -29l6 -29l19 -77v-16l8 -31l4 -27l19 -70l4 -35l11 -27l11 -69l20 -70l4 -35l20 -70l4 -30l11 -28l5 -46l11 -43l4 -20l14 -42l-9 -17l18 -43l19 -91l4 -24l5 -20l-9 -18l-31 -16h-39l-19 4h-81l-31 10l-20 45v38l-23 70v27l-4 19l-4 27l-7 20 l-19 99l-13 36h-112l-35 -4h-40l-6 -11l-4 -39l-12 -23v-23l-31 -136l-4 -8l-4 -46l-13 -27l-9 -61l-42 -17h-44l-35 8l-15 -4h-51l-22 11zM311 1429l28 59l11 28l29 40l10 36l21 30l9 21l9 15l14 33l23 22l36 3l33 -8l57 -35l24 -4l25 -13l-7 -23l-9 -21l-41 -68l-44 -106 l-8 -19l-6 -23l-20 -25l-18 -23l-23 11l-57 11l-54 28h-27l-8 9zM380 589h19l12 4l62 5l-16 46l-3 23l-8 31l-4 27l-8 27l-7 42l-8 -26l-8 -20l-4 -35l-17 -69l-6 -47z" />
<glyph unicode="&#xe2;" horiz-adv-x="857" d="M35 12v27l11 28l12 65l4 16l4 27l16 41v40l11 23l5 33l7 14l4 42l11 29l4 41l14 41l13 68l4 31l8 23l4 19l13 55l6 46l14 28l6 64l11 17l4 42l4 12l19 77l4 35l4 16l4 19l12 24v27l7 27l27 124l4 27l12 27v12l8 15l19 4l25 12l29 -8h113l21 -21l10 -29l4 -24l4 -15l4 -36 l14 -29l9 -79l19 -58v-31l10 -29l6 -29l19 -77v-16l8 -31l4 -27l19 -70l4 -35l11 -27l11 -69l20 -70l4 -35l20 -70l4 -30l11 -28l5 -46l11 -43l4 -20l14 -42l-9 -17l18 -43l19 -91l4 -24l5 -20l-9 -18l-31 -16h-39l-19 4h-81l-31 10l-20 45v38l-23 70v27l-4 19l-4 27l-7 20 l-19 99l-13 36h-112l-35 -4h-40l-6 -11l-4 -39l-12 -23v-23l-31 -136l-4 -8l-4 -46l-13 -27l-9 -61l-42 -17h-44l-35 8l-15 -4h-51l-22 11zM197 1436l25 58l9 27l26 39l9 35l18 30l8 20l8 15l12 32l23 7l24 12l34 -8h108l44 -8l65 -161l27 -44l8 -23l15 -31v-16l-15 -15 l-31 -16l-24 -4l-88 -23h-20l-17 9l-22 53l-6 19h-14l-7 -19l-5 -23l-18 -24l-16 -23l-23 12l-58 11l-54 28h-27l-10 9zM380 589h19l12 4l62 5l-16 46l-3 23l-8 31l-4 27l-8 27l-7 42l-8 -26l-8 -20l-4 -35l-17 -69l-6 -47z" />
<glyph unicode="&#xe3;" horiz-adv-x="857" d="M35 12v27l11 28l12 65l4 16l4 27l16 41v40l11 23l5 33l7 14l4 42l11 29l4 41l14 41l13 68l4 31l8 23l4 19l13 55l6 46l14 28l6 64l11 17l4 42l4 12l19 77l4 35l4 16l4 19l12 24v27l7 27l27 124l4 27l12 27v12l8 15l19 4l25 12l29 -8h113l21 -21l10 -29l4 -24l4 -15l4 -36 l14 -29l9 -79l19 -58v-31l10 -29l6 -29l19 -77v-16l8 -31l4 -27l19 -70l4 -35l11 -27l11 -69l20 -70l4 -35l20 -70l4 -30l11 -28l5 -46l11 -43l4 -20l14 -42l-9 -17l18 -43l19 -91l4 -24l5 -20l-9 -18l-31 -16h-39l-19 4h-81l-31 10l-20 45v38l-23 70v27l-4 19l-4 27l-7 20 l-19 99l-13 36h-112l-35 -4h-40l-6 -11l-4 -39l-12 -23v-23l-31 -136l-4 -8l-4 -46l-13 -27l-9 -61l-42 -17h-44l-35 8l-15 -4h-51l-22 11zM99 1383l6 122l11 16l9 38l43 57l50 32l50 12h58l43 -8l46 -27l39 -27l27 -15l32 -24h38l18 38l6 37l18 18h62l16 -3h66l11 -12 l9 -35l-5 -54l-4 -12l-6 -51l-32 -50l-18 -28l-37 -28l-23 -6l-65 -21l-24 6l-52 5l-37 18l-24 16l-38 19l-24 23l-34 24h-31l-16 -16v-43l-8 -23l-11 -11l-88 -10l-63 6zM380 589h19l12 4l62 5l-16 46l-3 23l-8 31l-4 27l-8 27l-7 42l-8 -26l-8 -20l-4 -35l-17 -69l-6 -47z " />
<glyph unicode="&#xe4;" horiz-adv-x="857" d="M35 12v27l11 28l12 65l4 16l4 27l16 41v40l11 23l5 33l7 14l4 42l11 29l4 41l14 41l13 68l4 31l8 23l4 19l13 55l6 46l14 28l6 64l11 17l4 42l4 12l19 77l4 35l4 16l4 19l12 24v27l7 27l27 124l4 27l12 27v12l8 15l19 4l25 12l29 -8h113l21 -21l10 -29l4 -24l4 -15l4 -36 l14 -29l9 -79l19 -58v-31l10 -29l6 -29l19 -77v-16l8 -31l4 -27l19 -70l4 -35l11 -27l11 -69l20 -70l4 -35l20 -70l4 -30l11 -28l5 -46l11 -43l4 -20l14 -42l-9 -17l18 -43l19 -91l4 -24l5 -20l-9 -18l-31 -16h-39l-19 4h-81l-31 10l-20 45v38l-23 70v27l-4 19l-4 27l-7 20 l-19 99l-13 36h-112l-35 -4h-40l-6 -11l-4 -39l-12 -23v-23l-31 -136l-4 -8l-4 -46l-13 -27l-9 -61l-42 -17h-44l-35 8l-15 -4h-51l-22 11zM131 1487l13 26l7 31l39 39l31 15h78l31 -15l30 -30l24 -57v-37l-8 -24l-4 -15l-19 -19l-18 -30l-67 -17h-24l-33 7l-65 64zM380 589 h19l12 4l62 5l-16 46l-3 23l-8 31l-4 27l-8 27l-7 42l-8 -26l-8 -20l-4 -35l-17 -69l-6 -47zM472 1487l13 26l7 31l39 39l31 15h78l31 -15l30 -30l24 -57v-37l-8 -24l-4 -15l-19 -19l-18 -30l-67 -17h-24l-33 7l-65 64z" />
<glyph unicode="&#xe5;" horiz-adv-x="857" d="M35 12v27l11 28l12 65l4 16l4 27l16 41v40l11 23l5 33l7 14l4 42l11 29l4 41l14 41l13 68l4 31l8 23l4 19l13 55l6 46l14 28l6 64l11 17l4 42l4 12l19 77l4 35l4 16l4 19l12 24v27l7 27l27 124l4 27l12 27v12l8 15l19 4l25 12l29 -8h113l21 -21l10 -29l4 -24l4 -15l4 -36 l14 -29l9 -79l19 -58v-31l10 -29l6 -29l19 -77v-16l8 -31l4 -27l19 -70l4 -35l11 -27l11 -69l20 -70l4 -35l20 -70l4 -30l11 -28l5 -46l11 -43l4 -20l14 -42l-9 -17l18 -43l19 -91l4 -24l5 -20l-9 -18l-31 -16h-39l-19 4h-81l-31 10l-20 45v38l-23 70v27l-4 19l-4 27l-7 20 l-19 99l-13 36h-112l-35 -4h-40l-6 -11l-4 -39l-12 -23v-23l-31 -136l-4 -8l-4 -46l-13 -27l-9 -61l-42 -17h-44l-35 8l-15 -4h-51l-22 11zM265 1501l6 70l12 24l8 25l24 12l14 28l70 24h68l60 -25l36 -44l21 -43l7 -59l-11 -54l-23 -38l-26 -20l-35 -30l-51 -5l-26 -5 l-20 5l-34 5l-24 18l-44 29l-14 29zM380 589h19l12 4l62 5l-16 46l-3 23l-8 31l-4 27l-8 27l-7 42l-8 -26l-8 -20l-4 -35l-17 -69l-6 -47zM401 1514l9 -9l-2 1q6 -8 18 -8q2 0 12 4.5t13 16.5l-2 2q0 10 -6.5 16.5t-16.5 6.5q-8 0 -12 -3.5t-5.5 -8t-1 -9t1.5 -5.5l-1 1v-2z " />
<glyph unicode="&#xe6;" horiz-adv-x="1186" d="M28 23l11 26l8 23l15 35l14 43l21 46l17 54l13 21l7 29l21 51l12 35l13 22l6 25l57 142l6 25l18 46l16 19l4 37l15 22l5 24l34 84l12 35l23 50l8 39l14 15l5 24l13 26l6 32l16 25l8 33l23 46l18 64l23 39l6 43l44 22l29 -5h147l19 5l28 -5h147l19 5l24 -5h116l27 -8 l17 -16l-5 -41l4 -132l-23 -24h-303l-4 -23l-4 -19l5 -94l-6 -28l7 -40l-6 -32l5 -93l-6 -27l6 -31h54l92 -6l98 6l15 -8l16 -50v-140l-16 -15l-31 -16h-136l-33 9l-21 -9h-44l5 -35v-240h136l26 -5l83 7l73 -6l12 -23v-39l-4 -35v-108l-16 -16h-523l-8 8l-11 64v95l4 50 l-4 116v55h-78l-24 -5l-43 6l-41 -9l-12 -35l-19 -33l-20 -60l-27 -70l-8 -23l-15 -20l-4 -38l-15 -23l-12 -35l-16 -31l-23 -12h-151l-23 8zM473 595l31 -3h54l16 -4l-5 131l6 64l-6 48l-11 -34l-14 -21l-8 -31l-16 -27l-17 -57l-16 -21l-6 -25z" />
<glyph unicode="&#xe7;" horiz-adv-x="725" d="M39 554v151l23 170l12 24l6 44l21 49l8 31l19 39l16 27l23 46l43 51l11 15l39 39l23 15l47 37l35 10l58 19h54l33 11l37 -15l54 -7l39 -16l17 -6l14 -13v-35l-22 -44l-7 -33l-18 -36l-4 -26l-15 -20l-11 -16h-12l-52 26l-48 6l-36 -12l-22 -6l-15 -24l-28 -10l-12 -31 l-23 -15l-6 -36l-23 -23l-22 -88l-16 -46l-4 -51l-3 -11l-8 -101v-136l11 -46l4 -35l4 -12l16 -54l24 -49l62 -78l32 -15l54 -6l95 47h21l30 -50l15 -41l26 -36l5 -16l13 -32l-7 -15l-18 -11l-36 -32l-35 -18l-51 -10l-33 -16l-35 7l-30 -8l-59 10l-78 31l-65 41l-27 37 l-68 89l-10 28l-19 42l-37 116l-13 66l-4 27l-8 24v35zM324 -374l7 20v39l4 16l4 20l21 7l34 -7l18 14l37 5l7 14l-9 9l-31 15l-63 4l-19 10l-9 27l6 17v171h10l195 4l4 -90l29 -5l53 -53l16 -33l20 -68l-5 -27l-5 -45l-24 -46l-35 -44l-74 -48l-41 -6l-36 -16h-33l-20 4 h-44l-6 12l-4 46z" />
<glyph unicode="&#xe8;" horiz-adv-x="663" d="M48 163l6 79l-6 115l6 79l-6 110l6 81l-6 114l6 76l-6 113l6 81l-6 113l6 79l-4 79l4 21l15 15h86l21 11l33 -11h139l20 10l39 -10h131l16 8h15l33 -16l6 -19v-167l-11 -23l-108 -5l-33 5l-142 -4h-35v-35l4 -20l-4 -65v-105l4 -21l-6 -94l6 -51h81l100 4l71 -5l19 -19 v-66l6 -25l-6 -25l-4 -74l-16 -15h-23l-23 4h-54l-24 -4h-93l-34 7v-27l-4 -58v-108l4 -21l-5 -68h28l89 -5l19 5h144l15 -4l29 -6l6 -25v-166l-18 -23l-43 -6l-40 9l-19 -4h-78l-54 -5l-23 5h-116l-55 -5l-38 9l-16 -4h-39l-15 15v59zM148 1544v20l23 46l32 32l29 51l33 16 l42 -37l77 -50l70 -54l39 -24l14 -13l7 -23l-25 -45l-23 -27l-41 -61l-22 -11l-24 8l-37 37l-70 42l-23 16l-35 30l-44 25z" />
<glyph unicode="&#xe9;" horiz-adv-x="663" d="M48 163l6 79l-6 115l6 79l-6 110l6 81l-6 114l6 76l-6 113l6 81l-6 113l6 79l-4 79l4 21l15 15h86l21 11l33 -11h139l20 10l39 -10h131l16 8h15l33 -16l6 -19v-167l-11 -23l-108 -5l-33 5l-142 -4h-35v-35l4 -20l-4 -65v-105l4 -21l-6 -94l6 -51h81l100 4l71 -5l19 -19 v-66l6 -25l-6 -25l-4 -74l-16 -15h-23l-23 4h-54l-24 -4h-93l-34 7v-27l-4 -58v-108l4 -21l-5 -68h28l89 -5l19 5h144l15 -4l29 -6l6 -25v-166l-18 -23l-43 -6l-40 9l-19 -4h-78l-54 -5l-23 5h-116l-55 -5l-38 9l-16 -4h-39l-15 15v59zM167 1435l28 59l11 28l29 40l10 36 l21 30l9 21l9 15l14 33l23 22l36 3l33 -8l57 -35l24 -4l25 -13l-7 -23l-9 -21l-41 -68l-44 -106l-8 -19l-6 -23l-20 -25l-18 -23l-23 11l-57 11l-54 28h-27l-8 9z" />
<glyph unicode="&#xea;" horiz-adv-x="663" d="M48 163l6 79l-6 115l6 79l-6 110l6 81l-6 114l6 76l-6 113l6 81l-6 113l6 79l-4 79l4 21l15 15h86l21 11l33 -11h139l20 10l39 -10h131l16 8h15l33 -16l6 -19v-167l-11 -23l-108 -5l-33 5l-142 -4h-35v-35l4 -20l-4 -65v-105l4 -21l-6 -94l6 -51h81l100 4l71 -5l19 -19 v-66l6 -25l-6 -25l-4 -74l-16 -15h-23l-23 4h-54l-24 -4h-93l-34 7v-27l-4 -58v-108l4 -21l-5 -68h28l89 -5l19 5h144l15 -4l29 -6l6 -25v-166l-18 -23l-43 -6l-40 9l-19 -4h-78l-54 -5l-23 5h-116l-55 -5l-38 9l-16 -4h-39l-15 15v59zM100 1436l25 58l9 27l26 39l9 35 l18 30l8 20l8 15l12 32l23 7l24 12l34 -8h108l44 -8l65 -161l27 -44l8 -23l15 -31v-16l-15 -15l-31 -16l-24 -4l-88 -23h-20l-17 9l-22 53l-6 19h-14l-7 -19l-5 -23l-18 -24l-16 -23l-23 12l-58 11l-54 28h-27l-10 9z" />
<glyph unicode="&#xeb;" horiz-adv-x="663" d="M34 1487l13 26l7 31l39 39l31 15h78l31 -15l30 -30l24 -57v-37l-8 -24l-4 -15l-19 -19l-18 -30l-67 -17h-24l-33 7l-65 64zM48 163l6 79l-6 115l6 79l-6 110l6 81l-6 114l6 76l-6 113l6 81l-6 113l6 79l-4 79l4 21l15 15h86l21 11l33 -11h139l20 10l39 -10h131l16 8h15 l33 -16l6 -19v-167l-11 -23l-108 -5l-33 5l-142 -4h-35v-35l4 -20l-4 -65v-105l4 -21l-6 -94l6 -51h81l100 4l71 -5l19 -19v-66l6 -25l-6 -25l-4 -74l-16 -15h-23l-23 4h-54l-24 -4h-93l-34 7v-27l-4 -58v-108l4 -21l-5 -68h28l89 -5l19 5h144l15 -4l29 -6l6 -25v-166 l-18 -23l-43 -6l-40 9l-19 -4h-78l-54 -5l-23 5h-116l-55 -5l-38 9l-16 -4h-39l-15 15v59zM375 1487l13 26l7 31l39 39l31 15h78l31 -15l30 -30l24 -57v-37l-8 -24l-4 -15l-19 -19l-18 -30l-67 -17h-24l-33 7l-65 64z" />
<glyph unicode="&#xec;" horiz-adv-x="674" d="M49 24l5 65v90l9 19l18 4h85l22 -6l33 10v891h-144l-22 23l-6 62l5 59v54l9 18l10 5h74l19 10l39 -10h132l22 11l32 -11h140l19 10l58 -17l12 -24v-108l-8 -67l-15 -15h-148v-66l-4 -45l5 -135l-5 -59l5 -136l-6 -57l8 -106l-7 -88l8 -107l-10 -92l68 -4h39l16 -4h41 l13 -50v-132l-12 -24l-37 -15h-40l-31 8l-20 -4h-81l-55 -5l-23 5h-116l-54 -5l-37 9l-30 -7l-27 13zM154 1544v20l23 46l32 32l29 51l33 16l42 -37l77 -50l70 -54l39 -24l14 -13l7 -23l-25 -45l-23 -27l-41 -61l-22 -11l-24 8l-37 37l-70 42l-23 16l-35 30l-44 25z" />
<glyph unicode="&#xed;" horiz-adv-x="674" d="M49 24l5 65v90l9 19l18 4h85l22 -6l33 10v891h-144l-22 23l-6 62l5 59v54l9 18l10 5h74l19 10l39 -10h132l22 11l32 -11h140l19 10l58 -17l12 -24v-108l-8 -67l-15 -15h-148v-66l-4 -45l5 -135l-5 -59l5 -136l-6 -57l8 -106l-7 -88l8 -107l-10 -92l68 -4h39l16 -4h41 l13 -50v-132l-12 -24l-37 -15h-40l-31 8l-20 -4h-81l-55 -5l-23 5h-116l-54 -5l-37 9l-30 -7l-27 13zM172 1435l28 59l11 28l29 40l10 36l21 30l9 21l9 15l14 33l23 22l36 3l33 -8l57 -35l24 -4l25 -13l-7 -23l-9 -21l-41 -68l-44 -106l-8 -19l-6 -23l-20 -25l-18 -23 l-23 11l-57 11l-54 28h-27l-8 9z" />
<glyph unicode="&#xee;" horiz-adv-x="674" d="M49 24l5 65v90l9 19l18 4h85l22 -6l33 10v891h-144l-22 23l-6 62l5 59v54l9 18l10 5h74l19 10l39 -10h132l22 11l32 -11h140l19 10l58 -17l12 -24v-108l-8 -67l-15 -15h-148v-66l-4 -45l5 -135l-5 -59l5 -136l-6 -57l8 -106l-7 -88l8 -107l-10 -92l68 -4h39l16 -4h41 l13 -50v-132l-12 -24l-37 -15h-40l-31 8l-20 -4h-81l-55 -5l-23 5h-116l-54 -5l-37 9l-30 -7l-27 13zM105 1436l25 58l9 27l26 39l9 35l18 30l8 20l8 15l12 32l23 7l24 12l34 -8h108l44 -8l65 -161l27 -44l8 -23l15 -31v-16l-15 -15l-31 -16l-24 -4l-88 -23h-20l-17 9 l-22 53l-6 19h-14l-7 -19l-5 -23l-18 -24l-16 -23l-23 12l-58 11l-54 28h-27l-10 9z" />
<glyph unicode="&#xef;" horiz-adv-x="674" d="M40 1487l13 26l7 31l39 39l31 15h78l31 -15l30 -30l24 -57v-37l-8 -24l-4 -15l-19 -19l-18 -30l-67 -17h-24l-33 7l-65 64zM49 24l5 65v90l9 19l18 4h85l22 -6l33 10v891h-144l-22 23l-6 62l5 59v54l9 18l10 5h74l19 10l39 -10h132l22 11l32 -11h140l19 10l58 -17l12 -24 v-108l-8 -67l-15 -15h-148v-66l-4 -45l5 -135l-5 -59l5 -136l-6 -57l8 -106l-7 -88l8 -107l-10 -92l68 -4h39l16 -4h41l13 -50v-132l-12 -24l-37 -15h-40l-31 8l-20 -4h-81l-55 -5l-23 5h-116l-54 -5l-37 9l-30 -7l-27 13zM381 1487l13 26l7 31l39 39l31 15h78l31 -15 l30 -30l24 -57v-37l-8 -24l-4 -15l-19 -19l-18 -30l-67 -17h-24l-33 7l-65 64z" />
<glyph unicode="&#xf1;" horiz-adv-x="922" d="M48 7l7 79l-5 23v108l5 63l-5 19v108l5 63l-5 23v108l5 62l-5 19v113l5 59l-5 22v109l5 62l-5 19v109l5 61l-7 36l8 42l25 8h43l17 8l29 -8h89l31 -31l12 -35l15 -31l12 -29l22 -33l25 -66l42 -85l25 -63l27 -40l8 -33l43 -85l7 -30l22 -32l66 -132l13 -39l22 -38v42 l5 25l-7 41l6 27l-5 92l6 30l-7 46l6 25l-5 93l5 27l-6 45l6 25l-5 93l5 32l-6 43l6 23v81l15 8l27 4l20 8l31 -8h100l14 -14l6 -17v-1287l-23 -23h-86l-63 -6l-36 19l-17 30l-27 43l-8 30l-42 85l-4 24l-66 131l-8 20l-39 85l-11 31l-21 35l-25 62l-28 47l-11 36l-29 51 l-38 87l-15 31l-4 12h-4v-105l4 -73l-4 -12v-105l4 -73l-4 -16v-105l4 -72l-4 -13v-105l4 -73l-4 -16v-66l-19 -19h-62l-51 -5l-38 9h-33zM132 1383l6 122l11 16l9 38l43 57l50 32l50 12h58l43 -8l46 -27l39 -27l27 -15l32 -24h38l18 38l6 37l18 18h62l16 -3h66l11 -12 l9 -35l-5 -54l-4 -12l-6 -51l-32 -50l-18 -28l-37 -28l-23 -6l-65 -21l-24 6l-52 5l-37 18l-24 16l-38 19l-24 23l-34 24h-31l-16 -16v-43l-8 -23l-11 -11l-88 -10l-63 6z" />
<glyph unicode="&#xf2;" d="M43 524v155l4 23v66l8 23l4 39l3 19l8 66l20 47v38l19 24l6 35l48 89l40 58l69 62l85 42l46 8h24l25 13l37 -13l54 -8l47 -23l42 -39l30 -23l40 -66l12 -23l19 -33l8 -29l7 -23l5 -32l23 -50v-35l7 -23l4 -31l4 -23l4 -47l12 -69v-97l-4 -62v-54l-8 -39l-4 -31l-8 -27 l-4 -47l-11 -29v-25l-8 -20l-5 -28l-18 -27l-5 -37l-18 -28l-26 -50l-29 -35l-11 -15l-39 -39l-23 -16l-23 -18l-39 -17l-28 -3l-38 -16h-35l-26 5l-25 -6l-46 13l-27 11l-42 14l-50 37l-62 69l-32 55l-8 19l-19 39v23l-25 74l-6 38v43l-4 12zM243 1544v20l23 46l32 32 l29 51l33 16l42 -37l77 -50l70 -54l39 -24l14 -13l7 -23l-25 -45l-23 -27l-41 -61l-22 -11l-24 8l-37 37l-70 42l-23 16l-35 30l-44 25zM260 576l8 -29l4 -92l11 -44v-42l34 -75l33 -56l26 -19l36 -12l42 10l13 19l28 16l11 32l16 22l5 16l8 19l12 51l15 57v51l12 35v163 l4 19l-4 20l-8 112l-11 35v31l-36 109l-19 27l-35 35h-50l-31 -16l-8 -15l-31 -31l-4 -16l-26 -53l-31 -119l-5 -53l-12 -18l7 -38l-10 -64v-66z" />
<glyph unicode="&#xf3;" d="M43 524v155l4 23v66l8 23l4 39l3 19l8 66l20 47v38l19 24l6 35l48 89l40 58l69 62l85 42l46 8h24l25 13l37 -13l54 -8l47 -23l42 -39l30 -23l40 -66l12 -23l19 -33l8 -29l7 -23l5 -32l23 -50v-35l7 -23l4 -31l4 -23l4 -47l12 -69v-97l-4 -62v-54l-8 -39l-4 -31l-8 -27 l-4 -47l-11 -29v-25l-8 -20l-5 -28l-18 -27l-5 -37l-18 -28l-26 -50l-29 -35l-11 -15l-39 -39l-23 -16l-23 -18l-39 -17l-28 -3l-38 -16h-35l-26 5l-25 -6l-46 13l-27 11l-42 14l-50 37l-62 69l-32 55l-8 19l-19 39v23l-25 74l-6 38v43l-4 12zM260 576l8 -29l4 -92l11 -44 v-42l34 -75l33 -56l26 -19l36 -12l42 10l13 19l28 16l11 32l16 22l5 16l8 19l12 51l15 57v51l12 35v163l4 19l-4 20l-8 112l-11 35v31l-36 109l-19 27l-35 35h-50l-31 -16l-8 -15l-31 -31l-4 -16l-26 -53l-31 -119l-5 -53l-12 -18l7 -38l-10 -64v-66zM262 1435l28 59l11 28 l29 40l10 36l21 30l9 21l9 15l14 33l23 22l36 3l33 -8l57 -35l24 -4l25 -13l-7 -23l-9 -21l-41 -68l-44 -106l-8 -19l-6 -23l-20 -25l-18 -23l-23 11l-57 11l-54 28h-27l-8 9z" />
<glyph unicode="&#xf4;" d="M43 524v155l4 23v66l8 23l4 39l3 19l8 66l20 47v38l19 24l6 35l48 89l40 58l69 62l85 42l46 8h24l25 13l37 -13l54 -8l47 -23l42 -39l30 -23l40 -66l12 -23l19 -33l8 -29l7 -23l5 -32l23 -50v-35l7 -23l4 -31l4 -23l4 -47l12 -69v-97l-4 -62v-54l-8 -39l-4 -31l-8 -27 l-4 -47l-11 -29v-25l-8 -20l-5 -28l-18 -27l-5 -37l-18 -28l-26 -50l-29 -35l-11 -15l-39 -39l-23 -16l-23 -18l-39 -17l-28 -3l-38 -16h-35l-26 5l-25 -6l-46 13l-27 11l-42 14l-50 37l-62 69l-32 55l-8 19l-19 39v23l-25 74l-6 38v43l-4 12zM195 1436l25 58l9 27l26 39 l9 35l18 30l8 20l8 15l12 32l23 7l24 12l34 -8h108l44 -8l65 -161l27 -44l8 -23l15 -31v-16l-15 -15l-31 -16l-24 -4l-88 -23h-20l-17 9l-22 53l-6 19h-14l-7 -19l-5 -23l-18 -24l-16 -23l-23 12l-58 11l-54 28h-27l-10 9zM260 576l8 -29l4 -92l11 -44v-42l34 -75l33 -56 l26 -19l36 -12l42 10l13 19l28 16l11 32l16 22l5 16l8 19l12 51l15 57v51l12 35v163l4 19l-4 20l-8 112l-11 35v31l-36 109l-19 27l-35 35h-50l-31 -16l-8 -15l-31 -31l-4 -16l-26 -53l-31 -119l-5 -53l-12 -18l7 -38l-10 -64v-66z" />
<glyph unicode="&#xf5;" d="M43 524v155l4 23v66l8 23l4 39l3 19l8 66l20 47v38l19 24l6 35l48 89l40 58l69 62l85 42l46 8h24l25 13l37 -13l54 -8l47 -23l42 -39l30 -23l40 -66l12 -23l19 -33l8 -29l7 -23l5 -32l23 -50v-35l7 -23l4 -31l4 -23l4 -47l12 -69v-97l-4 -62v-54l-8 -39l-4 -31l-8 -27 l-4 -47l-11 -29v-25l-8 -20l-5 -28l-18 -27l-5 -37l-18 -28l-26 -50l-29 -35l-11 -15l-39 -39l-23 -16l-23 -18l-39 -17l-28 -3l-38 -16h-35l-26 5l-25 -6l-46 13l-27 11l-42 14l-50 37l-62 69l-32 55l-8 19l-19 39v23l-25 74l-6 38v43l-4 12zM97 1383l6 122l11 16l9 38 l43 57l50 32l50 12h58l43 -8l46 -27l39 -27l27 -15l32 -24h38l18 38l6 37l18 18h62l16 -3h66l11 -12l9 -35l-5 -54l-4 -12l-6 -51l-32 -50l-18 -28l-37 -28l-23 -6l-65 -21l-24 6l-52 5l-37 18l-24 16l-38 19l-24 23l-34 24h-31l-16 -16v-43l-8 -23l-11 -11l-88 -10l-63 6z M260 576l8 -29l4 -92l11 -44v-42l34 -75l33 -56l26 -19l36 -12l42 10l13 19l28 16l11 32l16 22l5 16l8 19l12 51l15 57v51l12 35v163l4 19l-4 20l-8 112l-11 35v31l-36 109l-19 27l-35 35h-50l-31 -16l-8 -15l-31 -31l-4 -16l-26 -53l-31 -119l-5 -53l-12 -18l7 -38l-10 -64 v-66z" />
<glyph unicode="&#xf6;" d="M43 524v155l4 23v66l8 23l4 39l3 19l8 66l20 47v38l19 24l6 35l48 89l40 58l69 62l85 42l46 8h24l25 13l37 -13l54 -8l47 -23l42 -39l30 -23l40 -66l12 -23l19 -33l8 -29l7 -23l5 -32l23 -50v-35l7 -23l4 -31l4 -23l4 -47l12 -69v-97l-4 -62v-54l-8 -39l-4 -31l-8 -27 l-4 -47l-11 -29v-25l-8 -20l-5 -28l-18 -27l-5 -37l-18 -28l-26 -50l-29 -35l-11 -15l-39 -39l-23 -16l-23 -18l-39 -17l-28 -3l-38 -16h-35l-26 5l-25 -6l-46 13l-27 11l-42 14l-50 37l-62 69l-32 55l-8 19l-19 39v23l-25 74l-6 38v43l-4 12zM129 1487l13 26l7 31l39 39 l31 15h78l31 -15l30 -30l24 -57v-37l-8 -24l-4 -15l-19 -19l-18 -30l-67 -17h-24l-33 7l-65 64zM260 576l8 -29l4 -92l11 -44v-42l34 -75l33 -56l26 -19l36 -12l42 10l13 19l28 16l11 32l16 22l5 16l8 19l12 51l15 57v51l12 35v163l4 19l-4 20l-8 112l-11 35v31l-36 109 l-19 27l-35 35h-50l-31 -16l-8 -15l-31 -31l-4 -16l-26 -53l-31 -119l-5 -53l-12 -18l7 -38l-10 -64v-66zM470 1487l13 26l7 31l39 39l31 15h78l31 -15l30 -30l24 -57v-37l-8 -24l-4 -15l-19 -19l-18 -30l-67 -17h-24l-33 7l-65 64z" />
<glyph unicode="&#xf7;" horiz-adv-x="632" d="M31 368v161l16 24l15 5h186l27 4l-46 26l-24 38l-11 37v50l19 39l41 41l29 5l23 10l63 -6l61 -62l8 -15v-54l-4 -16l-5 -28l-26 -40l-43 -21l-19 -8h213l38 -9l5 -34v-158l-17 -17l-39 -7l-107 7l-31 -7h-43l20 -7l35 -35l21 -43l9 -34l-11 -32v-30l-22 -14l-16 -25 l-54 -20h-51l-21 7l-58 43l-18 64v29l16 49l21 11l17 28l33 13h-52l-29 -7l-138 9l-22 11z" />
<glyph unicode="&#xf8;" d="M43 527v124l4 19v78l12 58l6 76l13 24l4 31l21 86l25 50l9 27l26 47l23 23l5 26l27 16l16 23l18 13l38 32l20 10l35 12l49 19h87l31 -8l21 -3l192 12l25 -12l6 -19l-8 -23l-5 -22l-14 -33l-12 -42l-8 -20l13 -19l19 -43l15 -47l10 -24l10 -53v-24l21 -64l-6 -25l11 -41 l5 -98l5 -34l-5 -28v-78l-4 -31v-50l-12 -24v-46l-8 -31l-7 -16l-9 -57l-11 -28l-8 -27l-7 -15l-12 -35l-12 -20l-17 -39l-33 -42l-15 -23l-35 -35l-33 -17l-15 -22l-39 -5l-18 -18l-47 -4l-15 -4h-81l-20 4l-38 6l-10 -10l-28 -7l-56 4h-97l-23 12v42l17 44l14 20v34l6 10 l-9 12l-4 23l-35 68l-16 87l-6 27l-9 70l-4 23v31zM268 524l5 34l29 64l14 67l21 29v37l18 24l6 31l11 31l12 35l11 28l4 26l24 47l3 35l16 31l13 48l-10 4l-45 -18l-47 -46l-15 -39l-15 -20l-9 -35l-7 -19l-4 -19l-12 -27l-4 -55l-8 -31v-19l-7 -31v-93l-4 -23v-96z M392 218l19 -9h20l31 15l42 43l29 58l14 54l12 24v31l3 19l4 31l4 23l4 39l7 35l-9 35l6 23v122l-8 -17l-10 -38l-13 -27l-4 -24l-12 -27l-35 -104l-4 -28l-13 -13l-6 -29l-12 -27l-7 -35l-30 -77l-9 -36l-8 -19l-8 -27z" />
<glyph unicode="&#xf9;" horiz-adv-x="779" d="M50 659v325l4 16v178l5 21l-5 22v77l8 25l19 6h93l62 6l30 -15l7 -15l-6 -38l7 -29l-7 -52v-82l-4 -19l7 -40l-7 -45v-121l5 -23l-10 -51l5 -61v-54l7 -20l-7 -70l9 -64l-6 -29l13 -38v-77l19 -63l5 -36l44 -66l27 -18h28l20 15l21 11l6 13l4 23l19 23l4 23l13 52l7 45 v24l9 38l10 352l-8 176v42l-4 20v240l10 19l98 9l63 -5h27l15 -15l9 -183l-5 -69l4 -43v-50l6 -33l-8 -30l7 -165l-5 -32v-159l-7 -23v-97l-4 -23l-4 -31l-4 -20l-6 -56l-13 -48l-5 -24l-15 -35l-15 -39l-48 -73l-70 -57l-41 -17l-29 -5l-46 -16l-100 9l-69 23l-57 38 l-75 115l-16 46l-19 38v43l-7 21l-8 76v39l-12 35v166zM206 1544v20l23 46l32 32l29 51l33 16l42 -37l77 -50l70 -54l39 -24l14 -13l7 -23l-25 -45l-23 -27l-41 -61l-22 -11l-24 8l-37 37l-70 42l-23 16l-35 30l-44 25z" />
<glyph unicode="&#xfa;" horiz-adv-x="779" d="M50 659v325l4 16v178l5 21l-5 22v77l8 25l19 6h93l62 6l30 -15l7 -15l-6 -38l7 -29l-7 -52v-82l-4 -19l7 -40l-7 -45v-121l5 -23l-10 -51l5 -61v-54l7 -20l-7 -70l9 -64l-6 -29l13 -38v-77l19 -63l5 -36l44 -66l27 -18h28l20 15l21 11l6 13l4 23l19 23l4 23l13 52l7 45 v24l9 38l10 352l-8 176v42l-4 20v240l10 19l98 9l63 -5h27l15 -15l9 -183l-5 -69l4 -43v-50l6 -33l-8 -30l7 -165l-5 -32v-159l-7 -23v-97l-4 -23l-4 -31l-4 -20l-6 -56l-13 -48l-5 -24l-15 -35l-15 -39l-48 -73l-70 -57l-41 -17l-29 -5l-46 -16l-100 9l-69 23l-57 38 l-75 115l-16 46l-19 38v43l-7 21l-8 76v39l-12 35v166zM253 1429l28 59l11 28l29 40l10 36l21 30l9 21l9 15l14 33l23 22l36 3l33 -8l57 -35l24 -4l25 -13l-7 -23l-9 -21l-41 -68l-44 -106l-8 -19l-6 -23l-20 -25l-18 -23l-23 11l-57 11l-54 28h-27l-8 9z" />
<glyph unicode="&#xfb;" horiz-adv-x="779" d="M50 659v325l4 16v178l5 21l-5 22v77l8 25l19 6h93l62 6l30 -15l7 -15l-6 -38l7 -29l-7 -52v-82l-4 -19l7 -40l-7 -45v-121l5 -23l-10 -51l5 -61v-54l7 -20l-7 -70l9 -64l-6 -29l13 -38v-77l19 -63l5 -36l44 -66l27 -18h28l20 15l21 11l6 13l4 23l19 23l4 23l13 52l7 45 v24l9 38l10 352l-8 176v42l-4 20v240l10 19l98 9l63 -5h27l15 -15l9 -183l-5 -69l4 -43v-50l6 -33l-8 -30l7 -165l-5 -32v-159l-7 -23v-97l-4 -23l-4 -31l-4 -20l-6 -56l-13 -48l-5 -24l-15 -35l-15 -39l-48 -73l-70 -57l-41 -17l-29 -5l-46 -16l-100 9l-69 23l-57 38 l-75 115l-16 46l-19 38v43l-7 21l-8 76v39l-12 35v166zM158 1436l25 58l9 27l26 39l9 35l18 30l8 20l8 15l12 32l23 7l24 12l34 -8h108l44 -8l65 -161l27 -44l8 -23l15 -31v-16l-15 -15l-31 -16l-24 -4l-88 -23h-20l-17 9l-22 53l-6 19h-14l-7 -19l-5 -23l-18 -24l-16 -23 l-23 12l-58 11l-54 28h-27l-10 9z" />
<glyph unicode="&#xfc;" horiz-adv-x="779" d="M50 659v325l4 16v178l5 21l-5 22v77l8 25l19 6h93l62 6l30 -15l7 -15l-6 -38l7 -29l-7 -52v-82l-4 -19l7 -40l-7 -45v-121l5 -23l-10 -51l5 -61v-54l7 -20l-7 -70l9 -64l-6 -29l13 -38v-77l19 -63l5 -36l44 -66l27 -18h28l20 15l21 11l6 13l4 23l19 23l4 23l13 52l7 45 v24l9 38l10 352l-8 176v42l-4 20v240l10 19l98 9l63 -5h27l15 -15l9 -183l-5 -69l4 -43v-50l6 -33l-8 -30l7 -165l-5 -32v-159l-7 -23v-97l-4 -23l-4 -31l-4 -20l-6 -56l-13 -48l-5 -24l-15 -35l-15 -39l-48 -73l-70 -57l-41 -17l-29 -5l-46 -16l-100 9l-69 23l-57 38 l-75 115l-16 46l-19 38v43l-7 21l-8 76v39l-12 35v166zM92 1487l13 26l7 31l39 39l31 15h78l31 -15l30 -30l24 -57v-37l-8 -24l-4 -15l-19 -19l-18 -30l-67 -17h-24l-33 7l-65 64zM433 1487l13 26l7 31l39 39l31 15h78l31 -15l30 -30l24 -57v-37l-8 -24l-4 -15l-19 -19 l-18 -30l-67 -17h-24l-33 7l-65 64z" />
<glyph unicode="&#xfd;" horiz-adv-x="729" d="M35 1280v34l16 15h85l59 6l43 -7l17 -8l9 -26l5 -22l16 -37l6 -22l13 -32l6 -26l12 -27l4 -33l27 -53l10 -30l12 19l5 31l23 54l16 62l23 50l4 35l15 20l5 31l11 11l98 9l61 -5h39l18 -18l-7 -48l-13 -26l-22 -71l-27 -77l-8 -27l-11 -17l-4 -41l-19 -29l-21 -77l-14 -38 l-20 -58l-15 -35l-4 -31l-24 -48l-7 -64v-613l-20 -19h-31l-32 -6l-126 6l-15 15l-5 28l-8 29l14 28l-6 28v108l-4 27l9 30l-5 25v108l-3 32l8 24l-5 30v108l-8 29l11 23l-18 37l-8 23l-26 65l-21 83l-23 58l-10 20l-7 33l-28 72l-9 34l-12 30l-27 98zM200 1435l28 59l11 28 l29 40l10 36l21 30l9 21l9 15l14 33l23 22l36 3l33 -8l57 -35l24 -4l25 -13l-7 -23l-9 -21l-41 -68l-44 -106l-8 -19l-6 -23l-20 -25l-18 -23l-23 11l-57 11l-54 28h-27l-8 9z" />
<glyph unicode="&#xfe;" horiz-adv-x="690" d="M45 134l10 50l-4 25v51l-6 66l10 50l-4 23v51l-6 68l10 50l-4 25v47l-6 72l10 48l-4 23v50l-6 65l10 55l-4 24v46l-6 72l10 50l-4 22v50l-5 54l6 42l23 16l50 4h108l15 -14l8 -44v-97l31 -7h24l31 -4h11l35 -12l31 -8l19 -7l37 -12l91 -66l40 -55l24 -53l10 -35l16 -39 l3 -51l4 -19v-66l-7 -23v-39l-20 -58l-11 -23l-8 -20l-12 -19l-11 -23l-20 -23l-10 -25l-29 -14l-14 -29l-28 -14l-20 -19l-23 -12l-19 -14l-16 -5l-27 -18l-27 -6l-27 -11l-50 -8l-28 -12v-100l-5 -74l5 -31v-89l-13 -27l-45 -8h-93l-44 9l-10 14v43zM249 933l7 -42v-89 l-5 -74l5 -26v-131l55 18l25 6l17 14l31 20l20 26l14 14l9 36l4 8l15 45l-8 29l-3 46l-11 31l-20 31l-35 35l-55 27h-57z" />
<glyph unicode="&#xff;" horiz-adv-x="729" d="M35 1280v34l16 15h85l59 6l43 -7l17 -8l9 -26l5 -22l16 -37l6 -22l13 -32l6 -26l12 -27l4 -33l27 -53l10 -30l12 19l5 31l23 54l16 62l23 50l4 35l15 20l5 31l11 11l98 9l61 -5h39l18 -18l-7 -48l-13 -26l-22 -71l-27 -77l-8 -27l-11 -17l-4 -41l-19 -29l-21 -77l-14 -38 l-20 -58l-15 -35l-4 -31l-24 -48l-7 -64v-613l-20 -19h-31l-32 -6l-126 6l-15 15l-5 28l-8 29l14 28l-6 28v108l-4 27l9 30l-5 25v108l-3 32l8 24l-5 30v108l-8 29l11 23l-18 37l-8 23l-26 65l-21 83l-23 58l-10 20l-7 33l-28 72l-9 34l-12 30l-27 98zM67 1487l13 26l7 31 l39 39l31 15h78l31 -15l30 -30l24 -57v-37l-8 -24l-4 -15l-19 -19l-18 -30l-67 -17h-24l-33 7l-65 64zM408 1487l13 26l7 31l39 39l31 15h78l31 -15l30 -30l24 -57v-37l-8 -24l-4 -15l-19 -19l-18 -30l-67 -17h-24l-33 7l-65 64z" />
<glyph unicode="&#x152;" horiz-adv-x="1027" d="M46 580l9 151v47l8 19l5 55l22 104l7 27l4 20l15 20l5 34l15 31l15 37l55 87l66 66l42 28l43 14l31 12h47l48 5l136 -6l56 6l137 -6l61 5l96 -9l9 -45l-5 -47v-97l-13 -27h-134l-12 -4l-73 4h-97v-387l27 -4h186l55 -9l14 -28l-14 -28l7 -28v-109l-9 -19l-22 -4h-240 l-4 -39v-244l159 8l85 -4h66l19 -20v-31l5 -36l-5 -45v-62l-10 -21l-21 -10h-93l-19 4h-58l-20 -4h-93l-23 4h-54l-23 -4h-93l-20 4h-85l-58 19l-78 39l-46 47l-39 58l-31 62l-23 69l-14 68l-9 29v39l-7 26l-5 110zM271 633l5 -88v-38l7 -43l4 -35l8 -31v-12l12 -35l5 -24 l22 -34l15 -31l17 -21l26 -14h19l5 5l-5 69l4 35v4l4 27l-4 19v51l-4 57l4 36v4l4 23l-4 23v47l-4 57l4 32v8l4 27l-4 19v50l-4 54l4 32v4l4 33l-4 21v46l-4 51v27h-7l-42 -42l-13 -32l-18 -27l-39 -123l-12 -125l-4 -23v-62z" />
<glyph unicode="&#x153;" horiz-adv-x="1023" d="M43 537l4 50v143l12 47v54l3 12l12 62l16 62l6 31l9 23l8 31l15 16l4 27l48 91l61 70l42 35l63 31l26 5h16l23 8h97l74 -4l19 4h101l75 -4l20 4l149 -4l23 -23v-174l-23 -24h-302l-6 -46l6 -31l-4 -58l-5 -19l5 -24v-66l4 -24l-4 -61l-6 -16l10 -42h70l65 -4h117l11 -12 l13 -37l-5 -102v-35l-12 -23l-15 -16h-136l-33 9l-21 -9h-60l6 -36l-4 -61l-6 -16l6 -27v-65l4 -20v-54l46 4h109l20 -5l95 8l41 -8l14 -15v-189l-10 -11l-40 -5h-531l-31 8l-40 4l-91 46l-69 63l-54 108l-10 38l-14 38l-13 67l-4 39l-11 35v35zM265 567l7 -30v-55l7 -31 l4 -31l8 -27l4 -27l19 -58l20 -39l37 -37l17 -5h23v85l-4 35v54l4 15v90l-7 67l7 37v82l-7 79l7 29v89l-4 35v54l4 16v89l-4 5l-21 -7l-17 -29l-22 -21l-13 -41l-27 -54l-8 -47l-13 -38l-7 -74l-3 -16l-4 -58l-5 -19l5 -92z" />
<glyph unicode="&#x178;" horiz-adv-x="740" d="M34 1297l5 12l49 19l25 -5l136 -4l22 -23l16 -54l15 -35l4 -20l16 -35l4 -31l19 -42l25 -76l6 6l5 25l22 49l5 35l15 23l6 31l28 72l14 62l14 13h151l29 9l13 -5l24 -23v-17l-19 -49l-5 -20l-16 -38l-11 -43l-11 -23l-8 -35l-16 -23l-3 -35l-35 -89l-4 -16l-12 -39 l-4 -15l-11 -23l-5 -26l-15 -29l-10 -42l-26 -68l-6 -33v-70l-5 -49l8 -105l-8 -89l8 -103l-8 -87l5 -63v-71l-28 -18h-131l-17 -4l-46 9l-11 34v135l4 151l-4 28v317l-4 12l-4 31l-15 35l-8 23l-22 59l-6 35l-21 47l-8 33l-24 55l-7 31l-29 68l-7 37l-11 27l-8 42zM73 1481 l13 26l7 31l39 39l31 15h78l31 -15l30 -30l24 -57v-37l-8 -24l-4 -15l-19 -19l-18 -30l-67 -17h-24l-33 7l-65 64zM414 1481l13 26l7 31l39 39l31 15h78l31 -15l30 -30l24 -57v-37l-8 -24l-4 -15l-19 -19l-18 -30l-67 -17h-24l-33 7l-65 64z" />
<glyph unicode="&#x2c6;" horiz-adv-x="478" d="M-4 1436l25 58l9 27l26 39l9 35l18 30l8 20l8 15l12 32l23 7l24 12l34 -8h108l44 -8l65 -161l27 -44l8 -23l15 -31v-16l-15 -15l-31 -16l-24 -4l-88 -23h-20l-17 9l-22 53l-6 19h-14l-7 -19l-5 -23l-18 -24l-16 -23l-23 12l-58 11l-54 28h-27l-10 9z" />
<glyph unicode="&#x2dc;" horiz-adv-x="833" d="M83 1383l6 122l11 16l9 38l43 57l50 32l50 12h58l43 -8l46 -27l39 -27l27 -15l32 -24h38l18 38l6 37l18 18h62l16 -3h66l11 -12l9 -35l-5 -54l-4 -12l-6 -51l-32 -50l-18 -28l-37 -28l-23 -6l-65 -21l-24 6l-52 5l-37 18l-24 16l-38 19l-24 23l-34 24h-31l-16 -16v-43 l-8 -23l-11 -11l-88 -10l-63 6z" />
<glyph unicode="&#x2000;" horiz-adv-x="861" />
<glyph unicode="&#x2001;" horiz-adv-x="1722" />
<glyph unicode="&#x2002;" horiz-adv-x="861" />
<glyph unicode="&#x2003;" horiz-adv-x="1722" />
<glyph unicode="&#x2004;" horiz-adv-x="574" />
<glyph unicode="&#x2005;" horiz-adv-x="430" />
<glyph unicode="&#x2006;" horiz-adv-x="287" />
<glyph unicode="&#x2007;" horiz-adv-x="287" />
<glyph unicode="&#x2008;" horiz-adv-x="215" />
<glyph unicode="&#x2009;" horiz-adv-x="344" />
<glyph unicode="&#x200a;" horiz-adv-x="95" />
<glyph unicode="&#x2010;" horiz-adv-x="671" d="M50 422v20l4 15v156l89 13l145 -8l48 9l145 -9l30 6h62l38 -9l8 -17l-8 -23l5 -25v-139l-16 -8h-34l-16 -4h-143l-26 6l-25 -6h-139l-28 5l-23 -5h-93z" />
<glyph unicode="&#x2011;" horiz-adv-x="671" d="M50 422v20l4 15v156l89 13l145 -8l48 9l145 -9l30 6h62l38 -9l8 -17l-8 -23l5 -25v-139l-16 -8h-34l-16 -4h-143l-26 6l-25 -6h-139l-28 5l-23 -5h-93z" />
<glyph unicode="&#x2012;" horiz-adv-x="671" d="M50 422v20l4 15v156l89 13l145 -8l48 9l145 -9l30 6h62l38 -9l8 -17l-8 -23l5 -25v-139l-16 -8h-34l-16 -4h-143l-26 6l-25 -6h-139l-28 5l-23 -5h-93z" />
<glyph unicode="&#x2013;" horiz-adv-x="671" d="M50 422v20l4 15v156l89 13l145 -8l48 9l145 -9l30 6h62l38 -9l8 -17l-8 -23l5 -25v-139l-16 -8h-34l-16 -4h-143l-26 6l-25 -6h-139l-28 5l-23 -5h-93z" />
<glyph unicode="&#x2014;" horiz-adv-x="671" d="M50 422v20l4 15v156l89 13l145 -8l48 9l145 -9l30 6h62l38 -9l8 -17l-8 -23l5 -25v-139l-16 -8h-34l-16 -4h-143l-26 6l-25 -6h-139l-28 5l-23 -5h-93z" />
<glyph unicode="&#x2018;" horiz-adv-x="334" d="M50 1113v128l8 23v50l12 27l11 35l16 8h35l11 4h113l19 -19v-16l-8 -23l-10 -51l-11 -26l6 -32l-6 -36l17 -88v-35l12 -34v-28l-16 -15l-23 -8h-108l-37 12l-25 68l-5 34z" />
<glyph unicode="&#x2019;" horiz-adv-x="334" d="M50 996v16l8 23l10 51l11 26l-6 32l6 36l-17 88v35l-12 34v28l16 15l23 8h108l37 -12l25 -68l5 -34l11 -22v-128l-8 -23v-50l-12 -27l-11 -35l-16 -8h-35l-11 -4h-113z" />
<glyph unicode="&#x201a;" horiz-adv-x="334" d="M52 -108l8 23l10 51l11 26l-6 32l6 36l-17 88v35l-12 34v28l16 15l21 10l110 -2l37 -12l25 -68l5 -34l11 -22v-128l-8 -23v-50l-12 -27l-11 -35l-16 -8h-35l-11 -4h-113l-19 19v16z" />
<glyph unicode="&#x201c;" horiz-adv-x="568" d="M50 1113v128l8 23v50l12 27l11 35l16 8h35l11 4h113l19 -19v-16l-8 -23l-10 -51l-11 -26l6 -32l-6 -36l17 -88v-35l12 -34v-28l-16 -15l-23 -8h-108l-37 12l-25 68l-5 34zM302 1123v128l8 23v50l12 27l11 35l16 8h35l11 4h113l19 -19v-16l-8 -23l-10 -51l-11 -26l6 -32 l-6 -36l17 -88v-35l12 -34v-28l-16 -15l-23 -8h-108l-37 12l-25 68l-5 34z" />
<glyph unicode="&#x201d;" horiz-adv-x="568" d="M50 996v16l8 23l10 51l11 26l-6 32l6 36l-17 88v35l-12 34v28l16 15l23 8h108l37 -12l25 -68l5 -34l11 -22v-128l-8 -23v-50l-12 -27l-11 -35l-16 -8h-35l-11 -4h-113zM302 1006v16l8 23l10 51l11 26l-6 32l6 36l-17 88v35l-12 34v28l16 15l23 8h108l37 -12l25 -68l5 -34 l11 -22v-128l-8 -23v-50l-12 -27l-11 -35l-16 -8h-35l-11 -4h-113z" />
<glyph unicode="&#x201e;" horiz-adv-x="568" d="M54 -120l8 23l10 51l11 26l-6 32l6 36l-17 88v35l-12 34v28l16 15l23 8h108l37 -12l25 -68l5 -34l11 -22v-128l-8 -23v-50l-12 -27l-11 -35l-16 -8h-35l-11 -4h-113l-19 19v16zM306 -110l8 23l10 51l11 26l-6 32l6 36l-17 88v35l-12 34v28l16 15l23 8h108l37 -12l25 -68 l5 -34l11 -22v-128l-8 -23v-50l-12 -27l-11 -35l-16 -8h-35l-11 -4h-113l-19 19v16z" />
<glyph unicode="&#x2022;" horiz-adv-x="339" d="M41 443l6 22l6 35l24 32l42 34l47 10l66 -17l44 -44l15 -46v-39l-12 -35l-23 -35l-46 -31h-55l-38 4l-27 23l-31 23l-8 16l-4 31z" />
<glyph unicode="&#x2026;" horiz-adv-x="1023" d="M42 117l13 26l7 31l39 39l31 15h78l31 -15l30 -30l24 -57v-37l-8 -24l-4 -15l-19 -19l-18 -30l-67 -17h-24l-33 7l-65 64zM383 117l13 26l7 31l39 39l31 15h78l31 -15l30 -30l24 -57v-37l-8 -24l-4 -15l-19 -19l-18 -30l-67 -17h-24l-33 7l-65 64zM724 117l13 26l7 31 l39 39l31 15h78l31 -15l30 -30l24 -57v-37l-8 -24l-4 -15l-19 -19l-18 -30l-67 -17h-24l-33 7l-65 64z" />
<glyph unicode="&#x202f;" horiz-adv-x="344" />
<glyph unicode="&#x2039;" horiz-adv-x="426" d="M47 314l7 21l4 44l15 10l27 11l71 33l22 6l23 23l40 5l17 17l50 16l14 -7l18 -17l6 -37l15 -35l4 -26l11 -28l5 -36l-36 -22l-52 -26l25 -13l36 -5l26 -26v-23l-6 -18l-6 -29l-11 -26l-5 -53l-22 -33h-20l-75 25l-41 25l-47 19l-50 28l-35 12l-22 22l-6 29l5 30v50z" />
<glyph unicode="&#x203a;" horiz-adv-x="426" d="M41 323v12l10 26l6 20l19 58l9 40l22 22h27l116 -58l21 -14l36 -6l25 -15l43 -22l7 -13v-27l4 -23v-146l-39 -32l-31 -12l-54 -27l-35 -12l-81 -40l-31 -8l-12 -6h-12l-11 12l-6 27l-14 46l-5 36l-12 51l12 35l42 7l29 15v11l-64 22z" />
<glyph unicode="&#x205f;" horiz-adv-x="430" />
<glyph unicode="&#x20ac;" horiz-adv-x="748" d="M38 406l5 192l32 16l-32 13l-5 184l17 16l25 8l9 19l4 39l8 19l23 78l11 27l5 23l19 20l7 34l16 16l24 43l69 79l31 21l26 21l67 34l38 4l23 17l21 -6h62l46 -8l35 -11l32 -6l36 -21l9 -17l-7 -26l-13 -26l-6 -32l-20 -23l-4 -35l-19 -39l-23 -12h-16l-33 22l-52 7 l-27 -9l-47 -24l-45 -45l-32 -59l-16 -24l-27 -100l56 -5l27 7l41 -7l32 5l81 -4h38l12 -12v-190l-309 -12l3 -11l291 -1l15 -14l4 -74v-93l-11 -27l-16 -8h-105l-27 -4h-128l31 -77l16 -24l11 -19l39 -39l60 -20l45 16l23 12l15 5l28 18h19l20 -20l15 -36l29 -44l29 -63 v-19l-35 -35l-27 -15l-23 -16l-16 -4l-35 -11l-58 -8l-19 -4h-51l-23 8l-45 5l-36 18l-62 43l-58 58l-20 35l-23 31l-27 54l-8 19l-20 45l-23 91h-34z" />
<glyph unicode="&#x25fc;" horiz-adv-x="1335" d="M0 0v1335h1335v-1335h-1335z" />
</font>
</defs>
</svg>
