<?xml version="1.0" standalone="no"?>
<!DOCTYPE svg PUBLIC "-//W3C//DTD SVG 1.1//EN" "http://www.w3.org/Graphics/SVG/1.1/DTD/svg11.dtd" >
<svg xmlns="http://www.w3.org/2000/svg">
<metadata></metadata>
<defs>
<font id="witkaregular" horiz-adv-x="1705" >
<font-face units-per-em="2048" ascent="1536" descent="-512" />
<missing-glyph horiz-adv-x="653" />
<glyph horiz-adv-x="0" />
<glyph unicode="&#xd;" horiz-adv-x="1024" />
<glyph unicode=" "  horiz-adv-x="653" />
<glyph unicode="&#x09;" horiz-adv-x="653" />
<glyph unicode="&#xa0;" horiz-adv-x="653" />
<glyph unicode="!" horiz-adv-x="423" d="M391 1565l-127 -1133h-84l-98 1133h309zM385 168q0 -72 -50 -122t-122 -50t-121 50t-49 122t49 122t121 50t122 -50t50 -122z" />
<glyph unicode="&#x22;" horiz-adv-x="976" />
<glyph unicode="(" horiz-adv-x="1003" d="M950 -557q-227 0 -396 105.5t-279.5 277.5t-166 391t-55.5 447q0 227 52.5 443t162 384t275.5 270.5t393 102.5l-6 -47q-211 0 -351.5 -99.5t-224.5 -260.5t-118.5 -364.5t-34.5 -414.5q0 -139 16 -281.5t51 -273.5t92.5 -246t140.5 -200t191.5 -133t249.5 -48l8 -53v0z " />
<glyph unicode=")" horiz-adv-x="1011" d="M43 -502q139 0 248.5 48t192.5 133t140.5 200t92.5 246t51 272.5t16 282.5t-15 279.5t-49 265.5t-89.5 235.5t-136 188.5t-189 125t-248.5 45l-8 47q227 0 394 -102.5t275.5 -270.5t162 -384t53.5 -443t-55.5 -446.5t-166 -391.5t-279.5 -277.5t-396 -105.5z" />
<glyph unicode="+" horiz-adv-x="1372" d="M29 700v127h602v703h108v-703h602v-127h-602v-702h-108v702h-602v0z" />
<glyph unicode="," horiz-adv-x="446" d="M35 -422q125 63 178 146q49 80 49 217q0 39 -10 47q-10 12 -47 12q-74 0 -121 45q-49 43 -49 109t45 108q49 45 113 45q104 0 172 -88q66 -84 65 -223q0 -168 -108 -301q-111 -131 -287 -172v55z" />
<glyph unicode="." horiz-adv-x="364" d="M182 313q61 0 109 -43q43 -47 43 -108q0 -63 -45 -109q-43 -47 -107 -47q-61 0 -108 47t-47 109q0 63 47 106q45 45 108 45z" />
<glyph unicode="/" horiz-adv-x="964" d="M57 -4l754 1567h119l-754 -1567h-119v0z" />
<glyph unicode="0" horiz-adv-x="1093" d="M551 1290q102 0 191 -50t156 -137t105.5 -204t38.5 -250t-38.5 -249.5t-105.5 -205t-156 -138.5t-191 -50t-192.5 50t-157 138.5t-105.5 205t-39 249.5t39 250t105.5 204t157 137t192.5 50zM543 78q63 0 119.5 45t98.5 122t66.5 180t24.5 220q0 119 -24.5 222.5 t-66.5 180t-98.5 121.5t-119.5 45t-119.5 -45t-98.5 -121.5t-67 -180t-25 -222.5q0 -117 25 -220t67 -180t98.5 -122t119.5 -45z" />
<glyph unicode="1" horiz-adv-x="659" d="M276 1008q-8 -14 -41.5 -43t-72.5 -58q-45 -35 -101 -71l-43 102q90 20 151.5 79.5t100.5 125.5q45 76 72 164l98 2v-1098q2 -35 25 -68q18 -29 59 -55.5t117 -36.5v-51h-557v51q76 10 116 37t60 55q23 33 27 68l-11 797v0z" />
<glyph unicode="2" horiz-adv-x="851" d="M25 2l-2 90q59 86 109 155.5t91 128t77 109t67 97.5q61 98 105 184t56 166q12 72 6 127t-36 96q-31 41 -67 60.5t-89 19.5q-47 0 -90 -30.5t-76 -61.5t-39 -74t-12 -98h-49q2 41 8 82t31 86q47 88 123 141q74 49 163 49q133 0 230 -104q47 -53 70.5 -118t7.5 -140 q-10 -43 -23.5 -81t-34 -75t-47 -78t-59.5 -90q-68 -98 -181.5 -233.5t-236.5 -315.5h592l55 135h51l-71 -227h-729z" />
<glyph unicode="3" horiz-adv-x="731" d="M229 684q51 -8 106.5 8.5t102.5 50t78 78.5t31 92q0 49 -17.5 91.5t-46 73t-68.5 49t-85 18.5q-39 0 -76 -16.5t-68.5 -43t-55.5 -62.5t-32 -73l-41 -2q0 68 24.5 127.5t68 103.5t101.5 69.5t124 25.5t123 -25.5t100 -69.5t68.5 -103.5t25.5 -127.5t-25.5 -126 t-68.5 -102t-100.5 -69.5t-122.5 -25.5q72 0 131 -38t101 -102.5t65.5 -151.5t25.5 -186q2 -160 -52 -262t-139 -156.5t-185.5 -67.5t-187.5 6.5t-146.5 63.5t-63.5 103l39 10q47 -51 111.5 -87t132.5 -36q74 0 139.5 34t114.5 92.5t77.5 137t28.5 169.5q0 86 -26.5 162.5 t-72.5 135t-108.5 93.5t-134.5 39z" />
<glyph unicode="4" horiz-adv-x="1089" d="M1049 98v-96h-238v-344h-147v344h-504v0l-115 -6l617 1284l12 -6h137v-1176h238zM205 98h459v961z" />
<glyph unicode="5" horiz-adv-x="907" d="M80 -127q27 -82 84 -126t126.5 -53t145.5 16.5t141.5 81.5t113.5 140t63 195q12 84 -11.5 157.5t-69.5 129t-108.5 88.5t-130.5 33q-66 0 -134.5 -37t-113.5 -95l2 725v140h97h583v-140h-583v-561q96 90 223 90q76 0 142.5 -36.5t115.5 -99t80 -147.5t35 -181 q6 -147 -45.5 -255t-134.5 -176.5t-184 -97.5t-197.5 -18.5t-173 60.5t-109.5 140z" />
<glyph unicode="6" horiz-adv-x="905" d="M313 940q158 47 264.5 22.5t168 -95t82 -173t7 -211t-59.5 -211t-115.5 -172t-161.5 -94t-199 22.5q-86 37 -146.5 118.5t-91 194.5t-27.5 250t48 287q31 102 107.5 222t178 229.5t216 191.5t219.5 110l61 -49q-168 -86 -274.5 -197.5t-167.5 -209.5q-72 -117 -109 -236z M461 74q53 0 100 32.5t83 90t56.5 134.5t20.5 165t-20.5 164.5t-56.5 134t-83 90.5t-100 33q-55 0 -103.5 -29t-85 -80t-58 -123t-21.5 -160t21.5 -170t58 -144t85 -100t103.5 -38z" />
<glyph unicode="7" horiz-adv-x="1136" d="M346 1317l748 -6v-121l-873 -1479h-274l999 1497h-549l-125 -223l-104 19l178 313v0z" />
<glyph unicode="8" horiz-adv-x="827" d="M807 436q0 -184 -115 -305q-113 -125 -280 -125q-168 0 -277 109q-109 113 -108 282q0 131 69 234q68 102 223 205q-125 78 -188 190q-66 111 -65 250q0 174 98 285q100 111 262 110q150 0 248 -104q100 -102 100 -260q0 -57 -17.5 -117t-49 -116t-78.5 -106t-105 -87 q68 -55 120 -105.5t88 -104t55.5 -110.5t19.5 -125zM135 422q0 -74 30 -153t68 -128q39 -49 87.5 -65.5t107.5 -16.5q53 0 95 32t77 73q70 80 70 196q0 119 -78 211.5t-230 188.5q-104 -57 -165.5 -136t-61.5 -202zM180 1376q-14 -104 47 -211q29 -53 84.5 -113.5 t132.5 -131.5q86 39 152 115.5t82 191.5q10 78 0 146.5t-39 121.5q-29 51 -88 73.5t-115 30.5q-96 12 -170 -51q-74 -68 -86 -172z" />
<glyph unicode="9" horiz-adv-x="905" d="M575 336q-158 -47 -264 -21.5t-167.5 95t-83 172t-7 212t59.5 212t115.5 172t162.5 94t199 -22.5q86 -37 146.5 -118.5t91 -194.5t26.5 -250t-47 -287q-20 -68 -62.5 -145.5t-99.5 -155.5t-124.5 -151.5t-141.5 -135t-148.5 -105.5t-144.5 -62l-63 51q168 86 275.5 196.5 t168.5 208.5q71 115 108 236zM428 1204q-55 0 -102 -32.5t-83 -90t-56.5 -134.5t-20.5 -165t20.5 -164.5t56.5 -134t83 -90.5t102 -33q53 0 100 33t83 90.5t56.5 134t20.5 164.5t-20.5 165t-56.5 134.5t-83 90t-100 32.5z" />
<glyph unicode=":" horiz-adv-x="364" d="M184 874q63 0 107 -43q45 -45 45 -108t-45 -109q-47 -47 -107 -47q-63 0 -110 47q-45 45 -45 109q0 63 45 106q44 45 110 45zM184 307q63 0 107 -43q45 -45 45 -108t-45 -109q-47 -47 -107 -47q-63 0 -110 47q-45 45 -45 109q0 63 45 106q44 45 110 45z" />
<glyph unicode=";" horiz-adv-x="493" d="M252 877q63 0 106 -43q45 -45 45 -109q0 -63 -45 -109q-47 -47 -106 -47q-63 0 -111 47q-45 45 -45 109q0 63 45 106q45 46 111 46zM68 -416q125 63 178 146q49 80 49 217q0 39 -10 47q-10 12 -47 12q-74 0 -121 45q-49 43 -49 109t45 108q49 45 112 45q104 0 172 -88 q66 -84 66 -223q0 -168 -109 -301q-111 -131 -286 -172v55z" />
<glyph unicode="?" horiz-adv-x="630" d="M166 311q12 100 62.5 221t107.5 238t105 220.5t59 168.5q10 68 -3.5 129.5t-45 108.5t-79.5 74.5t-108 27.5q-35 0 -69.5 -11t-67.5 -29.5t-61.5 -43t-49.5 -51.5l9 72q45 53 106.5 89t134.5 44q76 8 133.5 -10.5t97.5 -58.5t63.5 -98.5t29.5 -129.5q6 -61 -20.5 -136 t-68.5 -158t-92.5 -171t-93.5 -174t-72.5 -168t-27.5 -154h-49zM315 117q0 -49 -34.5 -84t-83.5 -35t-84 35t-35 84t34.5 84t84.5 35q49 0 83.5 -35t34.5 -84z" />
<glyph unicode="A" horiz-adv-x="1251" d="M1155 229q6 -33 25 -63q16 -29 44.5 -58.5t78.5 -52.5v-55h-414v55q47 25 66.5 54.5t23.5 56.5q6 31 -2 59l-53 211l-445 2l-63 -207q-12 -49 -4 -86q6 -33 33.5 -59.5t93.5 -30.5v-55h-414v55q49 23 80 52.5t47 58.5q20 31 29 63l385 1379l127 4zM897 543l-180 714 l-211 -716z" />
<glyph unicode="B" horiz-adv-x="1159" d="M827 868q59 -18 110.5 -55t88.5 -91t58.5 -122t21.5 -145q0 -92 -32 -175t-85 -145.5t-121.5 -100.5t-142.5 -38h-45t-80 1t-79 2t-44 3h-358v55q72 12 112.5 40t59.5 57q23 35 24 73l-18 1155q-2 39 -25 74q-18 29 -58 57.5t-112 40.5v54h543h8q88 0 165 -31t134.5 -83 t91 -123t33.5 -150q0 -119 -69.5 -213.5t-180.5 -139.5zM446 1507q0 -12 1.5 -66.5t3.5 -136t4 -182t4 -200.5q25 -18 53.5 -16.5t60.5 1.5q51 0 98.5 27t83.5 72t56 102t20 117q0 61 -19 113.5t-54 92t-81 62.5t-97 23q-27 0 -69 1.5t-65 -10.5zM891 457q8 106 -27 180 t-81 119t-87 64.5t-43 19.5q-25 6 -51.5 5t-52 -4t-49 -6.5t-41.5 -0.5q2 -119 3 -226.5t3 -193.5q2 -98 2 -187q4 -35 21.5 -62.5t42 -47t54 -26.5t58.5 -1q39 8 81 38t77 77t59.5 110.5t30.5 141.5z" />
<glyph unicode="C" horiz-adv-x="1280" d="M1044 1360q-27 33 -49 65.5t-47.5 62.5t-57.5 56.5t-77 44.5q-111 47 -206 -1t-164.5 -162.5t-109.5 -278.5t-40 -346t30.5 -322.5t90 -229.5t148.5 -122t206 -2q63 18 106.5 39.5t77 55.5t63 86t70.5 130l62 -96q-80 -160 -204 -250t-271 -90q-121 0 -227.5 62.5 t-185.5 173t-124 264t-45 336.5q0 182 46 342.5t125 280.5t185.5 188.5t227.5 68.5q111 0 206 -35.5t173 -138.5q16 -18 32 -18q12 0 25.5 18.5t19.5 73.5h29v-410h-29q-14 33 -30 64q-14 25 -30 50.5t-26 39.5z" />
<glyph unicode="D" horiz-adv-x="1361" d="M707 1622q127 0 237.5 -61.5t193.5 -168t131 -250t48 -304.5q0 -162 -49 -313.5t-134 -268.5t-198 -186.5t-238 -69.5l-94 2h-534v53q72 12 112.5 41t59.5 58q23 35 24 73l-18 1168q-2 39 -25 73q-18 29 -58 57.5t-112 41.5v53h543q27 2 56.5 2h54.5zM614 94 q104 0 196.5 57.5t160 156t107.5 230.5t40 281q0 147 -40 278.5t-107.5 228.5t-159.5 153.5t-197 56.5q-37 0 -85 -11.5t-80 -25.5q-20 -18 -31.5 -36.5t-16.5 -35.5q-6 -18 -6 -34l19 -1166q0 -16 6 -34q4 -16 14 -34t29 -36q29 -20 72.5 -24.5t78.5 -4.5z" />
<glyph unicode="E" horiz-adv-x="958" d="M449 -4h-398v55q72 12 113 41t59 58q23 35 27 73l-21 1176q-2 39 -24 74q-18 29 -58.5 58.5t-111.5 41.5v55h371l360 2h8l137 4l-6 -354h-35q-6 74 -15 118t-22.5 68.5t-31 35.5t-41.5 18q-35 8 -98.5 10t-126.5 0q-74 -2 -156 -8l10 -631l121 -2q39 2 74 18 q29 14 57.5 43t42.5 84h53v-403h-53q-14 53 -43 83.5t-57 45.5q-35 16 -74 18l-119 -4l8 -551q-2 -37 7 -63q6 -23 20 -43.5t43 -18.5h123q49 0 98 -1t78 1q51 2 71.5 57.5t28.5 200.5l35 2l19 -354l-140 -2q-2 0 -4 2h-2l-334 -8h7z" />
<glyph unicode="F" horiz-adv-x="937" d="M410 225q2 -39 24 -73q18 -29 57 -57.5t113 -41.5v-53h-543v53q72 12 113 41t59 58q23 35 25 73l-18 1159q-2 39 -25 74q-18 29 -58 57.5t-112 40.5v54h361l344 4h6l139 4l-6 -350h-35q-6 72 -14.5 114.5t-19.5 65t-26.5 30t-37.5 11.5q-35 4 -94.5 6t-118.5 2 q-70 0 -148 -2l6 -575h-4h111q39 2 74 18q29 14 57.5 43t42.5 82h53v-397h-53q-14 53 -43 81.5t-57 43.5q-35 16 -74 18l-107 -4z" />
<glyph unicode="G" horiz-adv-x="1335" d="M1278 535q-43 -8 -80 -29q-31 -16 -57.5 -50t-32.5 -89q-2 -25 -2 -48q0 -20 -1 -42.5t1 -40.5v-125h-84q-53 -29 -88 -46.5l-55 -27.5q-23 -10 -35 -14q-76 -27 -148 -27q-121 0 -226 62.5t-184 173t-124 264t-45 335.5t46 343t125 281t185.5 188.5t226.5 68.5 q111 0 206 -36t173 -138q16 -18 33 -18q12 0 25.5 18t19.5 74h29v-410h-29q-14 33 -31 64q-14 25 -29.5 50t-25.5 40q-27 33 -49.5 65.5t-48 62t-57 56.5t-76.5 45q-111 47 -206 -1t-165 -162.5t-110 -278.5t-40 -346t30 -324.5t90.5 -232.5t148.5 -125t205 -2q35 8 63 18 q25 8 46.5 19.5t25.5 23.5q12 35 16 72t2 65q-2 35 -6 66q-12 53 -37.5 85t-52.5 48q-31 18 -68 25v79l496 -2v-77v0z" />
<glyph unicode="H" horiz-adv-x="1597" d="M487 702l2 -481q2 -39 23 -71q16 -29 54 -56.5t108 -40.5v-53h-516v53q70 12 107.5 40t56.5 57q23 33 24 71l-4 1141q-2 37 -23 72q-16 29 -54 56.5t-107 39.5v53h516v-53q-70 -12 -108 -40t-54 -56q-23 -35 -25 -72v-561l650 2l-2 561q-2 37 -23 72q-16 29 -54 56.5 t-108 39.5v53h516v-53q-70 -12 -107.5 -40t-53.5 -56q-23 -35 -25 -72l2 -1141q2 -39 23 -71q16 -29 54 -56.5t107 -40.5v-53h-516v53q70 12 108 40t56 57q23 33 25 71l-2 482z" />
<glyph unicode="I" horiz-adv-x="710" d="M481 223q2 -39 25 -73q18 -29 57 -56.5t113 -40.5v-53h-543v53q72 12 113 40t59 57q23 35 25 73l-21 1159q-2 39 -24 74q-18 29 -58.5 57.5t-111.5 40.5v54h542v-54q-74 -12 -113.5 -40.5t-58.5 -57.5q-23 -35 -24 -74l20 -1159v0z" />
<glyph unicode="J" horiz-adv-x="634" d="M262 319l-20 1170q-2 39 -25 74q-18 29 -58 56.5t-112 41.5v53h543v-53q-74 -14 -114 -42t-58 -56q-23 -35 -25 -74l19 -1170q-2 8 2 -20.5t6 -79.5t1 -114.5t-13.5 -125t-38 -111.5t-72.5 -73q-72 -35 -120 -24.5t-77 36.5q-35 31 -53 82l47 43q49 -63 86 -51 q16 6 31.5 28.5t27 73t17.5 132t6 204.5z" />
<glyph unicode="K" horiz-adv-x="1280" d="M399 760l9 -524q2 -39 24 -74q18 -29 57 -57.5t113 -41.5v-53h-543v53q72 12 113 41t59 58q23 35 25 74l-18 1167q-2 39 -25 74q-18 29 -58 57.5t-112 40.5v53h543v-53q-74 -12 -114 -41t-58 -57q-23 -35 -25 -74l8 -506q84 98 164 195q68 82 141.5 170t122.5 151 q8 12 6 32.5t-15 43t-35.5 46.5t-51.5 40v53h336v-53q-23 -29 -44.5 -57.5t-39.5 -51.5q-23 -27 -43 -53l-371 -448l539 -705q31 -47 72 -88q35 -35 87 -70.5t121 -54.5v-53l-272 4l-643 848z" />
<glyph unicode="L" horiz-adv-x="1036" d="M233 1380q-2 39 -24 74q-18 29 -58 58.5t-112 41.5v54h543v-54q-74 -12 -114 -41.5t-58 -58.5q-23 -35 -25 -74l23 -1269h434q16 14 32 45q14 27 29 72.5t27 119.5h51l4 -354l-209 2q-4 0 -5 1t-3 1h-2h-520z" />
<glyph unicode="M" horiz-adv-x="1662" d="M817 727l418 903l364 2v-55q-74 -12 -113.5 -41t-58.5 -57q-23 -35 -24 -74l18 -1176q2 -41 25 -75q18 -29 57 -57.5t113 -41.5v-55h-543v55q72 12 113 41t59 58q23 35 27 75l-21 1176v6l-438 -973l-520 967l14 -1176q2 -41 19 -75q14 -29 42.5 -57.5t84.5 -41.5v-55 h-406v55q53 12 84 41t45 58q16 35 19 75l-15 1176q-2 39 -18 74q-14 29 -44 57.5t-83 40.5v55h278z" />
<glyph unicode="N" horiz-adv-x="1310" d="M346 1221l14 -996q2 -39 19 -73q14 -29 43 -57.5t84 -41.5v-53h-408v53q55 12 85 41t44 58q16 35 19 73l-15 1161q-2 39 -18 74q-14 29 -44 57.5t-83 41.5v53h266l656 -1299l-13 1067q-2 37 -18 72q-14 29 -44 57.5t-83 40.5v54h405v-54q-55 -12 -84.5 -40.5t-44.5 -57.5 q-16 -35 -18 -72l14 -1163q2 -39 19 -74q14 -29 42.5 -57.5t84.5 -38.5v-55h-281z" />
<glyph unicode="O" horiz-adv-x="1243" d="M618 1757q121 0 227.5 -68.5t185.5 -188.5t125 -280.5t46 -342.5t-46 -343t-125 -281t-185.5 -188.5t-227.5 -68.5t-227 68.5t-185 188.5t-125 280.5t-46 343.5q0 182 46 342.5t125 280.5t185 188.5t227 68.5zM612 82q84 0 158 62.5t129 170t87 252t32 307.5 q0 164 -32 307.5t-87 251t-129 170t-158 62.5t-157.5 -62.5t-129 -170t-87 -251t-31.5 -307.5t31.5 -308t87 -251.5t129 -170t157.5 -62.5z" />
<glyph unicode="P" horiz-adv-x="1024" d="M979 1147q0 -96 -33 -180t-90 -147.5t-133 -99.5t-162 -36q-45 0 -80 5t-71 24l6 -490q2 -39 24 -73q18 -29 57.5 -58t112.5 -41v-53h-542v53q72 12 112.5 41t59.5 58q23 35 26 73l-20 1170q-2 39 -25 73q-18 29 -58 57.5t-112 41.5v55h359q160 0 268 -38t175 -102.5 t96.5 -150.5t29.5 -182zM438 766q84 -10 154 18.5t121 84t78.5 129t27.5 153.5t-29.5 149.5t-82 122t-121 82t-148.5 29.5h-41l13 -766h13t15 -2z" />
<glyph unicode="Q" horiz-adv-x="1263" d="M899 -119q72 -16 117 -16q29 0 88 16v-41q-10 -6 -19.5 -12t-19.5 -12q-23 -12 -37 -21.5t-24 -15.5q-8 -6 -16.5 -12.5t-16.5 -14.5q-10 0 -53 6q-35 2 -87 17q-23 6 -60.5 18t-92.5 33q-207 70 -256 70q-12 0 -33 -5q-20 -6 -41 -18l-76 -47v53q66 53 119 85t92 46 q10 -2 22.5 -3t26.5 -5q-104 27 -192 103.5t-153.5 190.5t-102.5 258t-37 304q0 180 46 338t125 275.5t185.5 186t227.5 68.5t227.5 -68.5t185 -186t124.5 -275.5t46 -338t-46 -338t-124.5 -275.5t-185 -186t-227.5 -68.5q-10 0 -20.5 1t-20.5 1q16 -4 39.5 -12.5 t52.5 -20.5q76 -29 129 -48.5t88 -29.5zM219 854q0 -154 32 -290t87 -237.5t129 -159.5t158 -58t158.5 58t130 159.5t87 237.5t31.5 290q0 156 -31.5 292t-87 237.5t-130 160t-158.5 58.5t-158 -58.5t-129 -160t-87 -237.5t-32 -292z" />
<glyph unicode="R" horiz-adv-x="1296" d="M1128 115q23 -18 56 -33.5t80 -24.5v-55h-334q2 37 4 90t-1 113.5t-14.5 121t-37.5 109.5q-45 86 -106.5 151.5t-121.5 98.5q-14 -2 -27.5 -3t-27.5 -1q-45 0 -80 5t-72 24l7 -490q2 -39 24 -74q18 -29 57 -57.5t113 -40.5v-53h-543v53q72 12 113 41t59 57q23 35 27 74 l-20 1172q-2 39 -25 73q-18 29 -58 57.5t-112 41.5v53h358q160 0 268.5 -38t175 -102.5t96.5 -149.5t30 -181q0 -145 -71 -260t-185 -168q31 -16 64.5 -39t67.5 -52.5t65.5 -64.5t54.5 -78q27 -49 42 -108.5t25.5 -112.5t21.5 -94t27 -55zM475 764q84 -10 153.5 18.5t121 84 t79 129t27.5 153.5t-29.5 149.5t-82 122t-121 83t-148.5 30.5q-4 0 -20.5 -1t-20.5 -1l10 -764q10 -2 15.5 -2t15.5 -2z" />
<glyph unicode="S" horiz-adv-x="874" d="M756 1671h67v-334h-78q0 68 -17 129.5t-49 106.5t-79 71.5t-104 26.5q-59 0 -110.5 -25.5t-89.5 -70.5t-60.5 -104.5t-22.5 -127.5q0 -29 14.5 -57.5t38 -57t50 -57t51.5 -57.5l360 -389q66 -76 89.5 -150.5t27.5 -134.5q4 -70 -13 -137q-10 -61 -44.5 -115.5t-88 -95.5 t-123 -64.5t-149.5 -23.5q-78 0 -154.5 24.5t-130.5 63.5v-96h-57v414h55q2 -98 19.5 -154.5t40.5 -87.5q25 -37 57 -49q33 -18 74 -29.5t82 -11.5q61 0 118.5 29.5t96.5 79t53 114t-6 131.5q-8 23 -23 49q-12 23 -30.5 52.5t-45.5 64.5l-362 410q-4 4 -31.5 33.5 t-59.5 75.5t-57.5 102.5t-25.5 113.5q0 82 31.5 154t87 125t130 83.5t158.5 30.5q86 0 172.5 -20t137.5 -80v45z" />
<glyph unicode="T" horiz-adv-x="1075" d="M641 229q2 -41 25 -75q18 -29 57 -57.5t113 -41.5v-55h-543v55q72 12 112.5 41t59.5 58q23 35 27 75l-23 1276h-258h-29q-25 -2 -47 -20q-18 -16 -36.5 -48t-26.5 -91h-35v288l139 6l776 2l90 -8v-288h-34q-10 59 -28.5 90.5t-41.5 48.5q-25 18 -53 20h-262z" />
<glyph unicode="U" horiz-adv-x="1394" d="M961 248q-31 -59 -62 -103.5t-69.5 -72t-91 -41t-124.5 -13.5q-74 0 -135 38t-106 96.5t-73 131t-34 144.5l-16 965q-2 39 -25 73q-18 29 -58 57.5t-112 41.5v55h543v-55q-74 -12 -114 -41t-58 -58q-23 -35 -25 -73l17 -965q0 -51 20.5 -100t55 -88t84 -62.5t104.5 -23.5 q57 0 107.5 26.5t87 68.5t58 94t21.5 103l-14 959q-2 39 -24 74q-18 29 -58.5 57.5t-111.5 40.5v55h542v-55q-74 -12 -113.5 -41t-58.5 -57q-23 -35 -24 -74l20 -1178q2 -39 25 -73q18 -29 57 -57.5t113 -41.5v-55h-351l3 248v0z" />
<glyph unicode="V" horiz-adv-x="1103" d="M559 389l295 1008q8 45 -2 82q-10 31 -42 58.5t-103 33.5v53h407v-53q-47 -27 -75.5 -56.5t-47.5 -58.5q-23 -33 -33 -63l-401 -1393h-51l-365 1393q-8 35 -30 67q-20 29 -59.5 57.5t-104.5 49.5v53h542v-53q-84 -6 -124.5 -35t-57.5 -59q-20 -37 -16 -80z" />
<glyph unicode="W" horiz-adv-x="2066" d="M2009 1634v-53q-47 -27 -75.5 -56.5t-47.5 -58.5q-23 -33 -33 -63l-401 -1393h-51l-344 1309l-383 -1309h-51l-367 1393q-8 35 -31 67q-20 29 -59 57.5t-105 49.5v53h543v-53q-84 -6 -124 -35t-56 -59q-20 -37 -16 -80l266 -997l264 905q23 78 26 129t-10.5 81.5t-43 44 t-70.5 17.5v53h491v-53q-80 -8 -112.5 -35.5t-40.5 -58.5q-8 -37 6 -80l270 -1010l293 1008q10 45 0 82q-10 31 -42 58.5t-103 33.5v53h407z" />
<glyph unicode="X" horiz-adv-x="1277" d="M891 1374l2 10q4 47 -16 84q-16 33 -57.5 63t-123.5 36v57h543v-57q-61 -31 -98 -64t-60 -59q-25 -31 -37 -60l-299 -606l277 -518q16 -37 41 -74q23 -31 53.5 -65.5t77.5 -59.5v-55h-408v55q66 14 85.5 45t15.5 62q-4 37 -31 78l-242 454l-249 -454q-27 -41 -31 -78 q-4 -31 16.5 -61.5t85.5 -45.5v-55h-407v55q45 25 76.5 60t54.5 65q25 37 41 74l329 596l-284 537q-12 29 -37 57q-23 25 -60.5 55.5t-97.5 61.5v53h543v-53q-84 -6 -125 -35t-57 -59q-20 -37 -15 -80l2 -11l256 -462z" />
<glyph unicode="Y" horiz-adv-x="1394" d="M954 1362l4 12q4 49 -16 90q-16 35 -57 66t-125 39v61h543v-61q-61 -35 -98.5 -69t-59.5 -62q-25 -33 -37 -64l-311 -637l8 -516q2 -37 24 -71q18 -29 57.5 -58t112.5 -39v-53h-542v53q72 10 112.5 39t59.5 58q23 35 24 71l-8 516l-319 631q-12 31 -37 64 q-23 29 -61 62.5t-97 68.5v61h543v-61q-84 -6 -124 -38t-56 -67q-20 -41 -17 -90l2 -10l240 -475z" />
<glyph unicode="Z" horiz-adv-x="1208" d="M256 119q190 -6 354 -8h140.5t132 2t109.5 6t75 12q16 4 29.5 27.5t21.5 50.5q8 31 17 67l36 -2l-4 -284l-157 8l-942 4v121l905 1360l-750 2q-29 -2 -51 -19q-20 -14 -40.5 -45.5t-31.5 -91.5l-37 2l7 285l157 -8l918 -4l2 -123l-891 -1362v0z" />
<glyph unicode="`" horiz-adv-x="1105" d="M492 1823l114 354h99l-181 -354h-32v0z" />
<glyph unicode="a" horiz-adv-x="882" d="M332 -2q-90 0 -158 100q-66 102 -65 242q0 135 57 223q57 90 229 168q53 25 99.5 46.5t64.5 37.5v96q0 72 -21.5 127.5t-43.5 98.5q-49 86 -127 86q-72 0 -127 -74t-80 -203l-39 19q25 182 102 286q80 109 185 109q125 0 204 -125q78 -127 78 -346v-553q0 -119 8 -158 q8 -41 35 -41q16 0 29 23q10 27 24 100h37q-6 -121 -45 -190q-41 -72 -106 -72q-47 0 -70.5 45t-42.5 137q-29 -53 -63.5 -88t-57.5 -55q-45 -39 -106 -39zM559 735q-16 -10 -50 -25.5t-65 -31.5q-121 -70 -149 -131q-33 -63 -33 -174q0 -98 35 -166q33 -70 82 -70 q47 0 92 47q25 23 51.5 51.5t36.5 63.5v436z" />
<glyph unicode="b" horiz-adv-x="991" d="M152 1528q-10 23 -26.5 22.5t-33.5 -8.5q-18 -8 -37 -29l-30 56l251 143l5 -475v-2v2q88 72 190 72q86 0 162 -53.5t132 -144.5t89 -214t33 -262t-20.5 -256t-68.5 -201t-126 -132t-191 -50l-205 6h-266v53q53 12 83 40t44 57q16 35 19 73l2 1014zM266 225 q4 -51 27.5 -82.5t54.5 -49t66 -22.5t63 -3q51 2 95 45t77 116.5t51.5 176t18.5 223.5t-21.5 225t-57.5 181t-83 121t-96 44q-27 0 -58.5 -12t-59.5 -37t-46 -59.5t-21 -79.5z" />
<glyph unicode="c" horiz-adv-x="753" d="M682 172q-14 -25 -29.5 -47.5t-34.5 -40.5q-80 -86 -184 -86q-98 0 -184 80q-84 80 -129 217t-45 321q0 297 106 490q106 195 269 194q59 0 139 -32q45 -18 65 -19q14 0 17.5 10.5t9.5 30.5l33 -2v-370l-45 -3q-14 86 -23.5 150.5t-38.5 105.5q-55 82 -151 82 q-63 0 -106.5 -37.5t-78.5 -115.5q-37 -78 -53 -179.5t-16 -228.5q0 -141 14 -249.5t53 -194.5t85 -129t110 -43q123 0 201 143l16 -47v0z" />
<glyph unicode="d" horiz-adv-x="1069" d="M854 231q2 -41 18 -75q14 -29 44 -58.5t88 -42.5v-55h-273l-209 -4q-117 2 -195.5 51t-126.5 135t-69.5 205t-21.5 262q0 141 33.5 267t91 219.5t134 147.5t164.5 54q104 0 193 -75h2l-4 311q-12 23 -28.5 21.5t-32.5 -9.5q-18 -10 -39 -29l-31 60l258 145zM526 68 q29 -2 65 4t67.5 24.5t54 50t26.5 84.5l-8 801q-2 47 -21.5 83t-47 60.5t-60.5 38t-59 13.5q-51 0 -98.5 -45t-84 -124t-58 -185.5t-21.5 -231.5q0 -123 19 -227.5t52 -180t78 -119.5t96 -46z" />
<glyph unicode="e" horiz-adv-x="815" d="M786 264q-68 -143 -137 -205q-72 -61 -170 -61q-174 0 -286 182q-115 182 -115 461t108 473q113 193 267 193q129 0 225 -146q96 -141 96 -346v-24h-547v-19q0 -205 37 -354q20 -76 47 -135.5t64 -100.5q70 -86 149 -86q74 0 125 51q49 45 137 207v-90zM633 850v22 q0 168 -58 265q-55 96 -141 96q-90 0 -145 -103q-55 -100 -62 -280h406z" />
<glyph unicode="f" horiz-adv-x="595" d="M293 233q2 -41 18 -75q14 -29 44 -57.5t87 -41.5v-55h-413v55q55 12 85.5 41t45.5 58q16 35 18 75l-16 1344q0 31 23.5 60.5t58.5 52t76.5 36t82.5 13.5q49 0 93.5 -17.5t77 -47t51 -69.5t18.5 -85l-104 -181l-54 -4l-2 246q-8 20 -18 37q-10 14 -23.5 25.5t-35.5 15.5 q-16 2 -36 -1t-37.5 -12.5t-30.5 -25.5t-13 -41l2 -621h147l25 -127h-166z" />
<glyph unicode="g" horiz-adv-x="1144" d="M1100 1341v-100h-254q109 -125 108 -262q0 -135 -104 -242q-106 -102 -252 -112q-104 -4 -209 -62q-104 -59 -104 -104q0 -49 55 -74q29 -12 92.5 -26.5t165.5 -30.5q113 -20 190.5 -37t120.5 -33q88 -31 140 -88q49 -59 49 -131q0 -158 -172 -268q-174 -109 -418 -109 q-211 0 -342 76q-129 76 -129 199q0 84 74 151q72 66 235 129v6q-92 18 -153 64q-55 45 -56 100q0 147 297 246v4q-143 37 -223 125q-78 90 -78 215q0 160 115 268q115 106 293 107q35 0 127 -6q47 -2 77.5 -3.5t47.5 -1.5h307zM997 -41q0 88 -116 137q-113 47 -447 101 q-279 -68 -278 -211q0 -98 137 -162q141 -66 344 -66q162 0 260 56q100 55 100 145zM305 995q0 -145 66 -235q63 -88 172 -88t174 86q63 88 63 237q0 137 -65 222q-66 86 -170 86q-109 0 -172 -86q-68 -85 -68 -222z" />
<glyph unicode="h" horiz-adv-x="1097" d="M387 227q2 -41 19 -75q14 -29 43.5 -59t85.5 -42v-53h-412v53q55 12 85 42t44 59q16 35 20 75l-16 1342q-12 23 -28.5 22.5t-32.5 -8.5q-18 -8 -39 -29l-31 58l256 145l4 -780q39 63 67.5 95t61.5 58q59 51 139 52q117 0 193 -107q74 -109 74 -291v-505q0 -135 26 -177 q25 -43 103 -43v-53h-416v53q80 0 108 37q25 37 25 150v565q0 111 -43 182q-43 68 -117 68q-66 0 -121 -49q-27 -27 -49 -56.5t-51 -89.5z" />
<glyph unicode="i" horiz-adv-x="540" d="M219 1169q-12 16 -28.5 16.5t-32.5 -5.5q-18 -8 -39 -23l-31 43l256 109l6 -1137q2 -31 19 -55q14 -23 43.5 -43.5t85.5 -30.5v-41h-412v41q55 10 85 30.5t44 43.5q16 25 21 55zM387 1470q0 -47 -35 -78.5t-82 -31.5q-49 0 -82.5 31.5t-33.5 78.5t33.5 79t82.5 32 q47 0 82 -32t35 -79z" />
<glyph unicode="j" horiz-adv-x="471" d="M256 1249q-12 16 -28.5 16.5t-32.5 -5.5q-18 -8 -39 -21l-31 43l258 109l4 -1137q12 -127 -20 -231q-14 -45 -39 -90.5t-64 -83t-94 -65.5t-131 -40l-4 74q61 18 115 71q43 45 80.5 131t41.5 234zM414 1559q0 -47 -34 -79t-83 -32q-47 0 -82 31.5t-35 79.5q0 47 35 78.5 t82 31.5q49 0 83 -31.5t34 -78.5z" />
<glyph unicode="k" horiz-adv-x="1110" d="M369 756q72 76 139 145q57 59 115.5 125t95.5 113q14 18 -6.5 61t-65.5 74v43l252 -10l2 -58q-16 -20 -32.5 -40.5t-30.5 -37.5q-16 -20 -33 -38l-279 -328l410 -592q23 -37 55 -74q29 -31 68 -62.5t92 -51.5v-43l-207 24l-491 713l-84 -74l2 -416q2 -41 18 -75 q14 -29 44 -58.5t85 -42.5v-53h-412v53q55 12 85 42t45 59q16 35 20 75l-18 1342q-12 23 -28.5 22.5t-33.5 -8.5q-18 -8 -37 -29l-30 58l256 145l4 -1003v0z" />
<glyph unicode="l" horiz-adv-x="514" d="M176 1565q-12 23 -28.5 22.5t-32.5 -8.5q-18 -8 -37 -29l-31 58l256 143l6 -1522q2 -41 19 -75q14 -29 43.5 -57.5t85.5 -41.5v-53h-412v53q55 12 85 41t44 58q16 35 21 75l-19 1336v0z" />
<glyph unicode="m" horiz-adv-x="1464" d="M786 1051q4 -41 4.5 -72t2.5 -80l18 -586q0 -156 25 -204q25 -51 102 -52v-61h-414v61q82 0 107 43q27 41 26 172v656q0 135 -45 211q-43 80 -116 80q-72 0 -127 -60q-16 -16 -35 -37.5t-29 -56.5l4 -889q2 -31 19 -55q14 -23 43.5 -43.5t85.5 -30.5v-41h-414v41 q55 10 86 30.5t45 43.5q16 25 19 55l-17 983q-12 16 -28.5 16.5t-32.5 -6.5q-18 -8 -39 -20l-31 43l258 106v-131q27 43 52.5 77t47.5 54q59 59 140 60q119 0 192 -123q10 -16 18.5 -33.5t14.5 -38.5q27 45 59.5 79t55.5 56q63 59 141 60q117 0 190 -125q76 -121 76 -334 v-588q0 -156 25 -205q27 -49 104 -49v-61h-415v61q80 0 108 43q25 39 25 172v656q0 131 -43 211q-47 78 -117 78q-35 0 -67.5 -15.5t-61.5 -44.5q-16 -16 -38 -42.5t-24 -63.5z" />
<glyph unicode="n" horiz-adv-x="993" d="M311 170q2 -31 19 -55q14 -23 43.5 -42.5t85.5 -29.5v-41h-412v41q55 10 85 29.5t44 42.5q16 25 21 55l-17 985q-12 16 -28.5 16t-32.5 -6q-18 -8 -39 -20l-31 41l258 108v-131q27 43 52.5 77t48.5 54q59 59 139 60q115 0 192 -123q74 -127 74 -336v-586q0 -156 27 -207 q25 -49 102 -49v-61h-416v61q80 0 109 43q25 43 24 172v656q0 131 -43 211t-116 79q-70 0 -129 -59q-16 -16 -35 -37.5t-29 -56.5z" />
<glyph unicode="o" horiz-adv-x="878" d="M446 1364q80 0 152 -45t124 -129t83 -204t31 -269q0 -150 -31 -281t-83 -229t-124 -154.5t-152 -56.5t-151.5 56.5t-123.5 154.5t-83 229t-31 281t31 269.5t83 203.5t123.5 129t151.5 45zM444 90q51 0 95.5 48t76 132t50 196t18.5 239t-20.5 227t-54.5 169.5t-78 106.5 t-95 37q-49 0 -93 -37t-77 -107.5t-50 -171t-17 -227.5t20.5 -239.5t53 -195.5t77.5 -130t94 -47z" />
<glyph unicode="p" horiz-adv-x="937" d="M311 295q0 -45 19.5 -81t47.5 -60.5t58.5 -37t52.5 -12.5q45 0 86 44.5t73 121t50.5 181t18.5 227.5q0 121 -16.5 223.5t-45 176t-67.5 115.5t-84 46q-25 2 -57.5 -4t-61.5 -23.5t-51.5 -49.5t-24.5 -83zM311 -115q2 -37 19 -69q14 -29 42.5 -56.5t84.5 -38.5v-51h-404 v51q53 10 84 38t45 57q16 33 19 69l-17 1258q-12 20 -28.5 20t-32.5 -8q-18 -8 -37 -27l-31 54l250 125l2 -88q18 37 51 55t68 26q37 8 82 9q100 -2 167.5 -49.5t109.5 -132.5t60.5 -201.5t18.5 -255.5t-28.5 -262t-78.5 -214.5t-117 -144.5t-142 -53q-45 0 -97.5 24.5 t-89.5 59.5v-195z" />
<glyph unicode="q" horiz-adv-x="882" d="M410 104q25 0 54.5 13.5t57 38t47 60.5t19.5 83l4 803q-4 51 -25.5 84t-51.5 50t-62.5 23.5t-57.5 4.5q-45 -4 -83 -47t-66.5 -119t-45 -180.5t-16.5 -227.5q0 -125 18.5 -231.5t50.5 -185t73 -124t84 -45.5zM588 80q-37 -35 -89.5 -60.5t-97.5 -25.5q-76 0 -142 54 t-115.5 147.5t-78 219.5t-28.5 267q0 143 18.5 262t60.5 205t109.5 135t167.5 51q45 0 82 -8q33 -8 65.5 -27.5t53.5 -58.5v90l250 -127l-31 -55q-18 20 -37 29q-16 8 -33.5 7t-27.5 -22l-17 -1282q2 -39 19 -71q14 -29 44 -56.5t85 -40.5v-53h-404v53q53 12 83 40t44 57 q16 33 19 71v199z" />
<glyph unicode="r" horiz-adv-x="796" d="M309 170q2 -31 19 -55q14 -23 43.5 -42.5t85.5 -29.5v-41h-412v41q55 10 85 29.5t44 42.5q16 25 21 55l-19 979q-12 16 -28.5 15t-32.5 -7q-18 -8 -37 -20l-31 43l256 106l2 -407q61 133 135 229q31 41 69 77t81 57.5t90 25.5t98 -17l-80 -217q-66 0 -133 -26 q-59 -23 -127.5 -78.5t-132.5 -165.5z" />
<glyph unicode="s" horiz-adv-x="710" d="M610 1313h52v-262h-58q0 53 -12 100t-37 83t-58.5 57.5t-76.5 21.5t-81 -20.5t-65.5 -55.5t-44 -82t-16.5 -100q0 -23 11.5 -45.5t27.5 -45t35.5 -45t38.5 -45.5l264 -307q47 -59 65.5 -118.5t20.5 -106.5q2 -55 -10 -106q-8 -47 -34 -90.5t-65 -75t-89 -50t-107 -18.5 q-59 0 -114.5 18.5t-94.5 49.5q-2 -16 -2 -28.5t2 -47.5h-43v325h39q2 -76 15 -120.5t30 -69.5q18 -29 43 -39q23 -14 53.5 -22.5t58.5 -8.5q45 0 87 23.5t71 61.5t40 88.5t-5 103.5q-6 16 -16 39q-10 18 -23.5 41.5t-32.5 50.5l-266 324q-4 2 -23.5 25.5t-43 59t-42 80.5 t-18.5 91q0 63 23.5 119.5t63.5 98.5t94.5 66.5t115.5 24.5q63 0 126.5 -16.5t100.5 -63.5v37z" />
<glyph unicode="t" horiz-adv-x="653" d="M618 1106h-202l4 -905q2 -35 18 -66q14 -27 44 -52.5t85 -35.5v-47h-411v47q55 10 84.5 36t44.5 52q16 31 20 66l-12 905h-264v98h262l-2 168q-12 18 -28.5 19.5t-33.5 -7.5q-18 -8 -39 -24l-30 49l258 129v-334h202v-98z" />
<glyph unicode="u" horiz-adv-x="1024" d="M705 199q-23 -49 -46.5 -84t-52 -57.5t-67.5 -33t-95 -10.5q-55 0 -101 30t-80 78t-54.5 106.5t-24.5 113.5l-12 774q-2 33 -18 60q-14 23 -44 45t-83 32v45h407v-45q-55 -10 -85 -32.5t-44 -44.5q-16 -27 -18 -60l10 -774q0 -41 15.5 -80t42 -69.5t62.5 -50t79 -19.5 t79.5 21.5t64.5 55t44 74.5t16 82l-10 768q-2 33 -18 60q-14 23 -44 46t-83 34v43h407v-43q-55 -10 -84.5 -34t-44.5 -46q-16 -27 -18 -60l14 -942q2 -33 19 -59q14 -23 42.5 -46.5t84.5 -33.5v-43h-263l3 199v0z" />
<glyph unicode="v" horiz-adv-x="1052" d="M524 307l230 795q8 37 0 65q-8 25 -33 46.5t-82 25.5v43h322v-43q-37 -20 -60.5 -44t-38.5 -46q-16 -25 -24 -51l-316 -1098h-41l-288 1098q-6 29 -25 53q-16 23 -46 45.5t-83 38.5v43h428v-43q-66 -4 -98.5 -26.5t-44.5 -47.5q-14 -29 -13 -63z" />
<glyph unicode="w" horiz-adv-x="1478" d="M1473 1288v-43q-35 -20 -55.5 -43.5t-35.5 -46.5q-16 -25 -24 -51l-299 -1110h-37l-256 1042l-285 -1042h-39l-272 1110q-4 29 -23 53q-16 23 -44.5 45.5t-77.5 38.5v43h403v-43q-61 -4 -92 -26.5t-43 -47.5q-14 -29 -10 -63l198 -795l197 721q16 61 18 102.5t-8 66 t-31.5 35.5t-52.5 13v43h365v-45q-59 -6 -83 -27.5t-30 -46.5q-8 -29 4 -63l201 -805l219 803q6 37 -2 65q-8 25 -30.5 47.5t-76.5 26.5v43h302z" />
<glyph unicode="x" horiz-adv-x="1081" d="M721 1098l2 8q2 37 -10 68q-10 27 -39 50t-86 27v47h373v-47q-41 -25 -68 -50t-41 -48q-18 -25 -25 -47l-206 -488l190 -415q10 -31 27 -60q14 -25 36.5 -51t53.5 -47v-45h-279v45q45 10 58.5 35.5t11.5 50.5q-2 29 -21 62l-166 364l-172 -364q-18 -35 -20 -64 q-2 -25 10 -49.5t60 -36.5v-43h-279v43q31 20 52.5 48t35.5 52q16 29 29 60l227 479l-196 430q-8 23 -25 45q-16 20 -42 45t-67 49v43h373v-43q-57 -4 -86 -26.5t-39 -46.5q-12 -29 -10 -66l2 -8l174 -371z" />
<glyph unicode="y" horiz-adv-x="937" d="M512 610l123 459q16 59 16 90q0 68 -71 74v41l331 -4v-41q-59 0 -94 -47q-37 -47 -67 -156l-285 -1020q-23 -74 -54.5 -123t-64.5 -92q-16 -20 -43 -38.5t-55.5 -32t-56 -20.5t-44.5 -7q-41 0 -90 37l47 149q41 -20 70 -20q33 0 60.5 9t50.5 34t43 64.5t37 99.5l84 319 l-109 301l-150 416q-29 80 -55 104q-29 25 -90 27v41h344v-41q-61 -12 -61 -76q0 -27 12 -57z" />
<glyph unicode="z" horiz-adv-x="933" d="M178 94q152 -4 281 -4q55 0 110.5 1t104.5 2t87 5t58 11q14 4 25.5 21t17.5 40q8 25 12 55h29l-6 -227l-123 6l-743 -4v96l725 1090l-592 -4q-20 -2 -41 -15q-16 -10 -32.5 -35.5t-24.5 -72.5h-31l8 227l123 -6l725 4l2 -98l-715 -1092v0z" />
<glyph unicode="~" />
<glyph unicode="&#xa1;" horiz-adv-x="423" d="M53 6l127 1135h84l98 -1135h-309zM59 1405q0 72 50.5 121t121.5 49q72 0 122 -49t50 -121q0 -37 -13 -67.5t-36.5 -54t-55.5 -37t-67 -13.5t-66.5 13.5t-55 37t-37 54t-13.5 67.5z" />
<glyph unicode="&#xbf;" horiz-adv-x="630" d="M444 1264q-12 -100 -62 -220t-107.5 -237t-106.5 -220.5t-59 -168.5q-10 -68 3 -130.5t44.5 -109.5t80 -74.5t109.5 -27.5q33 0 69 11t68.5 30.5t61 44t49.5 51.5l-8 -74q-45 -53 -106.5 -88t-137.5 -45q-76 -8 -132 10.5t-96 58.5t-63.5 98t-30.5 130q-6 61 20 137 t68 159t92 171t94 174t72.5 167t28.5 153h49zM295 1460q0 47 35 82t84 35q47 0 81.5 -35t34.5 -82q0 -49 -34.5 -84t-81.5 -35q-49 0 -84 35t-35 84z" />
<glyph unicode="&#xc0;" horiz-adv-x="1267" d="M643 1673l-180 355h98l115 -355h-33zM1073 229q6 -33 25 -63q16 -29 44.5 -58.5t78.5 -52.5v-55h-414v55q47 25 66.5 54.5t23.5 56.5q6 31 -2 59l-53 211l-445 2l-63 -207q-12 -49 -4 -86q6 -33 33.5 -59.5t93.5 -30.5v-55h-414v55q49 23 80 52.5t47 58.5q20 31 29 63 l385 1379l127 4zM815 543l-180 714l-211 -716z" />
<glyph unicode="&#xc1;" horiz-adv-x="1267" d="M745 2007h97l-178 -354h-35zM1073 229q6 -33 25 -63q16 -29 44.5 -58.5t78.5 -52.5v-55h-414v55q47 25 66.5 54.5t23.5 56.5q6 31 -2 59l-53 211l-445 2l-63 -207q-12 -49 -4 -86q6 -33 33.5 -59.5t93.5 -30.5v-55h-414v55q49 23 80 52.5t47 58.5q20 31 29 63l385 1379 l127 4zM815 543l-180 714l-211 -716z" />
<glyph unicode="&#xc8;" horiz-adv-x="1011" d="M475 0h-397v55q72 12 112.5 41t59.5 58q23 35 26 73l-20 1176q-2 39 -25 74q-18 29 -58 58.5t-112 41.5v55h371l361 2h8l137 4l-6 -354h-35q-6 74 -15.5 118t-22.5 68.5t-30.5 36t-42.5 17.5q-35 8 -98 10t-127 0q-74 -2 -155 -8l10 -631l121 -2q39 2 73 18 q29 14 57.5 43t43.5 84h53v-403h-53q-14 53 -43 84t-58 45q-35 16 -73 18l-119 -4l8 -551q-2 -37 6 -63q6 -23 20.5 -43.5t43.5 -18.5h122q49 0 98.5 -1t78.5 1q51 2 71.5 57.5t28.5 200.5l35 2l18 -354l-139 -2q-2 0 -4 2h-2l-334 -8h6zM365 2058h98l117 -354h-35z" />
<glyph unicode="&#xc9;" d="M897 2042h98l-180 -354h-35zM891 -4h-397v55q72 12 112.5 41t59.5 58q23 35 26 73l-20 1176q-2 39 -25 74q-18 29 -58 58.5t-112 41.5v55h371l360 2h9l137 4l-6 -354h-35q-6 74 -15.5 118t-22.5 68.5t-30.5 35.5t-42.5 18q-35 8 -98.5 10t-126.5 0q-74 -2 -156 -8 l10 -631l121 -2q39 2 74 18q29 14 57.5 43t42.5 84h54v-403h-54q-14 53 -42.5 83.5t-57.5 45.5q-35 16 -74 18l-118 -4l8 -551q-2 -37 6 -63q6 -23 20.5 -43.5t42.5 -18.5h123q49 0 98.5 -1t77.5 1q51 2 72 57.5t29 200.5l35 2l18 -354l-139 -2q-2 0 -4 2h-2l-334 -8h6z" />
<glyph unicode="&#xcc;" horiz-adv-x="626" d="M127 2028h98l115 -355h-35zM395 223q2 -39 25 -73q18 -29 57 -56.5t113 -40.5v-53h-543v53q72 12 113 40t59 57q23 35 25 73l-21 1159q-2 39 -24 74q-18 29 -58.5 57.5t-111.5 40.5v54h542v-54q-74 -12 -113.5 -40.5t-58.5 -57.5q-23 -35 -24 -74z" />
<glyph unicode="&#xcd;" horiz-adv-x="626" d="M369 2025h98l-180 -354h-33zM395 223q2 -39 25 -73q18 -29 57 -56.5t113 -40.5v-53h-543v53q72 12 113 40t59 57q23 35 25 73l-21 1159q-2 39 -24 74q-18 29 -58.5 57.5t-111.5 40.5v54h542v-54q-74 -12 -113.5 -40.5t-58.5 -57.5q-23 -35 -24 -74z" />
<glyph unicode="&#xd2;" horiz-adv-x="1243" d="M418 2173h98l115 -354h-35zM618 1757q121 0 227.5 -68.5t185.5 -188.5t125 -280.5t46 -342.5t-46 -343t-125 -281t-185.5 -188.5t-227.5 -68.5t-227 68.5t-185 188.5t-125 280.5t-46 343.5q0 182 46 342.5t125 280.5t185 188.5t227 68.5zM612 82q84 0 158 62.5t129 170 t87 252t32 307.5q0 164 -32 307.5t-87 251t-129 170t-158 62.5t-157.5 -62.5t-129 -170t-87 -251t-31.5 -307.5t31.5 -308t87 -251.5t129 -170t157.5 -62.5z" />
<glyph unicode="&#xd3;" horiz-adv-x="1243" d="M664 2171h98l-180 -354h-33zM618 1757q121 0 227.5 -68.5t185.5 -188.5t125 -280.5t46 -342.5t-46 -343t-125 -281t-185.5 -188.5t-227.5 -68.5t-227 68.5t-185 188.5t-125 280.5t-46 343.5q0 182 46 342.5t125 280.5t185 188.5t227 68.5zM612 82q84 0 158 62.5t129 170 t87 252t32 307.5q0 164 -32 307.5t-87 251t-129 170t-158 62.5t-157.5 -62.5t-129 -170t-87 -251t-31.5 -307.5t31.5 -308t87 -251.5t129 -170t157.5 -62.5z" />
<glyph unicode="&#xd9;" horiz-adv-x="1333" d="M535 2066h98l115 -354h-35zM961 248q-31 -59 -62 -103.5t-69.5 -72t-91 -41t-124.5 -13.5q-74 0 -135 38t-106 96.5t-73 131t-34 144.5l-16 965q-2 39 -25 73q-18 29 -58 57.5t-112 41.5v55h543v-55q-74 -12 -114 -41t-58 -58q-23 -35 -25 -73l17 -965q0 -51 20.5 -100 t55 -88t84 -62.5t104.5 -23.5q57 0 107.5 26.5t87 68.5t58 94t21.5 103l-14 959q-2 39 -24 74q-18 29 -58.5 57.5t-111.5 40.5v55h542v-55q-74 -12 -113.5 -41t-58.5 -57q-23 -35 -24 -74l20 -1178q2 -39 25 -73q18 -29 57 -57.5t113 -41.5v-55h-351z" />
<glyph unicode="&#xda;" horiz-adv-x="1333" d="M780 2060h99l-181 -354h-32zM961 248q-31 -59 -62 -103.5t-69.5 -72t-91 -41t-124.5 -13.5q-74 0 -135 38t-106 96.5t-73 131t-34 144.5l-16 965q-2 39 -25 73q-18 29 -58 57.5t-112 41.5v55h543v-55q-74 -12 -114 -41t-58 -58q-23 -35 -25 -73l17 -965q0 -51 20.5 -100 t55 -88t84 -62.5t104.5 -23.5q57 0 107.5 26.5t87 68.5t58 94t21.5 103l-14 959q-2 39 -24 74q-18 29 -58.5 57.5t-111.5 40.5v55h542v-55q-74 -12 -113.5 -41t-58.5 -57q-23 -35 -24 -74l20 -1178q2 -39 25 -73q18 -29 57 -57.5t113 -41.5v-55h-351z" />
<glyph unicode="&#xe0;" horiz-adv-x="757" d="M147 1767h99l114 -354h-34zM246 -2q-90 0 -158 100q-66 102 -65 242q0 135 57 223q57 90 229 168q53 25 99.5 46.5t64.5 37.5v96q0 72 -21.5 127.5t-43.5 98.5q-49 86 -127 86q-72 0 -127 -74t-80 -203l-39 19q25 182 102 286q80 109 185 109q125 0 204 -125 q78 -127 78 -346v-553q0 -119 8 -158q8 -41 35 -41q16 0 29 23q10 27 24 100h37q-6 -121 -45 -190q-41 -72 -106 -72q-47 0 -70.5 45t-42.5 137q-29 -53 -63.5 -88t-57.5 -55q-45 -39 -106 -39zM473 735q-16 -10 -50 -25.5t-65 -31.5q-121 -70 -149 -131q-33 -63 -33 -174 q0 -98 35 -166q33 -70 82 -70q47 0 92 47q25 23 51.5 51.5t36.5 63.5v436z" />
<glyph unicode="&#xe1;" horiz-adv-x="780" d="M483 1778h99l-181 -355h-32zM256 6q-90 0 -158 100q-66 102 -65 242q0 135 57 223q57 90 229 168q53 25 99.5 46.5t64.5 37.5v97q0 72 -21.5 127t-43.5 98q-49 86 -127 86q-72 0 -127 -74t-80 -203l-39 19q25 182 102 287q80 109 185 108q125 0 205 -125q78 -127 77 -346 v-553q0 -119 9 -158q8 -41 34 -41q16 0 29 23q10 27 25 100h37q-6 -121 -46 -190q-41 -72 -106 -72q-47 0 -70.5 45t-42.5 137q-29 -53 -63.5 -87.5t-57.5 -55.5q-45 -39 -106 -39zM483 743q-16 -10 -50 -25.5t-64 -31.5q-121 -70 -150 -131q-33 -63 -33 -174q0 -98 35 -166 q33 -70 82 -70q47 0 92 48q25 23 51.5 51t36.5 63v436z" />
<glyph unicode="&#xe8;" horiz-adv-x="784" d="M233 1679h99l114 -354h-34zM756 264q-68 -143 -138 -205q-72 -61 -169 -61q-174 0 -287 182q-115 182 -115 461t109 473q113 193 266 193q129 0 225 -146q96 -141 96 -346v-24h-546v-19q0 -205 36 -354q20 -76 47 -135.5t64 -100.5q70 -86 150 -86q74 0 124 51 q49 45 138 207v-90zM602 850v22q0 168 -57 265q-55 96 -142 96q-90 0 -145 -103q-55 -100 -61 -280h405z" />
<glyph unicode="&#xe9;" horiz-adv-x="784" d="M496 1683h98l-180 -354h-33zM756 264q-68 -143 -138 -205q-72 -61 -169 -61q-174 0 -287 182q-115 182 -115 461t109 473q113 193 266 193q129 0 225 -146q96 -141 96 -346v-24h-546v-19q0 -205 36 -354q20 -76 47 -135.5t64 -100.5q70 -86 150 -86q74 0 124 51 q49 45 138 207v-90zM602 850v22q0 168 -57 265q-55 96 -142 96q-90 0 -145 -103q-55 -100 -61 -280h405z" />
<glyph unicode="&#xec;" horiz-adv-x="483" d="M41 1763h98l115 -354h-35zM164 1169q-12 16 -28.5 16.5t-33.5 -5.5q-18 -8 -39 -21l-30 41l256 109l6 -1135q2 -33 18 -57q14 -23 44 -43.5t85 -30.5v-41h-411v41q55 10 84.5 30.5t44.5 43.5q16 25 20 57z" />
<glyph unicode="&#xed;" horiz-adv-x="489" d="M254 1755h98l-180 -354h-33zM172 1161q-12 16 -28.5 16.5t-32.5 -6.5q-18 -8 -39 -20l-31 41l256 108l6 -1134q2 -33 19 -57q14 -23 43.5 -43.5t85.5 -30.5v-41h-412v41q55 10 85 30.5t44 43.5q16 25 20 57z" />
<glyph unicode="&#xf2;" horiz-adv-x="878" d="M256 1874h98l115 -354h-35zM446 1364q80 0 152 -45t124 -129t83 -204t31 -269q0 -150 -31 -281t-83 -229t-124 -154.5t-152 -56.5t-151.5 56.5t-123.5 154.5t-83 229t-31 281t31 269.5t83 203.5t123.5 129t151.5 45zM444 90q51 0 95.5 48t76 132t50 196t18.5 239 t-20.5 227t-54.5 169.5t-78 106.5t-95 37q-49 0 -93 -37t-77 -107.5t-50 -171t-17 -227.5t20.5 -239.5t53 -195.5t77.5 -130t94 -47z" />
<glyph unicode="&#xf3;" horiz-adv-x="878" d="M459 1855h98l-180 -354h-33zM446 1364q80 0 152 -45t124 -129t83 -204t31 -269q0 -150 -31 -281t-83 -229t-124 -154.5t-152 -56.5t-151.5 56.5t-123.5 154.5t-83 229t-31 281t31 269.5t83 203.5t123.5 129t151.5 45zM444 90q51 0 95.5 48t76 132t50 196t18.5 239 t-20.5 227t-54.5 169.5t-78 106.5t-95 37q-49 0 -93 -37t-77 -107.5t-50 -171t-17 -227.5t20.5 -239.5t53 -195.5t77.5 -130t94 -47z" />
<glyph unicode="&#xf9;" horiz-adv-x="989" d="M371 1761h98l115 -354h-35zM705 199q-23 -49 -46.5 -84t-52 -57.5t-67.5 -33t-95 -10.5q-55 0 -101 30t-80 78t-54.5 106.5t-24.5 113.5l-12 774q-2 33 -18 60q-14 23 -44 45t-83 32v45h407v-45q-55 -10 -85 -32.5t-44 -44.5q-16 -27 -18 -60l10 -774q0 -41 15.5 -80 t42 -69.5t62.5 -50t79 -19.5t79.5 21.5t64.5 55t44 74.5t16 82l-10 768q-2 33 -18 60q-14 23 -44 46t-83 34v43h407v-43q-55 -10 -84.5 -34t-44.5 -46q-16 -27 -18 -60l14 -942q2 -33 19 -59q14 -23 42.5 -46.5t84.5 -33.5v-43h-263z" />
<glyph unicode="&#xfa;" horiz-adv-x="989" d="M561 1769h98l-180 -354h-33zM705 199q-23 -49 -46.5 -84t-52 -57.5t-67.5 -33t-95 -10.5q-55 0 -101 30t-80 78t-54.5 106.5t-24.5 113.5l-12 774q-2 33 -18 60q-14 23 -44 45t-83 32v45h407v-45q-55 -10 -85 -32.5t-44 -44.5q-16 -27 -18 -60l10 -774q0 -41 15.5 -80 t42 -69.5t62.5 -50t79 -19.5t79.5 21.5t64.5 55t44 74.5t16 82l-10 768q-2 33 -18 60q-14 23 -44 46t-83 34v43h407v-43q-55 -10 -84.5 -34t-44.5 -46q-16 -27 -18 -60l14 -942q2 -33 19 -59q14 -23 42.5 -46.5t84.5 -33.5v-43h-263z" />
<glyph unicode="&#xff;" />
<glyph unicode="&#x2dc;" d="M811 1602q14 -4 33.5 -10.5t42.5 -16.5q59 -23 103 -39t73 -23q51 -14 94 -14q29 0 72 14v-34q-8 -4 -15.5 -9.5t-17.5 -11.5q-16 -10 -28.5 -17t-20.5 -11q-6 -4 -12.5 -10.5t-14.5 -12.5q-4 0 -15 1t-28 3q-16 4 -33.5 7t-33.5 7q-18 6 -49 15.5t-76 25.5 q-166 57 -207 58q-18 0 -29 -4q-8 -2 -15 -6.5t-18 -8.5l-61 -37v43q106 82 172 105q4 0 15.5 -3t24.5 -5t25.5 -4t18.5 -2z" />
<glyph unicode="&#x2000;" horiz-adv-x="1088" />
<glyph unicode="&#x2001;" horiz-adv-x="2177" />
<glyph unicode="&#x2002;" horiz-adv-x="1088" />
<glyph unicode="&#x2003;" horiz-adv-x="2177" />
<glyph unicode="&#x2004;" horiz-adv-x="725" />
<glyph unicode="&#x2005;" horiz-adv-x="544" />
<glyph unicode="&#x2006;" horiz-adv-x="362" />
<glyph unicode="&#x2007;" horiz-adv-x="362" />
<glyph unicode="&#x2008;" horiz-adv-x="272" />
<glyph unicode="&#x2009;" horiz-adv-x="435" />
<glyph unicode="&#x200a;" horiz-adv-x="120" />
<glyph unicode="&#x201c;" horiz-adv-x="946" d="M436 1849q-63 -35 -107 -70.5t-71 -76.5q-49 -80 -49 -217q0 -37 10 -47t47 -11q70 0 121 -45q49 -47 49 -110q0 -61 -47 -109q-43 -43 -110 -43q-104 0 -173 86q-43 55 -58 125t-7 141.5t35.5 139t73.5 119.5q109 131 286 174v-56zM907 1841q-127 -66 -178 -147 q-49 -80 -49 -217q0 -37 10 -47t47 -11q74 0 121 -45q49 -47 49 -110q0 -59 -45 -109q-47 -43 -112 -43q-104 0 -172 86q-66 86 -66 223q0 174 109 301q109 131 286 174v-55z" />
<glyph unicode="&#x201d;" horiz-adv-x="929" d="M506 1165q127 66 176 146q51 78 51 217q0 37 -10 47q-10 12 -49 12q-72 0 -119 45q-49 43 -49 109t45 108q45 45 111 45q109 0 172 -88q68 -86 67 -223q0 -170 -110 -301q-111 -133 -285 -172v55zM33 1174q129 63 178 145q51 78 51 217q0 37 -10 47q-10 12 -49 12 q-74 0 -121 45q-49 43 -49 109t47 109q49 45 110 45q106 0 172 -88q68 -86 68 -224q0 -170 -111 -301q-111 -133 -286 -172v56z" />
<glyph unicode="&#x202f;" horiz-adv-x="435" />
<glyph unicode="&#x205f;" horiz-adv-x="544" />
<glyph unicode="&#x25fc;" horiz-adv-x="1300" d="M0 1300h1300v-1300h-1300v1300z" />
</font>
</defs>
</svg>
